<svg xmlns="http://www.w3.org/2000/svg" width="35" height="35" viewBox="0 0 35 35" fill="none">
<g clip-path="url(#clip0_585_141)">
<path d="M33.8383 28.6349H30.0367C28.5983 28.6349 28.165 27.4699 25.5867 24.8899C23.3333 22.7182 22.3817 22.4482 21.8117 22.4482C21.0233 22.4482 20.8083 22.6649 20.8083 23.7499V27.1699C20.8083 28.0949 20.5083 28.6366 18.0917 28.6366C15.7472 28.4791 13.4736 27.7668 11.4583 26.5585C9.44296 25.3502 7.74354 23.6804 6.5 21.6866C3.54731 18.0116 1.49285 13.6984 0.5 9.0899C0.5 8.5199 0.716667 8.00324 1.80333 8.00324H5.60333C6.58 8.00324 6.93167 8.43824 7.315 9.44324C9.16 14.8732 12.3083 19.5966 13.5867 19.5966C14.0767 19.5966 14.29 19.3799 14.29 18.1582V12.5649C14.1283 10.0132 12.7733 9.79824 12.7733 8.8749C12.7905 8.63131 12.9019 8.40399 13.084 8.24123C13.266 8.07847 13.5043 7.99309 13.7483 8.00324H19.7217C20.5383 8.00324 20.8083 8.4099 20.8083 9.38657V16.9366C20.8083 17.7516 21.1583 18.0216 21.405 18.0216C21.895 18.0216 22.2717 17.7516 23.17 16.8549C25.0956 14.5065 26.6688 11.8902 27.84 9.08824C27.9599 8.75183 28.1865 8.46386 28.4853 8.26827C28.7841 8.07267 29.1387 7.98018 29.495 8.0049H33.2967C34.4367 8.0049 34.6783 8.57491 34.4367 9.38824C33.054 12.4856 31.3431 15.4257 29.3333 18.1582C28.9233 18.7832 28.76 19.1082 29.3333 19.8416C29.71 20.4116 31.0433 21.5249 31.9383 22.5832C33.2417 23.8832 34.3233 25.3866 35.1417 27.0332C35.4683 28.0932 34.9233 28.6349 33.8383 28.6349Z" fill="#5E5E5E"/>
</g>
<defs>
<clipPath id="clip0_585_141">
<rect width="35" height="35" fill="white"/>
</clipPath>
</defs>
</svg>