<svg xmlns="http://www.w3.org/2000/svg" width="25" height="17" viewBox="0 0 25 17" fill="none">
<g clip-path="url(#clip0_585_293)">
<path d="M32 0H0V17H32V0Z" fill="white"/>
<path d="M32 0H0V1.30769H32V0Z" fill="#B22234"/>
<path d="M32 0H17L21.5 1H32.5L32 0Z" fill="#A31829"/>
<path d="M32 2.61548H0V3.92317H32V2.61548Z" fill="#B22234"/>
<path d="M32 2.61523H0V3.92293L23 3.5L32 2.61523Z" fill="#A31829"/>
<path d="M32 5.23071H0V6.53841H32V5.23071Z" fill="#B22234"/>
<path d="M23 6L0 5.23096V6.53865H32L23 6Z" fill="#A31829"/>
<path d="M32 7.84619H0V9.15388H32V7.84619Z" fill="#B22234"/>
<path d="M22.5 7.84619H0V9.15388H32L22.5 7.84619Z" fill="#A31829"/>
<path d="M32 10.4614H0V11.7691H32V10.4614Z" fill="#B22234"/>
<path d="M13 10.4614H0V11.7691H32L13 10.4614Z" fill="#A31829"/>
<path d="M32 13.0769H0V14.3846H32V13.0769Z" fill="#B22234"/>
<path d="M32 13.0771L8 13.5L0 14.3848H32V13.0771Z" fill="#A31829"/>
<path d="M32 15.6924H0V17.0001H32V15.6924Z" fill="#B22234"/>
<path d="M32 15.6924H0L16.5 16.5L32 17.0001V15.6924Z" fill="#A31829"/>
<path d="M12.8 0H0V9.15385H12.8V0Z" fill="#3C3B6E"/>
<path d="M12.8 0H0V9.15385H6.25038L12.8 0Z" fill="#474677"/>
<path d="M1.2311 1.00487L0.789835 1.32847L0.958383 0.804868L1.2311 1.00487Z" fill="white"/>
<path d="M1.04265 1.06683L0.601385 0.743228L1.14682 0.743228L1.04265 1.06683Z" fill="white"/>
<path d="M0.926193 0.904948L1.09474 0.381348L1.26329 0.904948H0.926193Z" fill="white"/>
<path d="M1.04265 0.7431L1.58808 0.7431L1.14682 1.0667L1.04265 0.7431Z" fill="white"/>
<path d="M1.23109 0.804914L1.39964 1.32851L0.958374 1.00491L1.23109 0.804914Z" fill="white"/>
<path d="M3.35318 1.00487L2.91192 1.32847L3.08047 0.804868L3.35318 1.00487Z" fill="white"/>
<path d="M3.16475 1.06683L2.72349 0.743228L3.26892 0.743228L3.16475 1.06683Z" fill="white"/>
<path d="M3.04828 0.904948L3.21683 0.381348L3.38537 0.904948H3.04828Z" fill="white"/>
<path d="M3.16475 0.7431L3.71018 0.7431L3.26892 1.0667L3.16475 0.7431Z" fill="white"/>
<path d="M3.35319 0.804914L3.52174 1.32851L3.08047 1.00491L3.35319 0.804914Z" fill="white"/>
<path d="M5.4753 1.00487L5.03404 1.32847L5.20258 0.804868L5.4753 1.00487Z" fill="white"/>
<path d="M5.28687 1.06683L4.8456 0.743228L5.39103 0.743228L5.28687 1.06683Z" fill="white"/>
<path d="M5.17039 0.904948L5.33894 0.381348L5.50749 0.904948H5.17039Z" fill="white"/>
<path d="M5.28686 0.7431L5.8323 0.7431L5.39103 1.0667L5.28686 0.7431Z" fill="white"/>
<path d="M5.47531 0.804914L5.64385 1.32851L5.20259 1.00491L5.47531 0.804914Z" fill="white"/>
<path d="M7.59742 1.00487L7.15615 1.32847L7.3247 0.804868L7.59742 1.00487Z" fill="white"/>
<path d="M7.40897 1.06683L6.9677 0.743228L7.51314 0.743228L7.40897 1.06683Z" fill="white"/>
<path d="M7.29251 0.904948L7.46106 0.381348L7.62961 0.904948H7.29251Z" fill="white"/>
<path d="M7.40897 0.7431L7.9544 0.7431L7.51313 1.0667L7.40897 0.7431Z" fill="white"/>
<path d="M7.59741 0.804914L7.76596 1.32851L7.32469 1.00491L7.59741 0.804914Z" fill="white"/>
<path d="M9.7195 1.00487L9.27824 1.32847L9.44679 0.804868L9.7195 1.00487Z" fill="white"/>
<path d="M9.53107 1.06683L9.0898 0.743228L9.63524 0.743228L9.53107 1.06683Z" fill="white"/>
<path d="M9.4146 0.904948L9.58314 0.381348L9.75169 0.904948H9.4146Z" fill="white"/>
<path d="M9.53107 0.7431L10.0765 0.7431L9.63523 1.0667L9.53107 0.7431Z" fill="white"/>
<path d="M9.71951 0.804914L9.88806 1.32851L9.44679 1.00491L9.71951 0.804914Z" fill="white"/>
<path d="M11.8416 1.00487L11.4004 1.32847L11.5689 0.804868L11.8416 1.00487Z" fill="white"/>
<path d="M11.6532 1.06683L11.2119 0.743228L11.7573 0.743228L11.6532 1.06683Z" fill="white"/>
<path d="M11.5367 0.904948L11.7053 0.381348L11.8738 0.904948H11.5367Z" fill="white"/>
<path d="M11.6532 0.7431L12.1986 0.7431L11.7573 1.0667L11.6532 0.7431Z" fill="white"/>
<path d="M11.8416 0.804914L12.0102 1.32851L11.5689 1.00491L11.8416 0.804914Z" fill="white"/>
<path d="M2.29213 1.92283L1.85087 2.24644L2.01942 1.72284L2.29213 1.92283Z" fill="white"/>
<path d="M2.1037 1.9848L1.66244 1.6612L2.20787 1.6612L2.1037 1.9848Z" fill="white"/>
<path d="M1.98723 1.82292L2.15578 1.29932L2.32432 1.82292H1.98723Z" fill="white"/>
<path d="M2.1037 1.66107L2.64913 1.66107L2.20787 1.98467L2.1037 1.66107Z" fill="white"/>
<path d="M2.29214 1.72288L2.46069 2.24648L2.01942 1.92288L2.29214 1.72288Z" fill="white"/>
<path d="M4.41425 1.92283L3.97299 2.24644L4.14153 1.72284L4.41425 1.92283Z" fill="white"/>
<path d="M4.2258 1.9848L3.78454 1.6612L4.32997 1.6612L4.2258 1.9848Z" fill="white"/>
<path d="M4.10934 1.82292L4.27789 1.29932L4.44644 1.82292H4.10934Z" fill="white"/>
<path d="M4.2258 1.66107L4.77123 1.66107L4.32997 1.98467L4.2258 1.66107Z" fill="white"/>
<path d="M4.41424 1.72288L4.58279 2.24648L4.14152 1.92288L4.41424 1.72288Z" fill="white"/>
<path d="M6.53635 1.92283L6.09509 2.24644L6.26364 1.72284L6.53635 1.92283Z" fill="white"/>
<path d="M6.34792 1.9848L5.90665 1.6612L6.45208 1.6612L6.34792 1.9848Z" fill="white"/>
<path d="M6.23145 1.82292L6.39999 1.29932L6.56854 1.82292H6.23145Z" fill="white"/>
<path d="M6.34791 1.66107L6.89335 1.66107L6.45208 1.98467L6.34791 1.66107Z" fill="white"/>
<path d="M6.53636 1.72288L6.7049 2.24648L6.26364 1.92288L6.53636 1.72288Z" fill="white"/>
<path d="M8.65845 1.92283L8.21719 2.24644L8.38574 1.72284L8.65845 1.92283Z" fill="white"/>
<path d="M8.47002 1.9848L8.02875 1.6612L8.57419 1.6612L8.47002 1.9848Z" fill="white"/>
<path d="M8.35355 1.82292L8.52209 1.29932L8.69064 1.82292H8.35355Z" fill="white"/>
<path d="M8.47002 1.66107L9.01545 1.66107L8.57418 1.98467L8.47002 1.66107Z" fill="white"/>
<path d="M8.65846 1.72288L8.82701 2.24648L8.38574 1.92288L8.65846 1.72288Z" fill="white"/>
<path d="M10.7806 1.92283L10.3393 2.24644L10.5078 1.72284L10.7806 1.92283Z" fill="white"/>
<path d="M10.5921 1.9848L10.1509 1.6612L10.6963 1.6612L10.5921 1.9848Z" fill="white"/>
<path d="M10.4756 1.82292L10.6442 1.29932L10.8127 1.82292H10.4756Z" fill="white"/>
<path d="M10.5921 1.66107L11.1375 1.66107L10.6963 1.98467L10.5921 1.66107Z" fill="white"/>
<path d="M10.7806 1.72288L10.9491 2.24648L10.5078 1.92288L10.7806 1.72288Z" fill="white"/>
<path d="M1.2311 2.8408L0.789835 3.16441L0.958383 2.64081L1.2311 2.8408Z" fill="white"/>
<path d="M1.04265 2.90277L0.601385 2.57917L1.14682 2.57917L1.04265 2.90277Z" fill="white"/>
<path d="M0.926193 2.74089L1.09474 2.21729L1.26329 2.74089H0.926193Z" fill="white"/>
<path d="M1.04265 2.57904L1.58808 2.57904L1.14682 2.90264L1.04265 2.57904Z" fill="white"/>
<path d="M1.23109 2.64085L1.39964 3.16445L0.958374 2.84085L1.23109 2.64085Z" fill="white"/>
<path d="M3.35318 2.8408L2.91192 3.16441L3.08047 2.64081L3.35318 2.8408Z" fill="white"/>
<path d="M3.16475 2.90277L2.72349 2.57917L3.26892 2.57917L3.16475 2.90277Z" fill="white"/>
<path d="M3.04828 2.74089L3.21683 2.21729L3.38537 2.74089H3.04828Z" fill="white"/>
<path d="M3.16475 2.57904L3.71018 2.57904L3.26892 2.90264L3.16475 2.57904Z" fill="white"/>
<path d="M3.35319 2.64085L3.52174 3.16445L3.08047 2.84085L3.35319 2.64085Z" fill="white"/>
<path d="M5.4753 2.8408L5.03404 3.16441L5.20258 2.64081L5.4753 2.8408Z" fill="white"/>
<path d="M5.28687 2.90277L4.8456 2.57917L5.39103 2.57917L5.28687 2.90277Z" fill="white"/>
<path d="M5.17039 2.74089L5.33894 2.21729L5.50749 2.74089H5.17039Z" fill="white"/>
<path d="M5.28686 2.57904L5.8323 2.57904L5.39103 2.90264L5.28686 2.57904Z" fill="white"/>
<path d="M5.47531 2.64085L5.64385 3.16445L5.20259 2.84085L5.47531 2.64085Z" fill="white"/>
<path d="M7.59742 2.8408L7.15615 3.16441L7.3247 2.64081L7.59742 2.8408Z" fill="white"/>
<path d="M7.40897 2.90277L6.9677 2.57917L7.51314 2.57917L7.40897 2.90277Z" fill="white"/>
<path d="M7.29251 2.74089L7.46106 2.21729L7.62961 2.74089H7.29251Z" fill="white"/>
<path d="M7.40897 2.57904L7.9544 2.57904L7.51313 2.90264L7.40897 2.57904Z" fill="white"/>
<path d="M7.59741 2.64085L7.76596 3.16445L7.32469 2.84085L7.59741 2.64085Z" fill="white"/>
<path d="M9.7195 2.8408L9.27824 3.16441L9.44679 2.64081L9.7195 2.8408Z" fill="white"/>
<path d="M9.53107 2.90277L9.0898 2.57917L9.63524 2.57917L9.53107 2.90277Z" fill="white"/>
<path d="M9.4146 2.74089L9.58314 2.21729L9.75169 2.74089H9.4146Z" fill="white"/>
<path d="M9.53107 2.57904L10.0765 2.57904L9.63523 2.90264L9.53107 2.57904Z" fill="white"/>
<path d="M9.71951 2.64085L9.88806 3.16445L9.44679 2.84085L9.71951 2.64085Z" fill="white"/>
<path d="M11.8416 2.8408L11.4004 3.16441L11.5689 2.64081L11.8416 2.8408Z" fill="white"/>
<path d="M11.6532 2.90277L11.2119 2.57917L11.7573 2.57917L11.6532 2.90277Z" fill="white"/>
<path d="M11.5367 2.74089L11.7053 2.21729L11.8738 2.74089H11.5367Z" fill="white"/>
<path d="M11.6532 2.57904L12.1986 2.57904L11.7573 2.90264L11.6532 2.57904Z" fill="white"/>
<path d="M11.8416 2.64085L12.0102 3.16445L11.5689 2.84085L11.8416 2.64085Z" fill="white"/>
<path d="M2.29213 3.75877L1.85087 4.08237L2.01942 3.55877L2.29213 3.75877Z" fill="white"/>
<path d="M2.1037 3.82074L1.66244 3.49713L2.20787 3.49713L2.1037 3.82074Z" fill="white"/>
<path d="M1.98723 3.65885L2.15578 3.13525L2.32432 3.65885H1.98723Z" fill="white"/>
<path d="M2.1037 3.49701L2.64913 3.49701L2.20787 3.82061L2.1037 3.49701Z" fill="white"/>
<path d="M2.29214 3.55882L2.46069 4.08242L2.01942 3.75882L2.29214 3.55882Z" fill="white"/>
<path d="M4.41425 3.75877L3.97299 4.08237L4.14153 3.55877L4.41425 3.75877Z" fill="white"/>
<path d="M4.2258 3.82074L3.78454 3.49713L4.32997 3.49713L4.2258 3.82074Z" fill="white"/>
<path d="M4.10934 3.65885L4.27789 3.13525L4.44644 3.65885H4.10934Z" fill="white"/>
<path d="M4.2258 3.49701L4.77123 3.49701L4.32997 3.82061L4.2258 3.49701Z" fill="white"/>
<path d="M4.41424 3.55882L4.58279 4.08242L4.14152 3.75882L4.41424 3.55882Z" fill="white"/>
<path d="M6.53635 3.75877L6.09509 4.08237L6.26364 3.55877L6.53635 3.75877Z" fill="white"/>
<path d="M6.34792 3.82074L5.90665 3.49713L6.45208 3.49713L6.34792 3.82074Z" fill="white"/>
<path d="M6.23145 3.65885L6.39999 3.13525L6.56854 3.65885H6.23145Z" fill="white"/>
<path d="M6.34791 3.49701L6.89335 3.49701L6.45208 3.82061L6.34791 3.49701Z" fill="white"/>
<path d="M6.53636 3.55882L6.7049 4.08242L6.26364 3.75882L6.53636 3.55882Z" fill="white"/>
<path d="M8.65845 3.75877L8.21719 4.08237L8.38574 3.55877L8.65845 3.75877Z" fill="white"/>
<path d="M8.47002 3.82074L8.02875 3.49713L8.57419 3.49713L8.47002 3.82074Z" fill="white"/>
<path d="M8.35355 3.65885L8.52209 3.13525L8.69064 3.65885H8.35355Z" fill="white"/>
<path d="M8.47002 3.49701L9.01545 3.49701L8.57418 3.82061L8.47002 3.49701Z" fill="white"/>
<path d="M8.65846 3.55882L8.82701 4.08242L8.38574 3.75882L8.65846 3.55882Z" fill="white"/>
<path d="M10.7806 3.75877L10.3393 4.08237L10.5078 3.55877L10.7806 3.75877Z" fill="white"/>
<path d="M10.5921 3.82074L10.1509 3.49713L10.6963 3.49713L10.5921 3.82074Z" fill="white"/>
<path d="M10.4756 3.65885L10.6442 3.13525L10.8127 3.65885H10.4756Z" fill="white"/>
<path d="M10.5921 3.49701L11.1375 3.49701L10.6963 3.82061L10.5921 3.49701Z" fill="white"/>
<path d="M10.7806 3.55882L10.9491 4.08242L10.5078 3.75882L10.7806 3.55882Z" fill="white"/>
<path d="M1.2311 4.67698L0.789835 5.00059L0.958383 4.47699L1.2311 4.67698Z" fill="white"/>
<path d="M1.04265 4.73895L0.601385 4.41535L1.14682 4.41535L1.04265 4.73895Z" fill="white"/>
<path d="M0.926193 4.57707L1.09474 4.05347L1.26329 4.57707H0.926193Z" fill="white"/>
<path d="M1.04265 4.41522L1.58808 4.41522L1.14682 4.73882L1.04265 4.41522Z" fill="white"/>
<path d="M1.23109 4.47703L1.39964 5.00063L0.958374 4.67703L1.23109 4.47703Z" fill="white"/>
<path d="M3.35318 4.67698L2.91192 5.00059L3.08047 4.47699L3.35318 4.67698Z" fill="white"/>
<path d="M3.16475 4.73895L2.72349 4.41535L3.26892 4.41535L3.16475 4.73895Z" fill="white"/>
<path d="M3.04828 4.57707L3.21683 4.05347L3.38537 4.57707H3.04828Z" fill="white"/>
<path d="M3.16475 4.41522L3.71018 4.41522L3.26892 4.73882L3.16475 4.41522Z" fill="white"/>
<path d="M3.35319 4.47703L3.52174 5.00063L3.08047 4.67703L3.35319 4.47703Z" fill="white"/>
<path d="M5.4753 4.67698L5.03404 5.00059L5.20258 4.47699L5.4753 4.67698Z" fill="white"/>
<path d="M5.28687 4.73895L4.8456 4.41535L5.39103 4.41535L5.28687 4.73895Z" fill="white"/>
<path d="M5.17039 4.57707L5.33894 4.05347L5.50749 4.57707H5.17039Z" fill="white"/>
<path d="M5.28686 4.41522L5.8323 4.41522L5.39103 4.73882L5.28686 4.41522Z" fill="white"/>
<path d="M5.47531 4.47703L5.64385 5.00063L5.20259 4.67703L5.47531 4.47703Z" fill="white"/>
<path d="M7.59742 4.67698L7.15615 5.00059L7.3247 4.47699L7.59742 4.67698Z" fill="white"/>
<path d="M7.40897 4.73895L6.9677 4.41535L7.51314 4.41535L7.40897 4.73895Z" fill="white"/>
<path d="M7.29251 4.57707L7.46106 4.05347L7.62961 4.57707H7.29251Z" fill="white"/>
<path d="M7.40897 4.41522L7.9544 4.41522L7.51313 4.73882L7.40897 4.41522Z" fill="white"/>
<path d="M7.59741 4.47703L7.76596 5.00063L7.32469 4.67703L7.59741 4.47703Z" fill="white"/>
<path d="M9.7195 4.67698L9.27824 5.00059L9.44679 4.47699L9.7195 4.67698Z" fill="white"/>
<path d="M9.53107 4.73895L9.0898 4.41535L9.63524 4.41535L9.53107 4.73895Z" fill="white"/>
<path d="M9.4146 4.57707L9.58314 4.05347L9.75169 4.57707H9.4146Z" fill="white"/>
<path d="M9.53107 4.41522L10.0765 4.41522L9.63523 4.73882L9.53107 4.41522Z" fill="white"/>
<path d="M9.71951 4.47703L9.88806 5.00063L9.44679 4.67703L9.71951 4.47703Z" fill="white"/>
<path d="M11.8416 4.67698L11.4004 5.00059L11.5689 4.47699L11.8416 4.67698Z" fill="white"/>
<path d="M11.6532 4.73895L11.2119 4.41535L11.7573 4.41535L11.6532 4.73895Z" fill="white"/>
<path d="M11.5367 4.57707L11.7053 4.05347L11.8738 4.57707H11.5367Z" fill="white"/>
<path d="M11.6532 4.41522L12.1986 4.41522L11.7573 4.73882L11.6532 4.41522Z" fill="white"/>
<path d="M11.8416 4.47703L12.0102 5.00063L11.5689 4.67703L11.8416 4.47703Z" fill="white"/>
<path d="M2.29213 5.59495L1.85087 5.91856L2.01942 5.39496L2.29213 5.59495Z" fill="white"/>
<path d="M2.1037 5.65692L1.66244 5.33332L2.20787 5.33332L2.1037 5.65692Z" fill="white"/>
<path d="M1.98723 5.49504L2.15578 4.97144L2.32432 5.49504H1.98723Z" fill="white"/>
<path d="M2.1037 5.33319L2.64913 5.33319L2.20787 5.65679L2.1037 5.33319Z" fill="white"/>
<path d="M2.29214 5.395L2.46069 5.9186L2.01942 5.595L2.29214 5.395Z" fill="white"/>
<path d="M4.41424 5.59495L3.97297 5.91856L4.14152 5.39496L4.41424 5.59495Z" fill="white"/>
<path d="M4.2258 5.65692L3.78454 5.33332L4.32997 5.33332L4.2258 5.65692Z" fill="white"/>
<path d="M4.10933 5.49504L4.27788 4.97144L4.44642 5.49504H4.10933Z" fill="white"/>
<path d="M4.2258 5.33319L4.77123 5.33319L4.32997 5.65679L4.2258 5.33319Z" fill="white"/>
<path d="M4.41424 5.395L4.58279 5.9186L4.14152 5.595L4.41424 5.395Z" fill="white"/>
<path d="M6.53635 5.59495L6.09509 5.91856L6.26364 5.39496L6.53635 5.59495Z" fill="white"/>
<path d="M6.34792 5.65692L5.90665 5.33332L6.45208 5.33332L6.34792 5.65692Z" fill="white"/>
<path d="M6.23145 5.49504L6.39999 4.97144L6.56854 5.49504H6.23145Z" fill="white"/>
<path d="M6.34791 5.33319L6.89335 5.33319L6.45208 5.65679L6.34791 5.33319Z" fill="white"/>
<path d="M6.53636 5.395L6.7049 5.9186L6.26364 5.595L6.53636 5.395Z" fill="white"/>
<path d="M8.65847 5.59495L8.2172 5.91856L8.38575 5.39496L8.65847 5.59495Z" fill="white"/>
<path d="M8.47002 5.65692L8.02875 5.33332L8.57419 5.33332L8.47002 5.65692Z" fill="white"/>
<path d="M8.35356 5.49504L8.52211 4.97144L8.69066 5.49504H8.35356Z" fill="white"/>
<path d="M8.47002 5.33319L9.01545 5.33319L8.57418 5.65679L8.47002 5.33319Z" fill="white"/>
<path d="M8.65846 5.395L8.82701 5.9186L8.38574 5.595L8.65846 5.395Z" fill="white"/>
<path d="M10.7806 5.59495L10.3393 5.91856L10.5078 5.39496L10.7806 5.59495Z" fill="white"/>
<path d="M10.5921 5.65692L10.1509 5.33332L10.6963 5.33332L10.5921 5.65692Z" fill="white"/>
<path d="M10.4756 5.49504L10.6442 4.97144L10.8127 5.49504H10.4756Z" fill="white"/>
<path d="M10.5921 5.33319L11.1375 5.33319L10.6963 5.65679L10.5921 5.33319Z" fill="white"/>
<path d="M10.7806 5.395L10.9491 5.9186L10.5078 5.595L10.7806 5.395Z" fill="white"/>
<path d="M1.2311 6.51292L0.789835 6.83652L0.958383 6.31292L1.2311 6.51292Z" fill="white"/>
<path d="M1.04265 6.57489L0.601385 6.25128L1.14682 6.25128L1.04265 6.57489Z" fill="white"/>
<path d="M0.926193 6.413L1.09474 5.8894L1.26329 6.413H0.926193Z" fill="white"/>
<path d="M1.04265 6.25116L1.58808 6.25116L1.14682 6.57476L1.04265 6.25116Z" fill="white"/>
<path d="M1.23109 6.31297L1.39964 6.83657L0.958374 6.51297L1.23109 6.31297Z" fill="white"/>
<path d="M3.35318 6.51292L2.91192 6.83652L3.08047 6.31292L3.35318 6.51292Z" fill="white"/>
<path d="M3.16475 6.57489L2.72349 6.25128L3.26892 6.25128L3.16475 6.57489Z" fill="white"/>
<path d="M3.04828 6.413L3.21683 5.8894L3.38537 6.413H3.04828Z" fill="white"/>
<path d="M3.16475 6.25116L3.71018 6.25116L3.26892 6.57476L3.16475 6.25116Z" fill="white"/>
<path d="M3.35319 6.31297L3.52174 6.83657L3.08047 6.51297L3.35319 6.31297Z" fill="white"/>
<path d="M5.4753 6.51292L5.03404 6.83652L5.20258 6.31292L5.4753 6.51292Z" fill="white"/>
<path d="M5.28687 6.57489L4.8456 6.25128L5.39103 6.25128L5.28687 6.57489Z" fill="white"/>
<path d="M5.17039 6.413L5.33894 5.8894L5.50749 6.413H5.17039Z" fill="white"/>
<path d="M5.28686 6.25116L5.8323 6.25116L5.39103 6.57476L5.28686 6.25116Z" fill="white"/>
<path d="M5.47531 6.31297L5.64385 6.83657L5.20259 6.51297L5.47531 6.31297Z" fill="white"/>
<path d="M7.59742 6.51292L7.15615 6.83652L7.3247 6.31292L7.59742 6.51292Z" fill="white"/>
<path d="M7.40897 6.57489L6.9677 6.25128L7.51314 6.25128L7.40897 6.57489Z" fill="white"/>
<path d="M7.29251 6.413L7.46106 5.8894L7.62961 6.413H7.29251Z" fill="white"/>
<path d="M7.40897 6.25116L7.9544 6.25116L7.51313 6.57476L7.40897 6.25116Z" fill="white"/>
<path d="M7.59741 6.31297L7.76596 6.83657L7.32469 6.51297L7.59741 6.31297Z" fill="white"/>
<path d="M9.7195 6.51292L9.27824 6.83652L9.44679 6.31292L9.7195 6.51292Z" fill="white"/>
<path d="M9.53107 6.57489L9.0898 6.25128L9.63524 6.25128L9.53107 6.57489Z" fill="white"/>
<path d="M9.4146 6.413L9.58314 5.8894L9.75169 6.413H9.4146Z" fill="white"/>
<path d="M9.53107 6.25116L10.0765 6.25116L9.63523 6.57476L9.53107 6.25116Z" fill="white"/>
<path d="M9.71951 6.31297L9.88806 6.83657L9.44679 6.51297L9.71951 6.31297Z" fill="white"/>
<path d="M11.8416 6.51292L11.4004 6.83652L11.5689 6.31292L11.8416 6.51292Z" fill="white"/>
<path d="M11.6532 6.57489L11.2119 6.25128L11.7573 6.25128L11.6532 6.57489Z" fill="white"/>
<path d="M11.5367 6.413L11.7053 5.8894L11.8738 6.413H11.5367Z" fill="white"/>
<path d="M11.6532 6.25116L12.1986 6.25116L11.7573 6.57476L11.6532 6.25116Z" fill="white"/>
<path d="M11.8416 6.31297L12.0102 6.83657L11.5689 6.51297L11.8416 6.31297Z" fill="white"/>
<path d="M2.29213 7.43089L1.85087 7.75449L2.01942 7.23089L2.29213 7.43089Z" fill="white"/>
<path d="M2.1037 7.49286L1.66244 7.16925L2.20787 7.16925L2.1037 7.49286Z" fill="white"/>
<path d="M1.98723 7.33097L2.15578 6.80737L2.32432 7.33097H1.98723Z" fill="white"/>
<path d="M2.1037 7.16913L2.64913 7.16913L2.20787 7.49273L2.1037 7.16913Z" fill="white"/>
<path d="M2.29214 7.23094L2.46069 7.75454L2.01942 7.43094L2.29214 7.23094Z" fill="white"/>
<path d="M4.41424 7.43089L3.97297 7.75449L4.14152 7.23089L4.41424 7.43089Z" fill="white"/>
<path d="M4.2258 7.49286L3.78454 7.16925L4.32997 7.16925L4.2258 7.49286Z" fill="white"/>
<path d="M4.10933 7.33097L4.27788 6.80737L4.44642 7.33097H4.10933Z" fill="white"/>
<path d="M4.2258 7.16913L4.77123 7.16913L4.32997 7.49273L4.2258 7.16913Z" fill="white"/>
<path d="M4.41424 7.23094L4.58279 7.75454L4.14152 7.43094L4.41424 7.23094Z" fill="white"/>
<path d="M6.53635 7.43089L6.09509 7.75449L6.26364 7.23089L6.53635 7.43089Z" fill="white"/>
<path d="M6.34792 7.49286L5.90665 7.16925L6.45208 7.16925L6.34792 7.49286Z" fill="white"/>
<path d="M6.23145 7.33097L6.39999 6.80737L6.56854 7.33097H6.23145Z" fill="white"/>
<path d="M6.34791 7.16913L6.89335 7.16913L6.45208 7.49273L6.34791 7.16913Z" fill="white"/>
<path d="M6.53636 7.23094L6.7049 7.75454L6.26364 7.43094L6.53636 7.23094Z" fill="white"/>
<path d="M8.65847 7.43089L8.2172 7.75449L8.38575 7.23089L8.65847 7.43089Z" fill="white"/>
<path d="M8.47002 7.49286L8.02875 7.16925L8.57419 7.16925L8.47002 7.49286Z" fill="white"/>
<path d="M8.35356 7.33097L8.52211 6.80737L8.69066 7.33097H8.35356Z" fill="white"/>
<path d="M8.47002 7.16913L9.01545 7.16913L8.57418 7.49273L8.47002 7.16913Z" fill="white"/>
<path d="M8.65846 7.23094L8.82701 7.75454L8.38574 7.43094L8.65846 7.23094Z" fill="white"/>
<path d="M10.7806 7.43089L10.3393 7.75449L10.5078 7.23089L10.7806 7.43089Z" fill="white"/>
<path d="M10.5921 7.49286L10.1509 7.16925L10.6963 7.16925L10.5921 7.49286Z" fill="white"/>
<path d="M10.4756 7.33097L10.6442 6.80737L10.8127 7.33097H10.4756Z" fill="white"/>
<path d="M10.5921 7.16913L11.1375 7.16913L10.6963 7.49273L10.5921 7.16913Z" fill="white"/>
<path d="M10.7806 7.23094L10.9491 7.75454L10.5078 7.43094L10.7806 7.23094Z" fill="white"/>
<path d="M1.2311 8.34886L0.789835 8.67246L0.958383 8.14886L1.2311 8.34886Z" fill="white"/>
<path d="M1.04265 8.41082L0.601385 8.08722L1.14682 8.08722L1.04265 8.41082Z" fill="white"/>
<path d="M0.926193 8.24894L1.09474 7.72534L1.26329 8.24894H0.926193Z" fill="white"/>
<path d="M1.04265 8.08709L1.58808 8.08709L1.14682 8.4107L1.04265 8.08709Z" fill="white"/>
<path d="M1.23109 8.14891L1.39964 8.67251L0.958374 8.34891L1.23109 8.14891Z" fill="white"/>
<path d="M3.35318 8.34886L2.91192 8.67246L3.08047 8.14886L3.35318 8.34886Z" fill="white"/>
<path d="M3.16475 8.41082L2.72349 8.08722L3.26892 8.08722L3.16475 8.41082Z" fill="white"/>
<path d="M3.04828 8.24894L3.21683 7.72534L3.38537 8.24894H3.04828Z" fill="white"/>
<path d="M3.16475 8.08709L3.71018 8.08709L3.26892 8.4107L3.16475 8.08709Z" fill="white"/>
<path d="M3.35319 8.14891L3.52174 8.67251L3.08047 8.34891L3.35319 8.14891Z" fill="white"/>
<path d="M5.4753 8.34886L5.03404 8.67246L5.20258 8.14886L5.4753 8.34886Z" fill="white"/>
<path d="M5.28687 8.41082L4.8456 8.08722L5.39103 8.08722L5.28687 8.41082Z" fill="white"/>
<path d="M5.17039 8.24894L5.33894 7.72534L5.50749 8.24894H5.17039Z" fill="white"/>
<path d="M5.28686 8.08709L5.8323 8.08709L5.39103 8.4107L5.28686 8.08709Z" fill="white"/>
<path d="M5.47531 8.14891L5.64385 8.67251L5.20259 8.34891L5.47531 8.14891Z" fill="white"/>
<path d="M7.59742 8.34886L7.15615 8.67246L7.3247 8.14886L7.59742 8.34886Z" fill="white"/>
<path d="M7.40897 8.41082L6.9677 8.08722L7.51314 8.08722L7.40897 8.41082Z" fill="white"/>
<path d="M7.29251 8.24894L7.46106 7.72534L7.62961 8.24894H7.29251Z" fill="white"/>
<path d="M7.40897 8.08709L7.9544 8.08709L7.51313 8.4107L7.40897 8.08709Z" fill="white"/>
<path d="M7.59741 8.14891L7.76596 8.67251L7.32469 8.34891L7.59741 8.14891Z" fill="white"/>
<path d="M9.7195 8.34886L9.27824 8.67246L9.44679 8.14886L9.7195 8.34886Z" fill="white"/>
<path d="M9.53107 8.41082L9.0898 8.08722L9.63524 8.08722L9.53107 8.41082Z" fill="white"/>
<path d="M9.4146 8.24894L9.58314 7.72534L9.75169 8.24894H9.4146Z" fill="white"/>
<path d="M9.53107 8.08709L10.0765 8.08709L9.63523 8.4107L9.53107 8.08709Z" fill="white"/>
<path d="M9.71951 8.14891L9.88806 8.67251L9.44679 8.34891L9.71951 8.14891Z" fill="white"/>
<path d="M11.8416 8.34886L11.4004 8.67246L11.5689 8.14886L11.8416 8.34886Z" fill="white"/>
<path d="M11.6532 8.41082L11.2119 8.08722L11.7573 8.08722L11.6532 8.41082Z" fill="white"/>
<path d="M11.5367 8.24894L11.7053 7.72534L11.8738 8.24894H11.5367Z" fill="white"/>
<path d="M11.6532 8.08709L12.1986 8.08709L11.7573 8.4107L11.6532 8.08709Z" fill="white"/>
<path d="M11.8416 8.14891L12.0102 8.67251L11.5689 8.34891L11.8416 8.14891Z" fill="white"/>
</g>
<defs>
<clipPath id="clip0_585_293">
<rect width="32" height="17" fill="white"/>
</clipPath>
</defs>
</svg>