<svg xmlns="http://www.w3.org/2000/svg" width="38" height="38" viewBox="0 0 38 38" fill="none">
<g clip-path="url(#clip0_689_454)">
<path d="M19 0.76001C8.92621 0.76001 0.76001 8.92621 0.76001 19C0.76001 29.0738 8.92621 37.24 19 37.24C29.0738 37.24 37.24 29.0738 37.24 19C37.24 8.92621 29.0738 0.76001 19 0.76001ZM26.0148 21.3389C26.0148 21.3389 27.6279 22.9311 28.025 23.6702C28.0364 23.6854 28.0421 23.7006 28.0459 23.7082C28.2074 23.9799 28.2454 24.1908 28.1656 24.3485C28.0326 24.6107 27.5766 24.7399 27.4208 24.7513H24.5708C24.3732 24.7513 23.959 24.7 23.4574 24.3542C23.0717 24.0844 22.6917 23.6417 22.3212 23.2104C21.7683 22.5682 21.2895 22.0134 20.8069 22.0134C20.7456 22.0133 20.6847 22.0229 20.6264 22.0419C20.2616 22.1597 19.7942 22.6803 19.7942 24.0673C19.7942 24.5005 19.4522 24.7494 19.2109 24.7494H17.9056C17.461 24.7494 15.1449 24.5936 13.0929 22.4295C10.5811 19.779 8.32011 14.4628 8.30111 14.4134C8.15861 14.0695 8.45311 13.8852 8.77421 13.8852H11.6527C12.0365 13.8852 12.1619 14.1189 12.2493 14.326C12.3519 14.5673 12.7281 15.5268 13.3456 16.606C14.3469 18.3654 14.9606 19.0798 15.4527 19.0798C15.545 19.0787 15.6356 19.0553 15.7168 19.0114C16.359 18.6542 16.2393 16.3647 16.2108 15.8897C16.2108 15.8004 16.2089 14.8656 15.8802 14.4172C15.6446 14.0923 15.2437 13.9688 15.0005 13.9232C15.0989 13.7874 15.2286 13.6772 15.3786 13.6021C15.8194 13.3817 16.6136 13.3494 17.4021 13.3494H17.841C18.696 13.3608 18.9164 13.4159 19.2261 13.4938C19.8531 13.6439 19.8664 14.0486 19.8113 15.4337C19.7942 15.827 19.7771 16.2716 19.7771 16.796C19.7771 16.91 19.7714 17.0316 19.7714 17.1608C19.7524 17.8657 19.7296 18.6656 20.2274 18.9943C20.2923 19.035 20.3674 19.0567 20.444 19.057C20.6169 19.057 21.1375 19.057 22.5473 16.6383C22.9821 15.8598 23.3599 15.0508 23.6778 14.2177C23.7063 14.1683 23.7899 14.0163 23.8887 13.9574C23.9616 13.9202 24.0425 13.9013 24.1243 13.9023H27.5082C27.8768 13.9023 28.1295 13.9574 28.177 14.0999C28.2606 14.326 28.1618 15.0157 26.6171 17.1076L25.9274 18.0177C24.5271 19.8531 24.5271 19.9462 26.0148 21.3389Z" fill="#3F4041"/>
</g>
<defs>
<clipPath id="clip0_689_454">
<rect width="38" height="38" fill="white"/>
</clipPath>
</defs>
</svg>