<svg width="20" height="20" viewBox="0 0 20 20" fill="none" xmlns="http://www.w3.org/2000/svg">
<path d="M1.25 5.3125C1.25 4.45 1.95 3.75 2.8125 3.75H14.6875C15.55 3.75 16.25 4.45 16.25 5.3125V12.1875C16.25 13.05 15.55 13.75 14.6875 13.75H2.8125C1.95 13.75 1.25 13.05 1.25 12.1875V5.3125ZM5 5.625V5H3.75V5.625C3.75 5.79076 3.68415 5.94973 3.56694 6.06694C3.44973 6.18415 3.29076 6.25 3.125 6.25H2.5V7.5H3.125C3.62228 7.5 4.09919 7.30246 4.45083 6.95083C4.80246 6.59919 5 6.12228 5 5.625ZM11.25 8.75C11.25 8.08696 10.9866 7.45107 10.5178 6.98223C10.0489 6.51339 9.41304 6.25 8.75 6.25C8.08696 6.25 7.45107 6.51339 6.98223 6.98223C6.51339 7.45107 6.25 8.08696 6.25 8.75C6.25 9.41304 6.51339 10.0489 6.98223 10.5178C7.45107 10.9866 8.08696 11.25 8.75 11.25C9.41304 11.25 10.0489 10.9866 10.5178 10.5178C10.9866 10.0489 11.25 9.41304 11.25 8.75ZM13.75 5H12.5V5.625C12.5 6.12228 12.6975 6.59919 13.0492 6.95083C13.4008 7.30246 13.8777 7.5 14.375 7.5H15V6.25H14.375C14.2092 6.25 14.0503 6.18415 13.9331 6.06694C13.8158 5.94973 13.75 5.79076 13.75 5.625V5ZM5 11.875C5 11.3777 4.80246 10.9008 4.45083 10.5492C4.09919 10.1975 3.62228 10 3.125 10H2.5V11.25H3.125C3.29076 11.25 3.44973 11.3158 3.56694 11.4331C3.68415 11.5503 3.75 11.7092 3.75 11.875V12.5H5V11.875ZM13.75 12.5V11.875C13.75 11.7092 13.8158 11.5503 13.9331 11.4331C14.0503 11.3158 14.2092 11.25 14.375 11.25H15V10H14.375C13.8777 10 13.4008 10.1975 13.0492 10.5492C12.6975 10.9008 12.5 11.3777 12.5 11.875V12.5H13.75ZM5.625 16.25C5.22902 16.2502 4.84317 16.1249 4.52273 15.8923C4.2023 15.6597 3.96374 15.3316 3.84125 14.955C4.015 14.985 4.1925 15 4.375 15H14.6875C15.4334 15 16.1488 14.7037 16.6762 14.1762C17.2037 13.6488 17.5 12.9334 17.5 12.1875V6.35625C17.8657 6.48555 18.1823 6.7251 18.4062 7.04189C18.6301 7.35867 18.7502 7.73709 18.75 8.125V12.1875C18.75 12.721 18.6449 13.2493 18.4408 13.7422C18.2366 14.235 17.9374 14.6829 17.5601 15.0601C17.1829 15.4374 16.735 15.7366 16.2422 15.9408C15.7493 16.1449 15.221 16.25 14.6875 16.25H5.625Z" fill="white"/>
</svg>
