<svg xmlns="http://www.w3.org/2000/svg" width="21" height="21" viewBox="0 0 21 21" fill="none">
<path d="M17.9375 11.4792C17.9792 11.1667 18 10.8438 18 10.5C18 10.1667 17.9792 9.83334 17.9271 9.52084L20.0417 7.875C20.1328 7.7999 20.1951 7.69552 20.2179 7.57966C20.2407 7.46379 20.2226 7.34361 20.1667 7.23959L18.1667 3.78125C18.1078 3.67663 18.0138 3.59623 17.9013 3.55428C17.7888 3.51234 17.6651 3.51156 17.5521 3.55209L15.0625 4.55209C14.5417 4.15625 13.9896 3.82292 13.375 3.57292L13 0.927086C12.9816 0.807847 12.921 0.699177 12.8292 0.620812C12.7375 0.542446 12.6207 0.499582 12.5 0.500003H8.50002C8.25002 0.500003 8.05211 0.677086 8.01044 0.927086L7.63544 3.57292C7.02086 3.82292 6.45836 4.16667 5.94794 4.55209L3.45836 3.55209C3.22919 3.46875 2.96877 3.55209 2.84377 3.78125L0.85419 7.23959C0.72919 7.45834 0.770857 7.72917 0.97919 7.875L3.09377 9.52084C3.04169 9.83334 3.00002 10.1771 3.00002 10.5C3.00002 10.8229 3.02086 11.1667 3.07294 11.4792L0.958357 13.125C0.867236 13.2001 0.804975 13.3045 0.782182 13.4204C0.75939 13.5362 0.777475 13.6564 0.833357 13.7604L2.83336 17.2188C2.95836 17.4479 3.21877 17.5208 3.44794 17.4479L5.93752 16.4479C6.45836 16.8438 7.01044 17.1771 7.62502 17.4271L8.00002 20.0729C8.05211 20.3229 8.25002 20.5 8.50002 20.5H12.5C12.75 20.5 12.9584 20.3229 12.9896 20.0729L13.3646 17.4271C13.9792 17.1771 14.5417 16.8438 15.0521 16.4479L17.5417 17.4479C17.7709 17.5313 18.0313 17.4479 18.1563 17.2188L20.1563 13.7604C20.2813 13.5313 20.2292 13.2708 20.0313 13.125L17.9375 11.4792ZM10.5 14.25C8.43752 14.25 6.75002 12.5625 6.75002 10.5C6.75002 8.4375 8.43752 6.75 10.5 6.75C12.5625 6.75 14.25 8.4375 14.25 10.5C14.25 12.5625 12.5625 14.25 10.5 14.25Z" fill="#3F4041"/>
</svg>