<svg width="55" height="55" viewBox="0 0 55 55" fill="none" xmlns="http://www.w3.org/2000/svg">
<rect width="55" height="55" rx="15" fill="url(#paint0_linear_689_12)"/>
<g clip-path="url(#clip0_689_12)">
<g filter="url(#filter0_d_689_12)">
<path d="M27.4845 17.1586C19.6852 17.1586 13.3616 21.363 13.3616 26.5492C13.3616 29.5161 15.4375 32.1592 18.6694 33.8793C18.2095 35.4056 17.2917 37.0937 15.5179 38.588C15.5179 38.588 19.6594 38.3137 22.584 35.3468C22.7521 35.388 22.9264 35.419 23.0966 35.4561C22.9308 34.9773 22.8448 34.4746 22.8419 33.968C22.8419 30.469 26.7359 27.7289 31.7106 27.7289C35.2818 27.7289 38.2879 29.1479 39.7028 31.2414C40.9073 29.8595 41.6075 28.258 41.6075 26.5461C41.6075 21.361 35.2839 17.1566 27.4845 17.1566V17.1586ZM39.545 33.9701C39.545 31.0929 36.0388 28.7592 31.7075 28.7592C27.3814 28.7592 23.8721 31.0939 23.8721 33.9711C23.8721 36.8483 27.3814 39.182 31.7096 39.182C32.6666 39.182 33.5792 39.0624 34.4279 38.852C36.0501 40.4999 38.3467 40.6515 38.3467 40.6515C37.3639 39.8224 36.8555 38.885 36.5998 38.0383C38.3921 37.0844 39.545 35.617 39.545 33.9701Z" fill="white"/>
</g>
</g>
<defs>
<filter id="filter0_d_689_12" x="9.36157" y="15.1566" width="36.2458" height="31.495" filterUnits="userSpaceOnUse" color-interpolation-filters="sRGB">
<feFlood flood-opacity="0" result="BackgroundImageFix"/>
<feColorMatrix in="SourceAlpha" type="matrix" values="0 0 0 0 0 0 0 0 0 0 0 0 0 0 0 0 0 0 127 0" result="hardAlpha"/>
<feOffset dy="2"/>
<feGaussianBlur stdDeviation="2"/>
<feComposite in2="hardAlpha" operator="out"/>
<feColorMatrix type="matrix" values="0 0 0 0 0 0 0 0 0 0 0 0 0 0 0 0 0 0 0.25 0"/>
<feBlend mode="normal" in2="BackgroundImageFix" result="effect1_dropShadow_689_12"/>
<feBlend mode="normal" in="SourceGraphic" in2="effect1_dropShadow_689_12" result="shape"/>
</filter>
<linearGradient id="paint0_linear_689_12" x1="24.9615" y1="55" x2="25.8077" y2="-3.80769" gradientUnits="userSpaceOnUse">
<stop stop-color="#2E70F1"/>
<stop offset="0.9999" stop-color="#003E84"/>
<stop offset="1" stop-color="white" stop-opacity="0"/>
</linearGradient>
<clipPath id="clip0_689_12">
<rect width="33" height="33" fill="white" transform="translate(11 11)"/>
</clipPath>
</defs>
</svg>
