<svg width="55" height="55" viewBox="0 0 55 55" fill="none" xmlns="http://www.w3.org/2000/svg">
<rect width="55" height="55" rx="15" fill="url(#paint0_linear_689_16)"/>
<g filter="url(#filter0_d_689_16)">
<path fill-rule="evenodd" clip-rule="evenodd" d="M26.9721 16.2153C26.0764 16.1991 25.1862 16.3598 24.3525 16.688C23.5189 17.0162 22.7582 17.5056 22.1139 18.1282C21.4696 18.7507 20.9544 19.4942 20.5978 20.3161C20.2412 21.138 20.0502 22.0221 20.0357 22.9179V32.2861C20.0357 32.8544 19.8099 33.3994 19.4081 33.8013C19.0062 34.2031 18.4612 34.4289 17.8929 34.4289H15.2143C14.3618 34.4289 13.5442 34.0903 12.9414 33.4875C12.3386 32.8847 12 32.0672 12 31.2147V26.9292C12 26.0767 12.3386 25.2592 12.9414 24.6564C13.5442 24.0537 14.3618 23.715 15.2143 23.715H16.8214V22.8793C16.841 21.5624 17.1198 20.2622 17.6419 19.053C18.164 17.8437 18.9193 16.7492 19.8645 15.8319C20.8097 14.9146 21.9263 14.1925 23.1506 13.7068C24.375 13.2211 25.683 12.9813 27 13.0011C28.317 12.9813 29.625 13.2211 30.8494 13.7068C32.0737 14.1925 33.1903 14.9146 34.1355 15.8319C35.0807 16.7492 35.836 17.8437 36.3581 19.053C36.8802 20.2622 37.159 21.5624 37.1786 22.8793V23.715H38.7857C39.6382 23.715 40.4558 24.0537 41.0586 24.6564C41.6614 25.2592 42 26.0767 42 26.9292V31.2147C42 32.0672 41.6614 32.8847 41.0586 33.4875C40.4558 34.0903 39.6382 34.4289 38.7857 34.4289H37.1786V35.5003C37.1788 36.9483 36.6459 38.3457 35.6816 39.4258C34.7172 40.506 33.3888 41.1933 31.95 41.3565C31.6706 41.8554 31.2631 42.2706 30.7697 42.5595C30.2762 42.8484 29.7147 43.0005 29.1429 43H25.9286C25.0761 43 24.2585 42.6614 23.6557 42.0586C23.0529 41.4558 22.7143 40.6383 22.7143 39.7858C22.7143 38.9334 23.0529 38.1159 23.6557 37.5131C24.2585 36.9103 25.0761 36.5717 25.9286 36.5717H29.1429C30.3043 36.5717 31.3221 37.1866 31.8857 38.1102C32.4763 37.9744 33.0035 37.6424 33.381 37.1684C33.7586 36.6943 33.9642 36.1063 33.9643 35.5003V22.9158C33.9496 22.0154 33.7566 21.1268 33.3963 20.3015C33.0361 19.4761 32.5159 18.7304 31.8657 18.1073C31.2155 17.4842 30.4483 16.9962 29.6083 16.6715C28.7684 16.3467 27.8724 16.1917 26.9721 16.2153Z" fill="white"/>
</g>
<defs>
<filter id="filter0_d_689_16" x="8" y="11" width="38" height="38" filterUnits="userSpaceOnUse" color-interpolation-filters="sRGB">
<feFlood flood-opacity="0" result="BackgroundImageFix"/>
<feColorMatrix in="SourceAlpha" type="matrix" values="0 0 0 0 0 0 0 0 0 0 0 0 0 0 0 0 0 0 127 0" result="hardAlpha"/>
<feOffset dy="2"/>
<feGaussianBlur stdDeviation="2"/>
<feComposite in2="hardAlpha" operator="out"/>
<feColorMatrix type="matrix" values="0 0 0 0 0 0 0 0 0 0 0 0 0 0 0 0 0 0 0.25 0"/>
<feBlend mode="normal" in2="BackgroundImageFix" result="effect1_dropShadow_689_16"/>
<feBlend mode="normal" in="SourceGraphic" in2="effect1_dropShadow_689_16" result="shape"/>
</filter>
<linearGradient id="paint0_linear_689_16" x1="24.9615" y1="55" x2="25.8077" y2="-3.80769" gradientUnits="userSpaceOnUse">
<stop stop-color="#2E70F1"/>
<stop offset="0.9999" stop-color="#003E84"/>
<stop offset="1" stop-color="white" stop-opacity="0"/>
</linearGradient>
</defs>
</svg>
