<svg width="20" height="20" viewBox="0 0 20 20" fill="none" xmlns="http://www.w3.org/2000/svg">
<path d="M16.4233 5.24336C16.5009 5.32077 16.5625 5.41273 16.6045 5.51397C16.6465 5.61521 16.6682 5.72375 16.6682 5.83336C16.6682 5.94297 16.6465 6.05151 16.6045 6.15275C16.5625 6.25399 16.5009 6.34595 16.4233 6.42336L8.92334 13.9234C8.84593 14.001 8.75397 14.0625 8.65273 14.1045C8.55149 14.1466 8.44295 14.1682 8.33334 14.1682C8.22373 14.1682 8.11519 14.1466 8.01395 14.1045C7.91271 14.0625 7.82075 14.001 7.74334 13.9234L4.41 10.59C4.25353 10.4335 4.16562 10.2213 4.16562 10C4.16562 9.77873 4.25353 9.5665 4.41 9.41002C4.56648 9.25355 4.77871 9.16564 5 9.16564C5.2213 9.16564 5.43353 9.25355 5.59 9.41002L8.33334 12.155L15.2433 5.24336C15.3207 5.16575 15.4127 5.10418 15.5139 5.06217C15.6152 5.02016 15.7237 4.99854 15.8333 4.99854C15.9429 4.99854 16.0515 5.02016 16.1527 5.06217C16.254 5.10418 16.3459 5.16575 16.4233 5.24336Z" fill="white"/>
</svg>
