<svg width="20" height="20" viewBox="0 0 20 20" fill="none" xmlns="http://www.w3.org/2000/svg">
<g clip-path="url(#clip0_585_270)">
<path fill-rule="evenodd" clip-rule="evenodd" d="M10 11.7675L14.4192 16.1875C14.6537 16.422 14.9717 16.5537 15.3033 16.5537C15.635 16.5537 15.953 16.422 16.1875 16.1875C16.422 15.953 16.5538 15.6349 16.5538 15.3033C16.5538 14.9717 16.422 14.6536 16.1875 14.4191L11.7667 9.99997L16.1867 5.5808C16.3027 5.46469 16.3948 5.32686 16.4576 5.17518C16.5204 5.02349 16.5527 4.86092 16.5526 4.69676C16.5526 4.53259 16.5202 4.37004 16.4574 4.21839C16.3945 4.06673 16.3024 3.92894 16.1863 3.81289C16.0702 3.69683 15.9323 3.60478 15.7806 3.54199C15.629 3.47921 15.4664 3.44691 15.3022 3.44695C15.1381 3.44699 14.9755 3.47936 14.8238 3.54222C14.6722 3.60508 14.5344 3.69719 14.4183 3.8133L10 8.23247L5.58085 3.8133C5.4656 3.69386 5.32771 3.59857 5.17524 3.53299C5.02276 3.46741 4.85876 3.43285 4.69278 3.43133C4.52681 3.42981 4.3622 3.46136 4.20855 3.52414C4.0549 3.58691 3.91529 3.67966 3.79787 3.79697C3.68045 3.91428 3.58757 4.05381 3.52464 4.2074C3.46172 4.36099 3.43001 4.52557 3.43138 4.69154C3.43274 4.85752 3.46715 5.02156 3.53258 5.17409C3.59802 5.32663 3.69318 5.4646 3.81252 5.57997L8.23335 9.99997L3.81335 14.4191C3.57885 14.6536 3.44712 14.9717 3.44712 15.3033C3.44712 15.6349 3.57885 15.953 3.81335 16.1875C4.04785 16.422 4.36589 16.5537 4.69752 16.5537C5.02914 16.5537 5.34719 16.422 5.58168 16.1875L10 11.7666V11.7675Z" fill="white"/>
</g>
<defs>
<clipPath id="clip0_585_270">
<rect width="20" height="20" fill="white"/>
</clipPath>
</defs>
</svg>
