<svg width="50" height="50" viewBox="0 0 50 50" fill="none" xmlns="http://www.w3.org/2000/svg">
<path d="M47.1807 23.963C45.1094 14.5987 41.9922 9.6007 37.3682 8.23546C36.3962 7.95036 35.3879 7.80792 34.375 7.81261C33.0361 7.81261 31.8701 8.13878 30.6367 8.48449C29.1504 8.90148 27.4619 9.37511 25 9.37511C22.5381 9.37511 20.8486 8.90246 19.3594 8.48546C18.125 8.13878 16.96 7.81261 15.625 7.81261C14.5776 7.80898 13.5347 7.95096 12.5264 8.23449C7.92676 9.59386 4.81152 14.59 2.70996 23.9571C0.450193 34.0372 1.5625 40.4015 5.8291 41.878C6.41394 42.0842 7.0293 42.1905 7.64941 42.1925C10.5723 42.1925 12.916 39.7579 14.5176 37.7648C16.3271 35.5089 18.4453 34.3644 25 34.3644C30.8545 34.3644 33.2773 35.1583 35.3701 37.7648C36.6855 39.4034 37.9287 40.5499 39.1689 41.2716C40.8184 42.2306 42.4668 42.4435 44.0674 41.8937C46.5889 41.0333 48.0342 38.7589 48.3643 35.1319C48.6152 32.3507 48.2285 28.6974 47.1807 23.963ZM20.3125 23.4376H17.1875V26.5626C17.1875 26.977 17.0229 27.3744 16.7298 27.6675C16.4368 27.9605 16.0394 28.1251 15.625 28.1251C15.2106 28.1251 14.8132 27.9605 14.5201 27.6675C14.2271 27.3744 14.0625 26.977 14.0625 26.5626V23.4376H10.9375C10.5231 23.4376 10.1257 23.273 9.83264 22.98C9.53962 22.6869 9.375 22.2895 9.375 21.8751C9.375 21.4607 9.53962 21.0633 9.83264 20.7703C10.1257 20.4772 10.5231 20.3126 10.9375 20.3126H14.0625V17.1876C14.0625 16.7732 14.2271 16.3758 14.5201 16.0828C14.8132 15.7897 15.2106 15.6251 15.625 15.6251C16.0394 15.6251 16.4368 15.7897 16.7298 16.0828C17.0229 16.3758 17.1875 16.7732 17.1875 17.1876V20.3126H20.3125C20.7269 20.3126 21.1243 20.4772 21.4173 20.7703C21.7104 21.0633 21.875 21.4607 21.875 21.8751C21.875 22.2895 21.7104 22.6869 21.4173 22.98C21.1243 23.273 20.7269 23.4376 20.3125 23.4376ZM28.5156 23.8282C28.1293 23.8282 27.7517 23.7137 27.4305 23.4991C27.1093 23.2845 26.859 22.9794 26.7112 22.6225C26.5633 22.2657 26.5247 21.8729 26.6 21.4941C26.6754 21.1152 26.8614 20.7672 27.1346 20.494C27.4077 20.2209 27.7557 20.0349 28.1346 19.9595C28.5135 19.8842 28.9062 19.9228 29.263 20.0707C29.6199 20.2185 29.925 20.4688 30.1396 20.79C30.3542 21.1112 30.4687 21.4888 30.4687 21.8751C30.4687 22.3931 30.263 22.8899 29.8967 23.2562C29.5304 23.6225 29.0336 23.8282 28.5156 23.8282ZM32.8125 28.1251C32.426 28.1251 32.0482 28.0104 31.7269 27.7956C31.4056 27.5808 31.1553 27.2755 31.0076 26.9183C30.8599 26.5611 30.8215 26.1682 30.8973 25.7892C30.973 25.4101 31.1595 25.0621 31.4332 24.7892C31.7068 24.5162 32.0553 24.3306 32.4345 24.2558C32.8137 24.181 33.2065 24.2204 33.5633 24.3689C33.9201 24.5175 34.2248 24.7686 34.4388 25.0904C34.6529 25.4123 34.7666 25.7904 34.7656 26.1769C34.7643 26.694 34.558 27.1896 34.1918 27.5548C33.8257 27.92 33.3297 28.1251 32.8125 28.1251ZM32.8125 19.5314C32.4262 19.5314 32.0486 19.4168 31.7274 19.2022C31.4062 18.9876 31.1559 18.6826 31.008 18.3257C30.8602 17.9688 30.8215 17.5761 30.8969 17.1972C30.9723 16.8183 31.1583 16.4703 31.4314 16.1972C31.7046 15.924 32.0526 15.738 32.4315 15.6626C32.8103 15.5873 33.203 15.626 33.5599 15.7738C33.9168 15.9216 34.2218 16.1719 34.4365 16.4931C34.6511 16.8143 34.7656 17.1919 34.7656 17.5782C34.7656 18.0962 34.5598 18.593 34.1936 18.9593C33.8273 19.3256 33.3305 19.5314 32.8125 19.5314ZM37.1094 23.8282C36.7231 23.8282 36.3455 23.7137 36.0243 23.4991C35.7031 23.2845 35.4527 22.9794 35.3049 22.6225C35.1571 22.2657 35.1184 21.8729 35.1938 21.4941C35.2691 21.1152 35.4552 20.7672 35.7283 20.494C36.0014 20.2209 36.3495 20.0349 36.7283 19.9595C37.1072 19.8842 37.4999 19.9228 37.8568 20.0707C38.2137 20.2185 38.5187 20.4688 38.7333 20.79C38.9479 21.1112 39.0625 21.4888 39.0625 21.8751C39.0625 22.3931 38.8567 22.8899 38.4904 23.2562C38.1242 23.6225 37.6274 23.8282 37.1094 23.8282Z" fill="#5D5D5D"/>
</svg>
