<svg width="23" height="23" viewBox="0 0 23 23" fill="none" xmlns="http://www.w3.org/2000/svg">
<path d="M15.3332 16.2914V18.2081H1.9165V16.2914C1.9165 16.2914 1.9165 12.4581 8.62484 12.4581C15.3332 12.4581 15.3332 16.2914 15.3332 16.2914ZM11.979 7.18723C11.979 6.52383 11.7823 5.87534 11.4137 5.32375C11.0452 4.77216 10.5213 4.34225 9.90842 4.08838C9.29553 3.83451 8.62112 3.76809 7.97047 3.89751C7.31983 4.02693 6.72217 4.34638 6.25308 4.81547C5.78399 5.28456 5.46454 5.88222 5.33512 6.53286C5.2057 7.1835 5.27212 7.85791 5.52599 8.47081C5.77986 9.0837 6.20977 9.60755 6.76136 9.97611C7.31295 10.3447 7.96145 10.5414 8.62484 10.5414C9.51442 10.5414 10.3676 10.188 10.9966 9.55898C11.6256 8.92995 11.979 8.07681 11.979 7.18723ZM15.2757 12.4581C15.8648 12.914 16.3469 13.4935 16.6879 14.1558C17.029 14.818 17.2208 15.547 17.2498 16.2914V18.2081H21.0832V16.2914C21.0832 16.2914 21.0832 12.8126 15.2757 12.4581ZM14.3748 3.83306C13.7152 3.82939 13.0701 4.0266 12.5253 4.39848C13.1074 5.21185 13.4204 6.187 13.4204 7.18723C13.4204 8.18745 13.1074 9.1626 12.5253 9.97598C13.0701 10.3479 13.7152 10.5451 14.3748 10.5414C15.2644 10.5414 16.1176 10.188 16.7466 9.55898C17.3756 8.92995 17.729 8.07681 17.729 7.18723C17.729 6.29764 17.3756 5.4445 16.7466 4.81547C16.1176 4.18644 15.2644 3.83306 14.3748 3.83306Z" fill="white"/>
</svg>
