<svg width="35" height="35" viewBox="0 0 35 35" fill="none" xmlns="http://www.w3.org/2000/svg">
<path fill-rule="evenodd" clip-rule="evenodd" d="M14.2406 4.37212C14.651 3.91383 15.1534 3.54723 15.715 3.29624C16.2766 3.04525 16.8848 2.91553 17.5 2.91553C18.1152 2.91553 18.7234 3.04525 19.285 3.29624C19.8466 3.54723 20.349 3.91383 20.7594 4.37212L21.7802 5.51254C21.9261 5.67573 22.1068 5.804 22.3091 5.88781C22.5113 5.97163 22.7298 6.00884 22.9483 5.9967L24.4796 5.91212C25.0936 5.8784 25.7079 5.9745 26.2822 6.19416C26.8566 6.41382 27.3783 6.75211 27.8131 7.18694C28.2479 7.62178 28.5862 8.14341 28.8059 8.7178C29.0255 9.29218 29.1216 9.90642 29.0879 10.5205L29.0033 12.0517C28.9914 12.27 29.0287 12.4882 29.1125 12.6902C29.1964 12.8921 29.3245 13.0726 29.4875 13.2184L30.6294 14.2392C31.0879 14.6496 31.4547 15.152 31.7058 15.7138C31.957 16.2755 32.0868 16.884 32.0868 17.4993C32.0868 18.1146 31.957 18.7231 31.7058 19.2848C31.4547 19.8466 31.0879 20.3491 30.6294 20.7594L29.4875 21.7802C29.3243 21.9261 29.196 22.1069 29.1122 22.3091C29.0284 22.5113 28.9912 22.7298 29.0033 22.9484L29.0879 24.4796C29.1216 25.0937 29.0255 25.7079 28.8059 26.2823C28.5862 26.8567 28.2479 27.3783 27.8131 27.8131C27.3783 28.248 26.8566 28.5863 26.2822 28.8059C25.7079 29.0256 25.0936 29.1217 24.4796 29.088L22.9483 29.0034C22.73 28.9915 22.5118 29.0288 22.3099 29.1126C22.1079 29.1964 21.9274 29.3245 21.7817 29.4875L20.7608 30.6294C20.3505 31.0879 19.848 31.4548 19.2862 31.7059C18.7245 31.957 18.1161 32.0868 17.5007 32.0868C16.8854 32.0868 16.277 31.957 15.7152 31.7059C15.1534 31.4548 14.651 31.0879 14.2406 30.6294L13.2198 29.4875C13.0739 29.3243 12.8931 29.1961 12.6909 29.1123C12.4887 29.0285 12.2702 28.9912 12.0517 29.0034L10.5204 29.088C9.90638 29.1217 9.29214 29.0256 8.71776 28.8059C8.14337 28.5863 7.62174 28.248 7.1869 27.8131C6.75207 27.3783 6.41378 26.8567 6.19412 26.2823C5.97446 25.7079 5.87836 25.0937 5.91208 24.4796L5.99666 22.9484C6.00858 22.7301 5.97126 22.5118 5.88745 22.3099C5.80364 22.108 5.6755 21.9274 5.5125 21.7817L4.37208 20.7609C3.91355 20.3505 3.54674 19.848 3.29561 19.2863C3.04448 18.7245 2.91467 18.1161 2.91467 17.5008C2.91467 16.8854 3.04448 16.277 3.29561 15.7152C3.54674 15.1535 3.91355 14.651 4.37208 14.2407L5.5125 13.2198C5.67569 13.0739 5.80396 12.8932 5.88777 12.691C5.97159 12.4888 6.0088 12.2703 5.99666 12.0517L5.91208 10.5205C5.87836 9.90642 5.97446 9.29218 6.19412 8.7178C6.41378 8.14341 6.75207 7.62178 7.1869 7.18694C7.62174 6.75211 8.14337 6.41382 8.71776 6.19416C9.29214 5.9745 9.90638 5.8784 10.5204 5.91212L12.0517 5.9967C12.27 6.00862 12.4882 5.9713 12.6901 5.88749C12.8921 5.80368 13.0726 5.67554 13.2183 5.51254L14.2406 4.37212ZM22.906 12.094C23.1794 12.3675 23.333 12.7383 23.333 13.125C23.333 13.5117 23.1794 13.8826 22.906 14.1561L14.156 22.9061C13.881 23.1717 13.5126 23.3187 13.1302 23.3154C12.7479 23.3121 12.3821 23.1587 12.1117 22.8883C11.8413 22.6179 11.688 22.2522 11.6846 21.8698C11.6813 21.4874 11.8283 21.119 12.094 20.844L20.844 12.094C21.1174 11.8206 21.4883 11.667 21.875 11.667C22.2617 11.667 22.6326 11.8206 22.906 12.094ZM13.8542 11.6667C13.274 11.6667 12.7176 11.8972 12.3074 12.3074C11.8971 12.7176 11.6667 13.274 11.6667 13.8542V13.8688C11.6667 14.4489 11.8971 15.0053 12.3074 15.4156C12.7176 15.8258 13.274 16.0563 13.8542 16.0563H13.8687C14.4489 16.0563 15.0053 15.8258 15.4155 15.4156C15.8258 15.0053 16.0562 14.4489 16.0562 13.8688V13.8542C16.0562 13.274 15.8258 12.7176 15.4155 12.3074C15.0053 11.8972 14.4489 11.6667 13.8687 11.6667H13.8542ZM21.1458 18.9584C20.5657 18.9584 20.0093 19.1888 19.599 19.5991C19.1888 20.0093 18.9583 20.5657 18.9583 21.1459V21.1605C18.9583 21.7406 19.1888 22.297 19.599 22.7073C20.0093 23.1175 20.5657 23.348 21.1458 23.348H21.1604C21.7406 23.348 22.297 23.1175 22.7072 22.7073C23.1174 22.297 23.3479 21.7406 23.3479 21.1605V21.1459C23.3479 20.5657 23.1174 20.0093 22.7072 19.5991C22.297 19.1888 21.7406 18.9584 21.1604 18.9584H21.1458Z" fill="white"/>
</svg>
