<svg width="20" height="20" viewBox="0 0 20 20" fill="none" xmlns="http://www.w3.org/2000/svg">
<path d="M15.8293 1.6767L18.3293 4.1767L16.4234 6.08336L13.9234 3.58336L15.8293 1.6767ZM6.67261 13.3334H9.17261L15.2451 7.26086L12.7451 4.76086L6.67261 10.8334V13.3334Z" fill="white"/>
<path d="M15.8392 15.8333H6.80419C6.78253 15.8333 6.76003 15.8417 6.73836 15.8417C6.71086 15.8417 6.68336 15.8342 6.65503 15.8333H4.17253V4.16667H9.87836L11.545 2.5H4.17253C3.25336 2.5 2.50586 3.24667 2.50586 4.16667V15.8333C2.50586 16.7533 3.25336 17.5 4.17253 17.5H15.8392C16.2812 17.5 16.7051 17.3244 17.0177 17.0118C17.3303 16.6993 17.5059 16.2754 17.5059 15.8333V8.61L15.8392 10.2767V15.8333Z" fill="white"/>
</svg>
