<svg xmlns="http://www.w3.org/2000/svg" width="18" height="18" viewBox="0 0 18 18" fill="none">
<path d="M9 1.5C13.1422 1.5 16.5 4.8585 16.5 9C16.5 13.1415 13.1422 16.5 9 16.5C4.85775 16.5 1.5 13.1415 1.5 9C1.5 4.8585 4.85775 1.5 9 1.5ZM9.0015 11.253C8.90116 11.2498 8.80121 11.2668 8.70758 11.303C8.61395 11.3393 8.52854 11.3939 8.45645 11.4638C8.38435 11.5336 8.32702 11.6172 8.28787 11.7097C8.24872 11.8021 8.22855 11.9015 8.22855 12.0019C8.22855 12.1023 8.24872 12.2016 8.28787 12.2941C8.32702 12.3865 8.38435 12.4701 8.45645 12.54C8.52854 12.6098 8.61395 12.6645 8.70758 12.7007C8.80121 12.7369 8.90116 12.7539 9.0015 12.7507C9.19601 12.7446 9.3805 12.663 9.51591 12.5232C9.65133 12.3835 9.72705 12.1965 9.72705 12.0019C9.72705 11.8073 9.65133 11.6203 9.51591 11.4805C9.3805 11.3408 9.19601 11.2592 9.0015 11.253ZM9 5.25C8.81618 5.25005 8.63879 5.31759 8.50149 5.43982C8.3642 5.56204 8.27657 5.73043 8.25525 5.913L8.25 6L8.2515 9.75075L8.25675 9.8385C8.27843 10.0208 8.36622 10.1888 8.50347 10.3107C8.64073 10.4326 8.81793 10.4999 9.0015 10.4999C9.18507 10.4999 9.36227 10.4326 9.49953 10.3107C9.63678 10.1888 9.72457 10.0208 9.74625 9.8385L9.7515 9.75075L9.75 6L9.74475 5.91225C9.72326 5.72981 9.63556 5.56161 9.49828 5.43954C9.361 5.31747 9.1837 5.25002 9 5.25Z" fill="#FF7A7A"/>
</svg>