<svg width="23" height="23" viewBox="0 0 23 23" fill="none" xmlns="http://www.w3.org/2000/svg">
<path d="M6.70832 4.79159H22.0417V8.62492H21.0833V9.58325H15.3333C15.0792 9.58325 14.8354 9.68422 14.6557 9.86394C14.476 10.0437 14.375 10.2874 14.375 10.5416V11.4999C14.375 12.0082 14.1731 12.4958 13.8136 12.8552C13.4542 13.2147 12.9667 13.4166 12.4583 13.4166H9.21915C8.85499 13.4166 8.51957 13.6274 8.35665 13.9533L6.00874 18.6395C5.84582 18.9653 5.51999 19.1666 5.15582 19.1666H1.91665C1.91665 19.1666 -0.958347 19.1666 2.87499 13.4166C2.87499 13.4166 5.74999 9.58325 1.91665 9.58325V4.79159H2.87499L3.35415 3.83325H6.22915L6.70832 4.79159ZM13.4167 11.4999V10.5416C13.4167 10.2874 13.3157 10.0437 13.136 9.86394C12.9562 9.68422 12.7125 9.58325 12.4583 9.58325H11.5C11.5 9.58325 10.5417 10.5416 11.5 11.4999C10.9917 11.4999 10.5041 11.298 10.1447 10.9385C9.78525 10.5791 9.58332 10.0916 9.58332 9.58325C9.32915 9.58325 9.0854 9.68422 8.90567 9.86394C8.72595 10.0437 8.62499 10.2874 8.62499 10.5416V11.4999C8.62499 11.7541 8.72595 11.9978 8.90567 12.1776C9.0854 12.3573 9.32915 12.4583 9.58332 12.4583H12.4583C12.7125 12.4583 12.9562 12.3573 13.136 12.1776C13.3157 11.9978 13.4167 11.7541 13.4167 11.4999Z" fill="white"/>
</svg>
