<svg width="21" height="21" viewBox="0 0 21 21" fill="none" xmlns="http://www.w3.org/2000/svg">
<path d="M10.5 3.9375C11.7979 3.9375 13.0667 4.32238 14.1459 5.04348C15.2251 5.76458 16.0663 6.7895 16.563 7.98864C17.0597 9.18778 17.1896 10.5073 16.9364 11.7803C16.6832 13.0533 16.0582 14.2226 15.1404 15.1404C14.2226 16.0582 13.0533 16.6832 11.7803 16.9364C10.5073 17.1896 9.18778 17.0597 7.98864 16.563C6.7895 16.0663 5.76458 15.2251 5.04348 14.1459C4.32238 13.0667 3.9375 11.7979 3.9375 10.5C3.9375 10.326 3.86836 10.159 3.74529 10.036C3.62222 9.91289 3.4553 9.84375 3.28125 9.84375C3.1072 9.84375 2.94028 9.91289 2.81721 10.036C2.69414 10.159 2.625 10.326 2.625 10.5C2.62496 12.3031 3.24369 14.0516 4.37783 15.4534C5.51196 16.8552 7.09279 17.8253 8.85619 18.2017C10.6196 18.5781 12.4587 18.3379 14.0664 17.5213C15.674 16.7048 16.9527 15.3612 17.6888 13.7152C18.425 12.0692 18.5739 10.2204 18.1109 8.47779C17.6478 6.73514 16.6008 5.20418 15.1446 4.14071C13.6885 3.07723 11.9116 2.54566 10.1107 2.63481C8.30975 2.72396 6.59397 3.42842 5.25 4.6305V3.28125C5.25 3.1072 5.18086 2.94028 5.05779 2.81721C4.93472 2.69414 4.7678 2.625 4.59375 2.625C4.4197 2.625 4.25278 2.69414 4.12971 2.81721C4.00664 2.94028 3.9375 3.1072 3.9375 3.28125V7.21875C3.9375 7.3928 4.00664 7.55972 4.12971 7.68279C4.25278 7.80586 4.4197 7.875 4.59375 7.875H7.21875C7.3928 7.875 7.55972 7.80586 7.68279 7.68279C7.80586 7.55972 7.875 7.3928 7.875 7.21875C7.875 7.0447 7.80586 6.87778 7.68279 6.75471C7.55972 6.63164 7.3928 6.5625 7.21875 6.5625H5.25C5.86071 5.74686 6.65324 5.08489 7.56461 4.62921C8.47597 4.17353 9.48106 3.93668 10.5 3.9375ZM10.5013 7.21875C10.5013 7.0447 10.4322 6.87778 10.3091 6.75471C10.186 6.63164 10.0191 6.5625 9.84506 6.5625C9.67101 6.5625 9.50409 6.63164 9.38102 6.75471C9.25795 6.87778 9.18881 7.0447 9.18881 7.21875V11.1562C9.18881 11.3303 9.25795 11.4972 9.38102 11.6203C9.50409 11.7434 9.67101 11.8125 9.84506 11.8125H12.4701C12.6441 11.8125 12.811 11.7434 12.9341 11.6203C13.0572 11.4972 13.1263 11.3303 13.1263 11.1562C13.1263 10.9822 13.0572 10.8153 12.9341 10.6922C12.811 10.5691 12.6441 10.5 12.4701 10.5H10.5013V7.21875Z" fill="white"/>
</svg>
