<svg xmlns="http://www.w3.org/2000/svg" width="40" height="40" viewBox="0 0 40 40" fill="none">
<path d="M29.4333 18.6667C29.05 18.1667 28.5833 17.7333 28.15 17.3C27.0333 16.3 25.7667 15.5833 24.7 14.5333C22.2167 12.1 21.6667 8.08333 23.25 5C21.6667 5.38333 20.2833 6.25 19.1 7.2C14.7833 10.6667 13.0833 16.7833 15.1167 22.0333C15.1833 22.2 15.25 22.3667 15.25 22.5833C15.25 22.95 15 23.2833 14.6667 23.4167C14.2833 23.5833 13.8833 23.4833 13.5667 23.2167C13.4715 23.138 13.3923 23.0418 13.3333 22.9333C11.45 20.55 11.15 17.1333 12.4167 14.4C9.63334 16.6667 8.11667 20.5 8.33334 24.1167C8.43334 24.95 8.53334 25.7833 8.81667 26.6167C9.05001 27.6167 9.50001 28.6167 10 29.5C11.8 32.3833 14.9167 34.45 18.2667 34.8667C21.8333 35.3167 25.65 34.6667 28.3833 32.2C31.4333 29.4333 32.5 25 30.9333 21.2L30.7167 20.7667C30.3667 20 29.4333 18.6667 29.4333 18.6667ZM24.1667 29.1667C23.7 29.5667 22.9333 30 22.3333 30.1667C20.4667 30.8333 18.6 29.9 17.5 28.8C19.4833 28.3333 20.6667 26.8667 21.0167 25.3833C21.3 24.05 20.7667 22.95 20.55 21.6667C20.35 20.4333 20.3833 19.3833 20.8333 18.2333C21.15 18.8667 21.4833 19.5 21.8833 20C23.1667 21.6667 25.1833 22.4 25.6167 24.6667C25.6833 24.9 25.7167 25.1333 25.7167 25.3833C25.7667 26.75 25.1667 28.25 24.1667 29.1667Z" fill="white" fill-opacity="0.4"/>
</svg>