<svg xmlns="http://www.w3.org/2000/svg" width="40" height="40" viewBox="0 0 40 40" fill="none">
<path d="M25 6.66675C27.6371 6.66675 30.2149 7.44873 32.4076 8.91382C34.6003 10.3789 36.3092 12.4613 37.3184 14.8976C38.3276 17.334 38.5916 20.0149 38.0771 22.6013C37.5627 25.1877 36.2928 27.5635 34.4281 29.4282C32.5634 31.2929 30.1876 32.5627 27.6012 33.0772C25.0148 33.5917 22.3339 33.3276 19.8975 32.3185C17.4612 31.3093 15.3788 29.6003 13.9137 27.4077C12.4486 25.215 11.6667 22.6372 11.6667 20.0001C11.6667 16.4639 13.0714 13.0725 15.5719 10.572C18.0724 8.07151 21.4638 6.66675 25 6.66675ZM4.99999 20.0001C5.00235 22.0661 5.64456 24.0806 6.83832 25.7668C8.03209 27.453 9.71882 28.7281 11.6667 29.4167V32.9001C8.81334 32.1543 6.28778 30.4836 4.48525 28.1494C2.68272 25.8152 1.70494 22.9493 1.70494 20.0001C1.70494 17.0509 2.68272 14.185 4.48525 11.8508C6.28778 9.51656 8.81334 7.84584 11.6667 7.10008V10.5834C9.71882 11.2721 8.03209 12.5471 6.83832 14.2333C5.64456 15.9195 5.00235 17.9341 4.99999 20.0001Z" fill="white"/>
</svg>