<svg width="35" height="35" viewBox="0 0 35 35" fill="none" xmlns="http://www.w3.org/2000/svg">
<g clip-path="url(#clip0_693_595)">
<path d="M6.17032 14.3086C6.41496 14.555 6.74363 14.7 7.09058 14.7146C10.4968 14.9023 13.714 16.3399 16.1262 18.7521C18.5384 21.1643 19.976 24.3815 20.1637 27.7877C20.1742 27.9761 20.2217 28.1606 20.3036 28.3307C20.3855 28.5007 20.5001 28.653 20.6409 28.7787C20.7817 28.9044 20.9458 29.0011 21.1241 29.0633C21.3023 29.1254 21.491 29.1518 21.6794 29.141C22.0582 29.1116 22.4105 28.9351 22.6608 28.6493C22.9112 28.3635 23.0398 27.9911 23.0192 27.6117C22.803 23.504 21.0739 19.6216 18.1653 16.713C15.2566 13.8043 11.3743 12.0753 7.26651 11.8591C6.88713 11.8384 6.51472 11.967 6.22893 12.2174C5.94315 12.4678 5.76668 12.82 5.73726 13.1989C5.73054 13.4035 5.76546 13.6074 5.8399 13.7982C5.91434 13.9889 6.02675 14.1626 6.17032 14.3086Z" fill="#3870FF"/>
<path d="M6.35978 6.94652C6.61678 7.20094 6.95934 7.35051 7.32064 7.36605C12.6642 7.49404 17.7535 9.67385 21.5331 13.4534C25.3127 17.233 27.4925 22.3223 27.6205 27.6659C27.6029 27.8698 27.6291 28.0751 27.6973 28.2681C27.7656 28.461 27.8743 28.6371 28.0162 28.7846C28.1581 28.9321 28.3299 29.0475 28.5201 29.1232C28.7103 29.1988 28.9144 29.2329 29.1188 29.2232C29.3233 29.2134 29.5233 29.1601 29.7054 29.0667C29.8875 28.9734 30.0476 28.8421 30.1748 28.6818C30.3021 28.5215 30.3936 28.3359 30.4432 28.1373C30.4928 27.9387 30.4994 27.7319 30.4624 27.5305C30.2986 21.4806 27.8221 15.7235 23.5425 11.444C19.263 7.16443 13.5059 4.68794 7.45597 4.52407C7.1708 4.51314 6.88883 4.58746 6.6461 4.73754C6.40337 4.88762 6.21089 5.10665 6.09323 5.36665C5.97558 5.62666 5.93809 5.91583 5.98557 6.19724C6.03305 6.47864 6.16333 6.73951 6.35978 6.94652ZM13.0993 28.9515C13.2569 29.1091 13.449 29.2278 13.6604 29.2983C13.8718 29.3688 14.0967 29.389 14.3173 29.3575C14.505 29.3333 14.6859 29.2718 14.8494 29.1764C15.0129 29.0811 15.1556 28.954 15.2691 28.8027C15.3827 28.6513 15.4647 28.4787 15.5104 28.295C15.5562 28.1114 15.5646 27.9205 15.5353 27.7335C15.2548 25.6247 14.2877 23.6669 12.7834 22.1625C11.2791 20.6582 9.32124 19.6911 7.21237 19.4106C7.02576 19.384 6.83573 19.3943 6.65313 19.4411C6.47053 19.4879 6.29893 19.5702 6.14812 19.6833C5.99732 19.7964 5.87028 19.9381 5.77424 20.1003C5.6782 20.2625 5.61504 20.442 5.58839 20.6286C5.53967 21.0046 5.63973 21.3849 5.86724 21.6882C6.09475 21.9916 6.43173 22.1941 6.80638 22.2526C8.29667 22.4544 9.6796 23.1395 10.743 24.2029C11.8064 25.2663 12.4916 26.6493 12.6933 28.1395C12.7411 28.4458 12.883 28.7296 13.0993 28.9515ZM5.34479 29.6147C5.61398 29.8839 5.97908 30.0351 6.35978 30.0351C6.74047 30.0351 7.10558 29.8839 7.37477 29.6147C7.64396 29.3455 7.79519 28.9804 7.79519 28.5997C7.79519 28.219 7.64396 27.8539 7.37477 27.5847C7.10558 27.3155 6.74047 27.1643 6.35978 27.1643C5.97908 27.1643 5.61398 27.3155 5.34479 27.5847C5.07559 27.8539 4.92436 28.219 4.92436 28.5997C4.92436 28.9804 5.07559 29.3455 5.34479 29.6147Z" fill="#3870FF"/>
</g>
<defs>
<clipPath id="clip0_693_595">
<rect width="45.9333" height="45.9333" transform="matrix(-0.707107 -0.707107 -0.707107 0.707107 46.9595 20.4797)" fill="white"/>
</clipPath>
</defs>
</svg>
