<svg width="25" height="25" viewBox="0 0 14 14" fill="none" xmlns="http://www.w3.org/2000/svg">
<path d="M7.75425 2.31009C8.01193 2.04829 8.31889 1.84008 8.65742 1.69749C8.99595 1.55489 9.35937 1.48073 9.72671 1.47927C10.094 1.47781 10.458 1.54909 10.7977 1.68899C11.1373 1.82889 11.4459 2.03465 11.7057 2.29439C11.9654 2.55414 12.1712 2.86274 12.3111 3.2024C12.451 3.54206 12.5223 3.90605 12.5208 4.27339C12.5194 4.64072 12.4452 5.00414 12.3026 5.34267C12.16 5.68121 11.9518 5.98816 11.69 6.24584L9.9225 8.01334L9.09709 7.18909L10.8646 5.42101C11.1678 5.11793 11.3382 4.70681 11.3383 4.27809C11.3385 3.84936 11.1682 3.43815 10.8652 3.13492C10.5621 2.83169 10.151 2.66128 9.72225 2.66117C9.29353 2.66106 8.88232 2.83126 8.57909 3.13434L6.811 4.90242L5.98617 4.07759L7.75367 2.31009H7.75425ZM8.99092 5.83342L5.83217 8.99159L5.00734 8.16676L8.1655 5.00859L8.99092 5.83342ZM4.90175 6.81109L3.13425 8.57917C2.83102 8.8824 2.66067 9.29367 2.66067 9.72251C2.66067 10.1513 2.83102 10.5626 3.13425 10.8658C3.43748 11.1691 3.84875 11.3394 4.27759 11.3394C4.70642 11.3394 5.11769 11.1691 5.42092 10.8658L7.18842 9.09776L8.01325 9.92259L6.24575 11.6901C5.72384 12.2121 5.01594 12.5054 4.27779 12.5054C3.53964 12.5055 2.8317 12.2123 2.30971 11.6904C1.78772 11.1685 1.49444 10.4606 1.49438 9.72242C1.49433 8.98427 1.78751 8.27633 2.30942 7.75434L4.07692 5.98684L4.90234 6.81109H4.90175Z" fill="#628EFF"/>
</svg>
