<svg width="39" height="39" viewBox="0 0 39 39" fill="none" xmlns="http://www.w3.org/2000/svg">
<g filter="url(#filter0_d_1568_428)">
<mask id="mask0_1568_428" style="mask-type:alpha" maskUnits="userSpaceOnUse" x="7" y="7" width="25" height="25">
<rect x="7" y="7" width="25" height="25" fill="#D9D9D9"/>
</mask>
<g mask="url(#mask0_1568_428)">
<path d="M19.5 28.875C17.1042 28.875 15.0165 28.0807 13.237 26.4922C11.4575 24.9036 10.4375 22.9201 10.1771 20.5417H12.3125C12.5556 22.3472 13.3585 23.8403 14.7214 25.0208C16.0842 26.2014 17.6771 26.7917 19.5 26.7917C21.5312 26.7917 23.2543 26.0842 24.6693 24.6693C26.0842 23.2543 26.7917 21.5312 26.7917 19.5C26.7917 17.4687 26.0842 15.7457 24.6693 14.3307C23.2543 12.9158 21.5312 12.2083 19.5 12.2083C18.3021 12.2083 17.1823 12.4861 16.1406 13.0417C15.099 13.5972 14.2222 14.3611 13.5104 15.3333H16.375V17.4167H10.125V11.1667H12.2083V13.6146C13.0937 12.5035 14.1745 11.6441 15.4505 11.0365C16.7266 10.4288 18.0764 10.125 19.5 10.125C20.8021 10.125 22.0217 10.3724 23.1589 10.8672C24.296 11.362 25.2856 12.0304 26.1276 12.8724C26.9696 13.7144 27.638 14.704 28.1328 15.8411C28.6276 16.9783 28.875 18.1979 28.875 19.5C28.875 20.8021 28.6276 22.0217 28.1328 23.1589C27.638 24.296 26.9696 25.2856 26.1276 26.1276C25.2856 26.9696 24.296 27.638 23.1589 28.1328C22.0217 28.6276 20.8021 28.875 19.5 28.875ZM22.4167 23.875L18.4583 19.9167V14.2917H20.5417V19.0833L23.875 22.4167L22.4167 23.875Z" fill="#FF3636"/>
</g>
</g>
<defs>
<filter id="filter0_d_1568_428" x="0.125" y="0.125" width="38.75" height="38.75" filterUnits="userSpaceOnUse" color-interpolation-filters="sRGB">
<feFlood flood-opacity="0" result="BackgroundImageFix"/>
<feColorMatrix in="SourceAlpha" type="matrix" values="0 0 0 0 0 0 0 0 0 0 0 0 0 0 0 0 0 0 127 0" result="hardAlpha"/>
<feOffset/>
<feGaussianBlur stdDeviation="5"/>
<feComposite in2="hardAlpha" operator="out"/>
<feColorMatrix type="matrix" values="0 0 0 0 1 0 0 0 0 0.211765 0 0 0 0 0.211765 0 0 0 0.5 0"/>
<feBlend mode="normal" in2="BackgroundImageFix" result="effect1_dropShadow_1568_428"/>
<feBlend mode="normal" in="SourceGraphic" in2="effect1_dropShadow_1568_428" result="shape"/>
</filter>
</defs>
</svg>
