<svg width="50" height="50" viewBox="0 0 50 50" fill="none" xmlns="http://www.w3.org/2000/svg">
<path fill-rule="evenodd" clip-rule="evenodd" d="M25.0406 6.25C20.3354 6.25 16.0489 7.80417 13.5125 9.07396C13.2833 9.18854 13.0698 9.30104 12.8708 9.40938C12.477 9.62396 12.1416 9.82396 11.875 10L14.7604 14.2479L16.1187 14.7885C21.427 17.4667 28.5458 17.4667 33.8552 14.7885L35.3968 13.9885L38.125 10C37.5599 9.63131 36.9723 9.29837 36.3656 9.00312C33.8416 7.74687 29.6572 6.25 25.0416 6.25H25.0406ZM18.3302 11.0583C17.3084 10.8671 16.2993 10.6139 15.3083 10.3C17.6843 9.24479 21.225 8.125 25.0406 8.125C27.6833 8.125 30.1822 8.6625 32.2489 9.34375C29.827 9.68438 27.2427 10.2625 24.7802 10.974C22.8427 11.5344 20.5781 11.474 18.3302 11.0583ZM34.9552 16.3333L34.6989 16.4625C28.8593 19.4083 21.1135 19.4083 15.2739 16.4625L15.0312 16.3396C6.25829 25.9656 -0.439626 43.7469 25.0406 43.7469C50.5208 43.7469 43.6593 25.6354 34.9552 16.3333ZM23.9583 25C23.4058 25 22.8759 25.2195 22.4852 25.6102C22.0945 26.0009 21.875 26.5308 21.875 27.0833C21.875 27.6359 22.0945 28.1658 22.4852 28.5565C22.8759 28.9472 23.4058 29.1667 23.9583 29.1667V25ZM26.0416 22.9167V21.875H23.9583V22.9167C22.8532 22.9167 21.7934 23.3557 21.012 24.1371C20.2306 24.9185 19.7916 25.9783 19.7916 27.0833C19.7916 28.1884 20.2306 29.2482 21.012 30.0296C21.7934 30.811 22.8532 31.25 23.9583 31.25V35.4167C23.052 35.4167 22.2802 34.8385 21.9927 34.0281C21.95 33.8955 21.8812 33.7729 21.7903 33.6673C21.6994 33.5618 21.5883 33.4756 21.4635 33.4137C21.3387 33.3519 21.2027 33.3157 21.0637 33.3074C20.9247 33.299 20.7854 33.3186 20.654 33.365C20.5227 33.4114 20.402 33.4836 20.2991 33.5775C20.1962 33.6713 20.1132 33.7849 20.0549 33.9114C19.9966 34.0379 19.9643 34.1748 19.9599 34.314C19.9555 34.4532 19.979 34.5919 20.0291 34.7219C20.3165 35.5344 20.8486 36.2378 21.5523 36.7353C22.2559 37.2328 23.0965 37.5 23.9583 37.5V38.5417H26.0416V37.5C27.1467 37.5 28.2065 37.061 28.9879 36.2796C29.7693 35.4982 30.2083 34.4384 30.2083 33.3333C30.2083 32.2283 29.7693 31.1685 28.9879 30.3871C28.2065 29.6057 27.1467 29.1667 26.0416 29.1667V25C26.9479 25 27.7197 25.5781 28.0072 26.3885C28.0499 26.5211 28.1187 26.6438 28.2096 26.7493C28.3005 26.8549 28.4116 26.9411 28.5365 27.0029C28.6613 27.0648 28.7972 27.1009 28.9362 27.1093C29.0753 27.1177 29.2146 27.0981 29.3459 27.0517C29.4772 27.0053 29.5979 26.933 29.7008 26.8392C29.8037 26.7453 29.8867 26.6318 29.945 26.5053C30.0033 26.3788 30.0356 26.2419 30.04 26.1026C30.0444 25.9634 30.0209 25.8247 29.9708 25.6948C29.6835 24.8823 29.1513 24.1789 28.4477 23.6814C27.744 23.1838 26.9034 22.9167 26.0416 22.9167ZM26.0416 31.25V35.4167C26.5942 35.4167 27.1241 35.1972 27.5148 34.8065C27.9055 34.4158 28.125 33.8859 28.125 33.3333C28.125 32.7808 27.9055 32.2509 27.5148 31.8602C27.1241 31.4695 26.5942 31.25 26.0416 31.25Z" fill="#5E5E5E"/>
</svg>
