<svg width="50" height="50" viewBox="0 0 50 50" fill="none" xmlns="http://www.w3.org/2000/svg">
<path d="M26.65 22.25C25.55 21.975 24.45 21.425 23.625 20.6C22.8 20.325 22.525 19.5 22.525 18.95C22.525 18.4 22.8 17.575 23.35 17.3C24.175 16.75 25 16.2 25.825 16.475C27.475 16.475 28.85 17.3 29.675 18.4L32.15 15.1C31.325 14.275 30.5 13.725 29.675 13.175C28.85 12.625 27.75 12.35 26.65 12.35V8.5H23.35V12.35C21.975 12.625 20.6 13.45 19.5 14.55C18.4 15.925 17.575 17.575 17.85 19.225C17.85 20.875 18.4 22.525 19.5 23.625C20.875 25 22.8 25.825 24.45 26.65C25.275 26.925 26.375 27.475 27.2 28.025C27.75 28.575 28.025 29.4 28.025 30.225C28.025 31.05 27.75 31.875 27.2 32.7C26.375 33.525 25.275 33.8 24.45 33.8C23.35 33.8 21.975 33.525 21.15 32.7C20.325 32.15 19.5 31.325 18.95 30.5L16.2 33.525C17.025 34.625 17.85 35.45 18.95 36.275C20.325 37.1 21.975 37.925 23.625 37.925V41.5H26.65V37.375C28.3 37.1 29.675 36.275 30.775 35.175C32.15 33.8 32.975 31.6 32.975 29.675C32.975 28.025 32.425 26.1 31.05 25C29.675 23.625 28.3 22.8 26.65 22.25ZM25 3C12.9 3 3 12.9 3 25C3 37.1 12.9 47 25 47C37.1 47 47 37.1 47 25C47 12.9 37.1 3 25 3ZM25 43.975C14.55 43.975 6.025 35.45 6.025 25C6.025 14.55 14.55 6.025 25 6.025C35.45 6.025 43.975 14.55 43.975 25C43.975 35.45 35.45 43.975 25 43.975Z" fill="#5E5E5E"/>
</svg>
