<svg width="25" height="25" viewBox="0 0 25 25" fill="none" xmlns="http://www.w3.org/2000/svg">
<path d="M13.325 11.125C12.775 10.9875 12.225 10.7125 11.8125 10.3C11.4 10.1625 11.2625 9.75 11.2625 9.475C11.2625 9.2 11.4 8.7875 11.675 8.65C12.0875 8.375 12.5 8.1 12.9125 8.2375C13.7375 8.2375 14.425 8.65 14.8375 9.2L16.075 7.55C15.6625 7.1375 15.25 6.8625 14.8375 6.5875C14.425 6.3125 13.875 6.175 13.325 6.175V4.25H11.675V6.175C10.9875 6.3125 10.3 6.725 9.75 7.275C9.2 7.9625 8.7875 8.7875 8.925 9.6125C8.925 10.4375 9.2 11.2625 9.75 11.8125C10.4375 12.5 11.4 12.9125 12.225 13.325C12.6375 13.4625 13.1875 13.7375 13.6 14.0125C13.875 14.2875 14.0125 14.7 14.0125 15.1125C14.0125 15.525 13.875 15.9375 13.6 16.35C13.1875 16.7625 12.6375 16.9 12.225 16.9C11.675 16.9 10.9875 16.7625 10.575 16.35C10.1625 16.075 9.75 15.6625 9.475 15.25L8.1 16.7625C8.5125 17.3125 8.925 17.725 9.475 18.1375C10.1625 18.55 10.9875 18.9625 11.8125 18.9625V20.75H13.325V18.6875C14.15 18.55 14.8375 18.1375 15.3875 17.5875C16.075 16.9 16.4875 15.8 16.4875 14.8375C16.4875 14.0125 16.2125 13.05 15.525 12.5C14.8375 11.8125 14.15 11.4 13.325 11.125ZM12.5 1.5C6.45 1.5 1.5 6.45 1.5 12.5C1.5 18.55 6.45 23.5 12.5 23.5C18.55 23.5 23.5 18.55 23.5 12.5C23.5 6.45 18.55 1.5 12.5 1.5ZM12.5 21.9875C7.275 21.9875 3.0125 17.725 3.0125 12.5C3.0125 7.275 7.275 3.0125 12.5 3.0125C17.725 3.0125 21.9875 7.275 21.9875 12.5C21.9875 17.725 17.725 21.9875 12.5 21.9875Z" fill="white"/>
</svg>
