<svg xmlns="http://www.w3.org/2000/svg" width="35" height="35" viewBox="0 0 35 35" fill="none">
<path d="M2.1875 9.29688C2.1875 7.7875 3.4125 6.5625 4.92188 6.5625H25.7031C27.2125 6.5625 28.4375 7.7875 28.4375 9.29688V21.3281C28.4375 22.8375 27.2125 24.0625 25.7031 24.0625H4.92188C3.4125 24.0625 2.1875 22.8375 2.1875 21.3281V9.29688ZM8.75 9.84375V8.75H6.5625V9.84375C6.5625 10.1338 6.44727 10.412 6.24215 10.6171C6.03703 10.8223 5.75883 10.9375 5.46875 10.9375H4.375V13.125H5.46875C6.33899 13.125 7.17359 12.7793 7.78894 12.1639C8.4043 11.5486 8.75 10.714 8.75 9.84375ZM19.6875 15.3125C19.6875 14.1522 19.2266 13.0394 18.4061 12.2189C17.5856 11.3984 16.4728 10.9375 15.3125 10.9375C14.1522 10.9375 13.0394 11.3984 12.2189 12.2189C11.3984 13.0394 10.9375 14.1522 10.9375 15.3125C10.9375 16.4728 11.3984 17.5856 12.2189 18.4061C13.0394 19.2266 14.1522 19.6875 15.3125 19.6875C16.4728 19.6875 17.5856 19.2266 18.4061 18.4061C19.2266 17.5856 19.6875 16.4728 19.6875 15.3125ZM24.0625 8.75H21.875V9.84375C21.875 10.714 22.2207 11.5486 22.8361 12.1639C23.4514 12.7793 24.286 13.125 25.1562 13.125H26.25V10.9375H25.1562C24.8662 10.9375 24.588 10.8223 24.3829 10.6171C24.1777 10.412 24.0625 10.1338 24.0625 9.84375V8.75ZM8.75 20.7812C8.75 19.911 8.4043 19.0764 7.78894 18.4611C7.17359 17.8457 6.33899 17.5 5.46875 17.5H4.375V19.6875H5.46875C5.75883 19.6875 6.03703 19.8027 6.24215 20.0079C6.44727 20.213 6.5625 20.4912 6.5625 20.7812V21.875H8.75V20.7812ZM24.0625 21.875V20.7812C24.0625 20.4912 24.1777 20.213 24.3829 20.0079C24.588 19.8027 24.8662 19.6875 25.1562 19.6875H26.25V17.5H25.1562C24.286 17.5 23.4514 17.8457 22.8361 18.4611C22.2207 19.0764 21.875 19.911 21.875 20.7812V21.875H24.0625ZM9.84375 28.4375C9.15079 28.4378 8.47554 28.2186 7.91478 27.8115C7.35402 27.4044 6.93654 26.8302 6.72219 26.1712C7.02625 26.2237 7.33687 26.25 7.65625 26.25H25.7031C27.0085 26.25 28.2604 25.7314 29.1834 24.8084C30.1064 23.8854 30.625 22.6335 30.625 21.3281V11.1234C31.265 11.3497 31.8191 11.7689 32.2109 12.3233C32.6027 12.8777 32.8129 13.5399 32.8125 14.2188V21.3281C32.8125 22.2617 32.6286 23.1862 32.2713 24.0488C31.9141 24.9113 31.3904 25.695 30.7302 26.3552C30.07 27.0154 29.2863 27.5391 28.4238 27.8963C27.5612 28.2536 26.6367 28.4375 25.7031 28.4375H9.84375Z" fill="white"/>
</svg>