<svg width="25" height="25" viewBox="0 0 25 25" fill="none" xmlns="http://www.w3.org/2000/svg">
<path d="M19.9375 13.4792C19.9792 13.1667 20 12.8438 20 12.5C20 12.1667 19.9792 11.8333 19.9271 11.5208L22.0417 9.875C22.1328 9.7999 22.195 9.69552 22.2178 9.57966C22.2406 9.46379 22.2225 9.34361 22.1667 9.23959L20.1667 5.78125C20.1078 5.67663 20.0138 5.59623 19.9013 5.55428C19.7888 5.51234 19.6651 5.51156 19.5521 5.55209L17.0625 6.55209C16.5417 6.15625 15.9896 5.82292 15.375 5.57292L15 2.92709C14.9815 2.80785 14.9209 2.69918 14.8292 2.62081C14.7375 2.54245 14.6207 2.49958 14.5 2.5H10.5C10.25 2.5 10.0521 2.67709 10.0104 2.92709L9.63541 5.57292C9.02083 5.82292 8.45833 6.16667 7.94791 6.55209L5.45833 5.55209C5.22916 5.46875 4.96874 5.55209 4.84374 5.78125L2.85416 9.23959C2.72916 9.45834 2.77083 9.72917 2.97916 9.875L5.09374 11.5208C5.04166 11.8333 4.99999 12.1771 4.99999 12.5C4.99999 12.8229 5.02083 13.1667 5.07291 13.4792L2.95833 15.125C2.86721 15.2001 2.80494 15.3045 2.78215 15.4204C2.75936 15.5362 2.77744 15.6564 2.83333 15.7604L4.83333 19.2188C4.95833 19.4479 5.21874 19.5208 5.44791 19.4479L7.93749 18.4479C8.45833 18.8438 9.01041 19.1771 9.62499 19.4271L9.99999 22.0729C10.0521 22.3229 10.25 22.5 10.5 22.5H14.5C14.75 22.5 14.9583 22.3229 14.9896 22.0729L15.3646 19.4271C15.9792 19.1771 16.5417 18.8438 17.0521 18.4479L19.5417 19.4479C19.7708 19.5313 20.0312 19.4479 20.1562 19.2188L22.1562 15.7604C22.2812 15.5313 22.2292 15.2708 22.0312 15.125L19.9375 13.4792ZM12.5 16.25C10.4375 16.25 8.74999 14.5625 8.74999 12.5C8.74999 10.4375 10.4375 8.75 12.5 8.75C14.5625 8.75 16.25 10.4375 16.25 12.5C16.25 14.5625 14.5625 16.25 12.5 16.25Z" fill="#3F4041"/>
</svg>
