<svg width="38" height="38" viewBox="0 0 38 38" fill="none" xmlns="http://www.w3.org/2000/svg">
<path d="M19.5 0C21.9295 0 24.3351 0.478517 26.5796 1.40823C28.8242 2.33794 30.8636 3.70064 32.5815 5.41852C34.2994 7.13641 35.6621 9.17583 36.5918 11.4204C37.5215 13.6649 38 16.0705 38 18.5C38 23.4065 36.0509 28.1121 32.5815 31.5815C29.1121 35.0509 24.4065 37 19.5 37C10.99 37 3.8675 31.302 1.666 23.5505L8.7515 26.4735C8.99525 27.6581 9.63979 28.7225 10.5766 29.4874C11.5133 30.2523 12.6851 30.671 13.8945 30.673C16.7805 30.673 19.13 28.3235 19.13 25.4375V25.197L25.42 20.7015H25.568C29.416 20.7015 32.5425 17.575 32.5425 13.727C32.5425 9.879 29.416 6.7525 25.568 6.7525C21.72 6.7525 18.575 9.879 18.575 13.727V13.8195L14.1905 20.2205L13.8945 20.202C12.803 20.202 11.7855 20.535 10.953 21.1085L1 17.02C1.7955 7.4925 9.7505 0 19.5 0ZM12.618 28.0645C14.098 28.675 15.8 27.9905 16.4105 26.5105C17.021 25.0305 16.318 23.347 14.875 22.7365L12.507 21.756C13.4135 21.423 14.431 21.4045 15.393 21.8115C16.3735 22.2 17.132 22.9585 17.5205 23.939C17.9275 24.901 17.9275 25.974 17.5205 26.936C16.725 28.934 14.3755 29.896 12.3775 29.0635C11.4525 28.675 10.7495 27.972 10.361 27.1395L12.618 28.0645ZM30.23 13.727C30.23 16.2985 28.1395 18.389 25.568 18.389C24.3348 18.3841 23.1537 17.8908 22.2834 17.017C21.4131 16.1432 20.9245 14.9602 20.9245 13.727C20.9221 13.1165 21.0405 12.5116 21.273 11.9471C21.5055 11.3826 21.8474 10.8698 22.2791 10.4381C22.7108 10.0064 23.2236 9.66447 23.7881 9.43198C24.3526 9.19949 24.9575 9.08105 25.568 9.0835C26.8012 9.08349 27.9842 9.57212 28.858 10.4424C29.7318 11.3127 30.2251 12.4938 30.23 13.727ZM22.09 13.727C22.09 15.651 23.644 17.2235 25.5865 17.2235C27.5105 17.2235 29.0645 15.651 29.0645 13.727C29.0645 11.803 27.5105 10.2305 25.5865 10.2305C23.644 10.2305 22.09 11.803 22.09 13.727Z" fill="#3F4041"/>
</svg>
