<svg width="25" height="25" viewBox="0 0 25 25" fill="none" xmlns="http://www.w3.org/2000/svg">
<path d="M12.4999 2.08337C13.8679 2.08337 15.2224 2.35281 16.4862 2.8763C17.75 3.39978 18.8983 4.16707 19.8656 5.13435C20.8329 6.10162 21.6002 7.24995 22.1237 8.51375C22.6472 9.77756 22.9166 11.1321 22.9166 12.5C22.9166 15.2627 21.8191 17.9122 19.8656 19.8657C17.9121 21.8192 15.2626 22.9167 12.4999 22.9167C7.70825 22.9167 3.69784 19.7084 2.45825 15.3438L6.44784 16.9896C6.58508 17.6566 6.948 18.2559 7.47546 18.6866C8.00292 19.1173 8.6627 19.3531 9.34367 19.3542C10.9687 19.3542 12.2916 18.0313 12.2916 16.4063V16.2709L15.8333 13.7396H15.9166C18.0833 13.7396 19.8437 11.9792 19.8437 9.81254C19.8437 7.64587 18.0833 5.88546 15.9166 5.88546C13.7499 5.88546 11.9791 7.64587 11.9791 9.81254V9.86462L9.51034 13.4688L9.34367 13.4584C8.72909 13.4584 8.15617 13.6459 7.68742 13.9688L2.08325 11.6667C2.53117 6.30212 7.01034 2.08337 12.4999 2.08337ZM8.62492 17.8855C9.45825 18.2292 10.4166 17.8438 10.7603 17.0105C11.1041 16.1771 10.7083 15.2292 9.89575 14.8855L8.56242 14.3334C9.07284 14.1459 9.64575 14.1355 10.1874 14.3646C10.7395 14.5834 11.1666 15.0105 11.3853 15.5625C11.6145 16.1042 11.6145 16.7084 11.3853 17.25C10.9374 18.375 9.6145 18.9167 8.4895 18.448C7.96867 18.2292 7.57284 17.8334 7.35409 17.3646L8.62492 17.8855ZM18.5416 9.81254C18.5416 11.2605 17.3645 12.4375 15.9166 12.4375C15.2222 12.4348 14.5572 12.157 14.0672 11.665C13.5771 11.173 13.302 10.5069 13.302 9.81254C13.3006 9.4688 13.3673 9.12819 13.4982 8.81036C13.6291 8.49252 13.8217 8.20374 14.0647 7.96068C14.3078 7.71762 14.5966 7.52508 14.9144 7.39418C15.2322 7.26327 15.5728 7.19658 15.9166 7.19796C16.611 7.19795 17.2771 7.47308 17.7691 7.96312C18.2611 8.45315 18.5388 9.11815 18.5416 9.81254ZM13.9583 9.81254C13.9583 10.8959 14.8333 11.7813 15.927 11.7813C17.0103 11.7813 17.8853 10.8959 17.8853 9.81254C17.8853 8.72921 17.0103 7.84379 15.927 7.84379C14.8333 7.84379 13.9583 8.72921 13.9583 9.81254Z" fill="#5E6983"/>
</svg>
