<svg width="22" height="22" viewBox="0 0 22 22" fill="none" xmlns="http://www.w3.org/2000/svg">
<g clip-path="url(#clip0_673_425)">
<path fill-rule="evenodd" clip-rule="evenodd" d="M10.9796 2.35749C10.3227 2.34563 9.66986 2.46342 9.05852 2.70414C8.44719 2.94485 7.88932 3.30376 7.41685 3.76032C6.94438 4.21688 6.56658 4.76213 6.30508 5.36486C6.04357 5.9676 5.90349 6.61598 5.89286 7.27292V14.1432C5.89286 14.56 5.7273 14.9597 5.4326 15.2544C5.1379 15.5491 4.7382 15.7146 4.32143 15.7146H2.35714C1.73199 15.7146 1.13244 15.4663 0.690391 15.0242C0.248341 14.5822 0 13.9826 0 13.3575L0 10.2146C0 9.58948 0.248341 8.98993 0.690391 8.54788C1.13244 8.10583 1.73199 7.85749 2.35714 7.85749H3.53571V7.24463C3.55005 6.27882 3.75451 5.3253 4.1374 4.43851C4.5203 3.55173 5.07413 2.74906 5.76728 2.07634C6.46042 1.40363 7.2793 0.874044 8.17714 0.517841C9.07498 0.161639 10.0342 -0.0142073 11 0.00034664C11.9658 -0.0142073 12.925 0.161639 13.8229 0.517841C14.7207 0.874044 15.5396 1.40363 16.2327 2.07634C16.9259 2.74906 17.4797 3.55173 17.8626 4.43851C18.2455 5.3253 18.4499 6.27882 18.4643 7.24463V7.85749H19.6429C20.268 7.85749 20.8676 8.10583 21.3096 8.54788C21.7517 8.98993 22 9.58948 22 10.2146V13.3575C22 13.9826 21.7517 14.5822 21.3096 15.0242C20.8676 15.4663 20.268 15.7146 19.6429 15.7146H18.4643V16.5003C18.4645 17.5623 18.0737 18.5871 17.3665 19.3792C16.6593 20.1713 15.6851 20.6754 14.63 20.7951C14.4251 21.1609 14.1263 21.4655 13.7644 21.6773C13.4026 21.8892 12.9908 22.0007 12.5714 22.0003H10.2143C9.58913 22.0003 8.98958 21.752 8.54753 21.31C8.10548 20.8679 7.85714 20.2684 7.85714 19.6432C7.85714 19.0181 8.10548 18.4185 8.54753 17.9765C8.98958 17.5344 9.58913 17.2861 10.2143 17.2861H12.5714C13.4231 17.2861 14.1696 17.7371 14.5829 18.4143C15.016 18.3148 15.4026 18.0713 15.6794 17.7237C15.9563 17.376 16.1071 16.9448 16.1071 16.5003V7.27135C16.0964 6.61103 15.9548 5.9594 15.6907 5.35413C15.4265 4.74886 15.045 4.20194 14.5682 3.74501C14.0914 3.28808 13.5287 2.93019 12.9128 2.69203C12.2968 2.45387 11.6397 2.34016 10.9796 2.35749Z" fill="white"/>
</g>
<defs>
<clipPath id="clip0_673_425">
<rect width="22" height="22" fill="white"/>
</clipPath>
</defs>
</svg>
