<svg xmlns="http://www.w3.org/2000/svg" width="17" height="17" viewBox="0 0 17 17" fill="none">
  <g clip-path="url(#clip0_585_213)">
    <path fill-rule="evenodd" clip-rule="evenodd" d="M8.48421 1.82159C7.9766 1.81242 7.47216 1.90344 6.99977 2.08945C6.52737 2.27546 6.09629 2.55279 5.7312 2.90559C5.36611 3.25839 5.07418 3.67972 4.87211 4.14547C4.67003 4.61121 4.56179 5.11224 4.55357 5.61987V10.9287C4.55357 11.2508 4.42564 11.5596 4.19792 11.7874C3.97019 12.0151 3.66133 12.143 3.33929 12.143H1.82143C1.33836 12.143 0.875068 11.9511 0.533484 11.6095C0.1919 11.2679 0 10.8047 0 10.3216L0 7.89301C0 7.40994 0.1919 6.94665 0.533484 6.60507C0.875068 6.26348 1.33836 6.07159 1.82143 6.07159H2.73214V5.59801C2.74322 4.85171 2.90121 4.11489 3.19708 3.42965C3.49296 2.74441 3.92092 2.12416 4.45653 1.60433C4.99215 1.08451 5.62491 0.675287 6.3187 0.400039C7.01248 0.124792 7.75369 -0.0110893 8.5 0.000156885C9.24631 -0.0110893 9.98752 0.124792 10.6813 0.400039C11.3751 0.675287 12.0079 1.08451 12.5435 1.60433C13.0791 2.12416 13.507 2.74441 13.8029 3.42965C14.0988 4.11489 14.2568 4.85171 14.2679 5.59801V6.07159H15.1786C15.6616 6.07159 16.1249 6.26348 16.4665 6.60507C16.8081 6.94665 17 7.40994 17 7.89301V10.3216C17 10.8047 16.8081 11.2679 16.4665 11.6095C16.1249 11.9511 15.6616 12.143 15.1786 12.143H14.2679V12.7502C14.268 13.5707 13.966 14.3626 13.4196 14.9747C12.8731 15.5868 12.1203 15.9763 11.305 16.0688C11.1467 16.3515 10.9158 16.5868 10.6362 16.7506C10.3565 16.9143 10.0383 17.0004 9.71429 17.0002H7.89286C7.40978 17.0002 6.9465 16.8083 6.60491 16.4667C6.26333 16.1251 6.07143 15.6618 6.07143 15.1787C6.07143 14.6957 6.26333 14.2324 6.60491 13.8908C6.9465 13.5492 7.40978 13.3573 7.89286 13.3573H9.71429C10.3724 13.3573 10.9492 13.7058 11.2686 14.2292C11.6033 14.1522 11.902 13.9641 12.1159 13.6954C12.3298 13.4268 12.4464 13.0936 12.4464 12.7502V5.61866C12.4381 5.10841 12.3287 4.60488 12.1246 4.13717C11.9205 3.66946 11.6257 3.24685 11.2572 2.89376C10.8888 2.54068 10.454 2.26412 9.97805 2.08009C9.50208 1.89606 8.99435 1.8082 8.48421 1.82159Z" fill="white" fill-opacity="0.5"/>
  </g>
  <defs>
    <clipPath id="clip0_585_213">
      <rect width="17" height="17" fill="white"/>
    </clipPath>
  </defs>
</svg>