<svg width="22" height="22" viewBox="0 0 22 22" fill="none" xmlns="http://www.w3.org/2000/svg">
<g clip-path="url(#clip0_673_429)">
<path d="M10.0833 12.8333V20.1666H6.41659C5.68724 20.1666 4.98777 19.8769 4.47204 19.3612C3.95632 18.8455 3.66659 18.146 3.66659 17.4166V13.75C3.66659 13.5069 3.76316 13.2737 3.93507 13.1018C4.10698 12.9299 4.34014 12.8333 4.58325 12.8333H10.0833ZM17.4166 12.8333C17.6597 12.8333 17.8929 12.9299 18.0648 13.1018C18.2367 13.2737 18.3333 13.5069 18.3333 13.75V17.4166C18.3333 18.146 18.0435 18.8455 17.5278 19.3612C17.0121 19.8769 16.3126 20.1666 15.5833 20.1666H11.9166V12.8333H17.4166ZM15.1249 1.8333C15.6662 1.83319 16.1988 1.97004 16.6729 2.23111C17.1471 2.49217 17.5476 2.86897 17.8369 3.32643C18.1263 3.78388 18.2953 4.30712 18.328 4.84743C18.3608 5.38775 18.2563 5.92756 18.0243 6.41664H18.3333C18.8195 6.41664 19.2858 6.60979 19.6296 6.95361C19.9734 7.29742 20.1666 7.76374 20.1666 8.24997V9.16664C20.1666 9.65287 19.9734 10.1192 19.6296 10.463C19.2858 10.8068 18.8195 11 18.3333 11H11.9166V6.41664H10.0833V11H3.66659C3.18036 11 2.71404 10.8068 2.37022 10.463C2.02641 10.1192 1.83325 9.65287 1.83325 9.16664V8.24997C1.83325 7.76374 2.02641 7.29742 2.37022 6.95361C2.71404 6.60979 3.18036 6.41664 3.66659 6.41664H3.9755C3.77149 5.987 3.66595 5.51725 3.66659 5.04164C3.66659 3.26972 5.103 1.8333 6.85934 1.8333C8.46809 1.8058 9.89534 2.8343 10.8753 4.5228L10.9999 4.74555C11.9468 2.99105 13.3466 1.89105 14.9333 1.83514L15.1249 1.8333ZM6.87492 3.66664C6.51025 3.66664 6.16051 3.8115 5.90265 4.06936C5.64478 4.32723 5.49992 4.67696 5.49992 5.04164C5.49992 5.40631 5.64478 5.75604 5.90265 6.01391C6.16051 6.27177 6.51025 6.41664 6.87492 6.41664H9.756C9.07675 4.67039 7.96942 3.6483 6.87492 3.66664ZM15.1093 3.66664C14.0277 3.6483 12.9231 4.6713 12.2438 6.41664H15.1249C15.4896 6.41457 15.8385 6.26772 16.0949 6.0084C16.3513 5.74907 16.4942 5.39852 16.4921 5.03384C16.4901 4.66917 16.3432 4.32026 16.0839 4.06385C15.8246 3.80745 15.474 3.66457 15.1093 3.66664Z" fill="white"/>
</g>
<defs>
<clipPath id="clip0_673_429">
<rect width="22" height="22" fill="white"/>
</clipPath>
</defs>
</svg>
