<svg xmlns="http://www.w3.org/2000/svg" width="17" height="17" viewBox="0 0 17 17" fill="none">
  <g clip-path="url(#clip0_585_207)">
    <path d="M7.79169 9.91667V15.5833H4.95835C4.39477 15.5833 3.85427 15.3595 3.45575 14.9609C3.05724 14.5624 2.83335 14.0219 2.83335 13.4583V10.625C2.83335 10.4371 2.90798 10.257 3.04082 10.1241C3.17366 9.9913 3.35383 9.91667 3.54169 9.91667H7.79169ZM13.4584 9.91667C13.6462 9.91667 13.8264 9.9913 13.9592 10.1241C14.0921 10.257 14.1667 10.4371 14.1667 10.625V13.4583C14.1667 14.0219 13.9428 14.5624 13.5443 14.9609C13.1458 15.3595 12.6053 15.5833 12.0417 15.5833H9.20835V9.91667H13.4584ZM11.6875 1.41668C12.1058 1.41659 12.5173 1.52234 12.8837 1.72407C13.2501 1.9258 13.5596 2.21697 13.7832 2.57046C14.0068 2.92394 14.1373 3.32826 14.1627 3.74578C14.188 4.16329 14.1072 4.58042 13.928 4.95834H14.1667C14.5424 4.95834 14.9027 5.1076 15.1684 5.37327C15.4341 5.63895 15.5834 5.99929 15.5834 6.37501V7.08334C15.5834 7.45906 15.4341 7.8194 15.1684 8.08508C14.9027 8.35075 14.5424 8.50001 14.1667 8.50001H9.20835V4.95834H7.79169V8.50001H2.83335C2.45763 8.50001 2.0973 8.35075 1.83162 8.08508C1.56594 7.8194 1.41669 7.45906 1.41669 7.08334V6.37501C1.41669 5.99929 1.56594 5.63895 1.83162 5.37327C2.0973 5.1076 2.45763 4.95834 2.83335 4.95834H3.07206C2.91441 4.62635 2.83286 4.26336 2.83335 3.89584C2.83335 2.52663 3.94331 1.41668 5.30048 1.41668C6.5436 1.39543 7.64648 2.19018 8.40369 3.49493L8.50002 3.66705C9.23173 2.3113 10.3134 1.4613 11.5395 1.41809L11.6875 1.41668ZM5.31252 2.83334C5.03073 2.83334 4.76048 2.94528 4.56122 3.14454C4.36196 3.3438 4.25002 3.61405 4.25002 3.89584C4.25002 4.17763 4.36196 4.44789 4.56122 4.64714C4.76048 4.8464 5.03073 4.95834 5.31252 4.95834H7.53881C7.01394 3.60897 6.15827 2.81918 5.31252 2.83334ZM11.6755 2.83334C10.8396 2.81918 9.9861 3.60968 9.46123 4.95834H11.6875C11.9693 4.95675 12.2389 4.84327 12.4371 4.64289C12.6352 4.4425 12.7456 4.17161 12.744 3.88982C12.7424 3.60803 12.6289 3.33841 12.4285 3.14028C12.2282 2.94216 11.9573 2.83175 11.6755 2.83334Z" fill="white" fill-opacity="0.5"/>
  </g>
  <defs>
    <clipPath id="clip0_585_207">
      <rect width="17" height="17" fill="white"/>
    </clipPath>
  </defs>
</svg>