<svg width="20" height="20" viewBox="0 0 20 20" fill="none" xmlns="http://www.w3.org/2000/svg">
<g clip-path="url(#clip0_689_108)">
<path d="M19.1477 7.08592L17.4238 5.36209C17.2847 5.22489 17.0993 5.14477 16.9041 5.13754C16.7088 5.13031 16.518 5.19649 16.3691 5.32303C16.1393 5.51863 15.8444 5.62076 15.5429 5.60919C15.2413 5.59761 14.9551 5.47317 14.741 5.26053C14.5285 5.04642 14.4041 4.7603 14.3925 4.45884C14.381 4.15738 14.483 3.86257 14.6785 3.6328C14.8051 3.48395 14.8712 3.29309 14.864 3.09786C14.8568 2.90263 14.7767 2.71719 14.6395 2.57811L12.9141 0.852327C12.7683 0.706796 12.5707 0.625061 12.3646 0.625061C12.1586 0.625061 11.961 0.706796 11.8152 0.852327L9.06719 3.59998C8.89752 3.77025 8.76957 3.97749 8.69336 4.20545C8.67852 4.24928 8.65378 4.2891 8.62106 4.32182C8.58834 4.35454 8.54852 4.37928 8.50469 4.39412C8.27663 4.47034 8.06937 4.59844 7.89922 4.76834L0.852343 11.8152C0.706811 11.961 0.625076 12.1586 0.625076 12.3646C0.625076 12.5706 0.706811 12.7682 0.852343 12.914L2.57812 14.6379C2.7172 14.7751 2.90264 14.8552 3.09787 14.8624C3.29311 14.8697 3.48396 14.8035 3.63281 14.6769C3.86206 14.4798 4.15736 14.3765 4.45954 14.3878C4.76171 14.3992 5.04843 14.5243 5.26225 14.7381C5.47607 14.9519 5.60119 15.2387 5.61254 15.5408C5.62388 15.843 5.52062 16.1383 5.32344 16.3676C5.1969 16.5164 5.13072 16.7073 5.13795 16.9025C5.14518 17.0977 5.22529 17.2832 5.3625 17.4222L7.08633 19.1461C7.23214 19.2916 7.42973 19.3733 7.63574 19.3733C7.84175 19.3733 8.03934 19.2916 8.18515 19.1461L15.232 12.0992C15.4018 11.9291 15.5299 11.722 15.6062 11.4941C15.621 11.4502 15.6458 11.4102 15.6786 11.3774C15.7114 11.3446 15.7513 11.3198 15.7953 11.3051C16.0232 11.2288 16.2303 11.1009 16.4004 10.9312L19.148 8.18319C19.293 8.03739 19.3744 7.8401 19.3743 7.63447C19.3743 7.42885 19.2928 7.23162 19.1477 7.08592ZM10.227 5.92772C10.1689 5.98577 10.1 6.03182 10.0242 6.06324C9.94833 6.09466 9.86705 6.11083 9.78496 6.11083C9.70287 6.11083 9.62159 6.09466 9.54575 6.06324C9.46991 6.03182 9.40101 5.98577 9.34297 5.92772L8.89336 5.47811C8.779 5.36031 8.71559 5.20224 8.71683 5.03807C8.71806 4.87389 8.78385 4.7168 8.89996 4.60073C9.01608 4.48467 9.1732 4.41895 9.33738 4.41779C9.50155 4.41662 9.65959 4.48011 9.77734 4.59452L10.227 5.04373C10.285 5.10177 10.3311 5.17068 10.3625 5.24652C10.3939 5.32235 10.4101 5.40364 10.4101 5.48573C10.4101 5.56781 10.3939 5.6491 10.3625 5.72494C10.3311 5.80077 10.285 5.86968 10.227 5.92772ZM11.9457 7.64647C11.8285 7.76359 11.6696 7.82938 11.5039 7.82938C11.3382 7.82938 11.1793 7.76359 11.0621 7.64647L10.6324 7.21678C10.5152 7.09956 10.4493 6.94057 10.4493 6.77479C10.4493 6.60901 10.5152 6.45002 10.6324 6.3328C10.7496 6.21557 10.9086 6.14972 11.0744 6.14972C11.2402 6.14972 11.3992 6.21557 11.5164 6.3328L11.9461 6.76248C12.0043 6.82052 12.0506 6.88948 12.0821 6.96541C12.1137 7.04134 12.1299 7.12275 12.13 7.20498C12.13 7.28721 12.1138 7.36864 12.0823 7.44459C12.0509 7.52055 12.0047 7.58955 11.9465 7.64764L11.9457 7.64647ZM13.6645 9.36522C13.6064 9.42327 13.5375 9.46932 13.4617 9.50074C13.3858 9.53216 13.3045 9.54833 13.2225 9.54833C13.1404 9.54833 13.0591 9.53216 12.9832 9.50074C12.9074 9.46932 12.8385 9.42327 12.7805 9.36522L12.3508 8.93553C12.2364 8.81773 12.173 8.65966 12.1742 8.49549C12.1755 8.33131 12.2413 8.17422 12.3574 8.05815C12.4735 7.94209 12.6306 7.87637 12.7948 7.87521C12.959 7.87405 13.117 7.93753 13.2348 8.05194L13.6645 8.48162C13.7229 8.53956 13.7693 8.60846 13.801 8.68438C13.8327 8.76029 13.8491 8.84172 13.8493 8.92399C13.8495 9.00627 13.8334 9.08777 13.802 9.16382C13.7707 9.23987 13.7246 9.30898 13.6664 9.36717L13.6645 9.36522ZM15.4 11.1051C15.342 11.1631 15.2731 11.2092 15.1972 11.2406C15.1214 11.272 15.0401 11.2882 14.958 11.2882C14.8759 11.2882 14.7946 11.272 14.7188 11.2406C14.643 11.2092 14.5741 11.1631 14.516 11.1051L14.0691 10.6558C14.0099 10.598 13.9627 10.5289 13.9304 10.4526C13.898 10.3764 13.8812 10.2945 13.8808 10.2116C13.8804 10.1288 13.8964 10.0467 13.9281 9.97014C13.9597 9.89357 14.0062 9.82405 14.0649 9.76562C14.1236 9.70719 14.1933 9.66102 14.2701 9.62978C14.3468 9.59854 14.4289 9.58287 14.5118 9.58367C14.5946 9.58447 14.6765 9.60172 14.7526 9.63443C14.8287 9.66714 14.8975 9.71465 14.9551 9.7742L15.4023 10.223C15.4604 10.2811 15.5064 10.35 15.5378 10.4259C15.5692 10.5017 15.5853 10.583 15.5853 10.6651C15.5852 10.7472 15.569 10.8285 15.5376 10.9043C15.5061 10.9801 15.46 11.049 15.402 11.107L15.4 11.1051Z" fill="white"/>
</g>
<defs>
<clipPath id="clip0_689_108">
<rect width="20" height="20" fill="white"/>
</clipPath>
</defs>
</svg>
