<svg width="266" height="30" viewBox="0 0 266 30" fill="none" xmlns="http://www.w3.org/2000/svg">
<mask id="path-1-outside-1_955_205" maskUnits="userSpaceOnUse" x="0" y="0" width="266" height="30" fill="black">
<rect fill="white" width="266" height="30"/>
<path d="M21.2 0.999998V7.16H14V29H7.6V7.16H0.4V0.999998H21.2ZM46.08 25.36C43.2533 28.16 39.8133 29.56 35.76 29.56C31.7067 29.56 28.2667 28.16 25.44 25.36C22.6133 22.56 21.2 19.1067 21.2 15C21.2 10.8933 22.6133 7.44 25.44 4.64C28.2667 1.84 31.7067 0.439998 35.76 0.439998C39.8133 0.439998 43.2533 1.84 46.08 4.64C48.9067 7.44 50.32 10.8933 50.32 15C50.32 19.1067 48.9067 22.56 46.08 25.36ZM29.92 21C31.4933 22.5467 33.44 23.32 35.76 23.32C38.08 23.32 40.0133 22.5467 41.56 21C43.1333 19.4533 43.92 17.4533 43.92 15C43.92 12.5467 43.1333 10.5467 41.56 9C40.0133 7.45333 38.08 6.68 35.76 6.68C33.44 6.68 31.4933 7.45333 29.92 9C28.3733 10.5467 27.6 12.5467 27.6 15C27.6 17.4533 28.3733 19.4533 29.92 21ZM75.1234 0.999998V29H68.7234V7.16H60.3234V29H53.9234V0.999998H75.1234ZM105.539 29V13.8L94.7391 29H89.9391V0.999998H96.3391V16.2L107.139 0.999998H111.939V29H105.539ZM132.736 0.999998V7.16H123.136V29H116.736V0.999998H132.736ZM146.125 0.999998C148.872 0.999998 151.192 1.93333 153.085 3.8C154.978 5.66667 155.925 7.93333 155.925 10.6C155.925 13.2667 154.978 15.5333 153.085 17.4C151.192 19.2667 148.872 20.2 146.125 20.2H141.925V29H135.525V0.999998H146.125ZM146.125 14.2C147.112 14.2 147.925 13.8533 148.565 13.16C149.205 12.4667 149.525 11.6133 149.525 10.6C149.525 9.58667 149.205 8.73333 148.565 8.04C147.925 7.34667 147.112 7 146.125 7H141.925V14.2H146.125ZM182.603 25.36C179.777 28.16 176.337 29.56 172.283 29.56C168.23 29.56 164.79 28.16 161.963 25.36C159.137 22.56 157.723 19.1067 157.723 15C157.723 10.8933 159.137 7.44 161.963 4.64C164.79 1.84 168.23 0.439998 172.283 0.439998C176.337 0.439998 179.777 1.84 182.603 4.64C185.43 7.44 186.843 10.8933 186.843 15C186.843 19.1067 185.43 22.56 182.603 25.36ZM166.443 21C168.017 22.5467 169.963 23.32 172.283 23.32C174.603 23.32 176.537 22.5467 178.083 21C179.657 19.4533 180.443 17.4533 180.443 15C180.443 12.5467 179.657 10.5467 178.083 9C176.537 7.45333 174.603 6.68 172.283 6.68C169.963 6.68 168.017 7.45333 166.443 9C164.897 10.5467 164.123 12.5467 164.123 15C164.123 17.4533 164.897 19.4533 166.443 21ZM213.087 29H205.807L196.847 16.04V29H190.447V0.999998H196.847V13.16L205.407 0.999998H212.687L203.247 14.64L213.087 29ZM236.783 25.36C233.956 28.16 230.516 29.56 226.463 29.56C222.41 29.56 218.97 28.16 216.143 25.36C213.316 22.56 211.903 19.1067 211.903 15C211.903 10.8933 213.316 7.44 216.143 4.64C218.97 1.84 222.41 0.439998 226.463 0.439998C230.516 0.439998 233.956 1.84 236.783 4.64C239.61 7.44 241.023 10.8933 241.023 15C241.023 19.1067 239.61 22.56 236.783 25.36ZM220.623 21C222.196 22.5467 224.143 23.32 226.463 23.32C228.783 23.32 230.716 22.5467 232.263 21C233.836 19.4533 234.623 17.4533 234.623 15C234.623 12.5467 233.836 10.5467 232.263 9C230.716 7.45333 228.783 6.68 226.463 6.68C224.143 6.68 222.196 7.45333 220.623 9C219.076 10.5467 218.303 12.5467 218.303 15C218.303 17.4533 219.076 19.4533 220.623 21ZM261.987 14.48C264.28 15.9467 265.427 18.0533 265.427 20.8C265.427 23.2267 264.56 25.2 262.827 26.72C261.093 28.24 258.947 29 256.387 29H244.627V0.999998H255.587C258.093 0.999998 260.187 1.74666 261.867 3.24C263.573 4.70666 264.427 6.62667 264.427 9C264.427 11.24 263.613 13.0667 261.987 14.48ZM255.587 7H251.027V11.96H255.587C256.307 11.96 256.893 11.7333 257.347 11.28C257.8 10.8 258.027 10.2 258.027 9.48C258.027 8.76 257.8 8.17333 257.347 7.72C256.893 7.24 256.307 7 255.587 7ZM256.387 23C257.187 23 257.827 22.76 258.307 22.28C258.787 21.7733 259.027 21.12 259.027 20.32C259.027 19.52 258.787 18.88 258.307 18.4C257.827 17.8933 257.187 17.64 256.387 17.64H251.027V23H256.387Z"/>
</mask>
<path d="M21.2 0.999998H21.5V0.699998H21.2V0.999998ZM21.2 7.16V7.46H21.5V7.16H21.2ZM14 7.16V6.86H13.7V7.16H14ZM14 29V29.3H14.3V29H14ZM7.6 29H7.3V29.3H7.6V29ZM7.6 7.16H7.9V6.86H7.6V7.16ZM0.4 7.16H0.1V7.46H0.4V7.16ZM0.4 0.999998V0.699998H0.1V0.999998H0.4ZM20.9 0.999998V7.16H21.5V0.999998H20.9ZM21.2 6.86H14V7.46H21.2V6.86ZM13.7 7.16V29H14.3V7.16H13.7ZM14 28.7H7.6V29.3H14V28.7ZM7.9 29V7.16H7.3V29H7.9ZM7.6 6.86H0.4V7.46H7.6V6.86ZM0.7 7.16V0.999998H0.1V7.16H0.7ZM0.4 1.3H21.2V0.699998H0.4V1.3ZM46.08 25.36L45.8689 25.1469L46.08 25.36ZM25.44 25.36L25.6511 25.1469L25.44 25.36ZM29.92 21L29.7079 21.2121L29.7097 21.2139L29.92 21ZM41.56 21L41.3497 20.7861L41.3479 20.7879L41.56 21ZM41.56 9L41.3479 9.21214L41.3497 9.21394L41.56 9ZM29.92 9L29.7097 8.78605L29.7079 8.78787L29.92 9ZM45.8689 25.1469C43.0996 27.8901 39.7359 29.26 35.76 29.26V29.86C39.8907 29.86 43.4071 28.4299 46.2911 25.5731L45.8689 25.1469ZM35.76 29.26C31.7841 29.26 28.4204 27.8901 25.6511 25.1469L25.2289 25.5731C28.1129 28.4299 31.6293 29.86 35.76 29.86V29.26ZM25.6511 25.1469C22.8834 22.4052 21.5 19.0295 21.5 15H20.9C20.9 19.1838 22.3433 22.7148 25.2289 25.5731L25.6511 25.1469ZM21.5 15C21.5 10.9705 22.8834 7.5948 25.6511 4.85313L25.2289 4.42686C22.3433 7.2852 20.9 10.8162 20.9 15H21.5ZM25.6511 4.85313C28.4204 2.10994 31.7841 0.739998 35.76 0.739998V0.139998C31.6293 0.139998 28.1129 1.57006 25.2289 4.42686L25.6511 4.85313ZM35.76 0.739998C39.7359 0.739998 43.0996 2.10994 45.8689 4.85313L46.2911 4.42686C43.4071 1.57006 39.8907 0.139998 35.76 0.139998V0.739998ZM45.8689 4.85313C48.6367 7.5948 50.02 10.9705 50.02 15H50.62C50.62 10.8162 49.1767 7.2852 46.2911 4.42686L45.8689 4.85313ZM50.02 15C50.02 19.0295 48.6367 22.4052 45.8689 25.1469L46.2911 25.5731C49.1767 22.7148 50.62 19.1838 50.62 15H50.02ZM29.7097 21.2139C31.3423 22.8188 33.3658 23.62 35.76 23.62V23.02C33.5142 23.02 31.6444 22.2745 30.1303 20.7861L29.7097 21.2139ZM35.76 23.62C38.1542 23.62 40.1655 22.8187 41.7721 21.2121L41.3479 20.7879C39.8611 22.2746 38.0058 23.02 35.76 23.02V23.62ZM41.7703 21.2139C43.4077 19.6043 44.22 17.5239 44.22 15H43.62C43.62 17.3828 42.859 19.3024 41.3497 20.7861L41.7703 21.2139ZM44.22 15C44.22 12.4761 43.4077 10.3957 41.7703 8.78606L41.3497 9.21394C42.859 10.6976 43.62 12.6172 43.62 15H44.22ZM41.7721 8.78787C40.1655 7.18126 38.1542 6.38 35.76 6.38V6.98C38.0058 6.98 39.8611 7.7254 41.3479 9.21213L41.7721 8.78787ZM35.76 6.38C33.3658 6.38 31.3423 7.18116 29.7097 8.78606L30.1303 9.21394C31.6444 7.7255 33.5142 6.98 35.76 6.98V6.38ZM29.7079 8.78787C28.0979 10.3979 27.3 12.4777 27.3 15H27.9C27.9 12.6157 28.6488 10.6955 30.1321 9.21213L29.7079 8.78787ZM27.3 15C27.3 17.5223 28.0979 19.6021 29.7079 21.2121L30.1321 20.7879C28.6488 19.3045 27.9 17.3843 27.9 15H27.3ZM75.1234 0.999998H75.4234V0.699998H75.1234V0.999998ZM75.1234 29V29.3H75.4234V29H75.1234ZM68.7234 29H68.4234V29.3H68.7234V29ZM68.7234 7.16H69.0234V6.86H68.7234V7.16ZM60.3234 7.16V6.86H60.0234V7.16H60.3234ZM60.3234 29V29.3H60.6234V29H60.3234ZM53.9234 29H53.6234V29.3H53.9234V29ZM53.9234 0.999998V0.699998H53.6234V0.999998H53.9234ZM74.8234 0.999998V29H75.4234V0.999998H74.8234ZM75.1234 28.7H68.7234V29.3H75.1234V28.7ZM69.0234 29V7.16H68.4234V29H69.0234ZM68.7234 6.86H60.3234V7.46H68.7234V6.86ZM60.0234 7.16V29H60.6234V7.16H60.0234ZM60.3234 28.7H53.9234V29.3H60.3234V28.7ZM54.2234 29V0.999998H53.6234V29H54.2234ZM53.9234 1.3H75.1234V0.699998H53.9234V1.3ZM105.539 29H105.239V29.3H105.539V29ZM105.539 13.8H105.839V12.8598L105.295 13.6262L105.539 13.8ZM94.7391 29V29.3H94.8939L94.9836 29.1738L94.7391 29ZM89.9391 29H89.6391V29.3H89.9391V29ZM89.9391 0.999998V0.699998H89.6391V0.999998H89.9391ZM96.3391 0.999998H96.6391V0.699998H96.3391V0.999998ZM96.3391 16.2H96.0391V17.1402L96.5836 16.3738L96.3391 16.2ZM107.139 0.999998V0.699998H106.984L106.895 0.826236L107.139 0.999998ZM111.939 0.999998H112.239V0.699998H111.939V0.999998ZM111.939 29V29.3H112.239V29H111.939ZM105.839 29V13.8H105.239V29H105.839ZM105.295 13.6262L94.4945 28.8262L94.9836 29.1738L105.784 13.9738L105.295 13.6262ZM94.7391 28.7H89.9391V29.3H94.7391V28.7ZM90.2391 29V0.999998H89.6391V29H90.2391ZM89.9391 1.3H96.3391V0.699998H89.9391V1.3ZM96.0391 0.999998V16.2H96.6391V0.999998H96.0391ZM96.5836 16.3738L107.384 1.17376L106.895 0.826236L96.0945 16.0262L96.5836 16.3738ZM107.139 1.3H111.939V0.699998H107.139V1.3ZM111.639 0.999998V29H112.239V0.999998H111.639ZM111.939 28.7H105.539V29.3H111.939V28.7ZM132.736 0.999998H133.036V0.699998H132.736V0.999998ZM132.736 7.16V7.46H133.036V7.16H132.736ZM123.136 7.16V6.86H122.836V7.16H123.136ZM123.136 29V29.3H123.436V29H123.136ZM116.736 29H116.436V29.3H116.736V29ZM116.736 0.999998V0.699998H116.436V0.999998H116.736ZM132.436 0.999998V7.16H133.036V0.999998H132.436ZM132.736 6.86H123.136V7.46H132.736V6.86ZM122.836 7.16V29H123.436V7.16H122.836ZM123.136 28.7H116.736V29.3H123.136V28.7ZM117.036 29V0.999998H116.436V29H117.036ZM116.736 1.3H132.736V0.699998H116.736V1.3ZM153.085 3.8L153.296 3.58637L153.085 3.8ZM153.085 17.4L152.874 17.1864V17.1864L153.085 17.4ZM141.925 20.2V19.9H141.625V20.2H141.925ZM141.925 29V29.3H142.225V29H141.925ZM135.525 29H135.225V29.3H135.525V29ZM135.525 0.999998V0.699998H135.225V0.999998H135.525ZM148.565 13.16L148.345 12.9565L148.565 13.16ZM148.565 8.04L148.785 7.83651L148.565 8.04ZM141.925 7V6.7H141.625V7H141.925ZM141.925 14.2H141.625V14.5H141.925V14.2ZM146.125 1.3C148.796 1.3 151.039 2.20431 152.874 4.01363L153.296 3.58637C151.344 1.66235 148.948 0.699998 146.125 0.699998V1.3ZM152.874 4.01363C154.71 5.82373 155.625 8.01337 155.625 10.6H156.225C156.225 7.8533 155.246 5.5096 153.296 3.58637L152.874 4.01363ZM155.625 10.6C155.625 13.1866 154.71 15.3763 152.874 17.1864L153.296 17.6136C155.246 15.6904 156.225 13.3467 156.225 10.6H155.625ZM152.874 17.1864C151.039 18.9957 148.796 19.9 146.125 19.9V20.5C148.948 20.5 151.344 19.5376 153.296 17.6136L152.874 17.1864ZM146.125 19.9H141.925V20.5H146.125V19.9ZM141.625 20.2V29H142.225V20.2H141.625ZM141.925 28.7H135.525V29.3H141.925V28.7ZM135.825 29V0.999998H135.225V29H135.825ZM135.525 1.3H146.125V0.699998H135.525V1.3ZM146.125 14.5C147.191 14.5 148.086 14.1214 148.785 13.3635L148.345 12.9565C147.764 13.5852 147.032 13.9 146.125 13.9V14.5ZM148.785 13.3635C149.481 12.6104 149.825 11.6827 149.825 10.6H149.225C149.225 11.544 148.929 12.3229 148.345 12.9565L148.785 13.3635ZM149.825 10.6C149.825 9.51734 149.481 8.58958 148.785 7.83651L148.345 8.24348C148.929 8.87708 149.225 9.65599 149.225 10.6H149.825ZM148.785 7.83651C148.086 7.07855 147.191 6.7 146.125 6.7V7.3C147.032 7.3 147.764 7.61478 148.345 8.24348L148.785 7.83651ZM146.125 6.7H141.925V7.3H146.125V6.7ZM141.625 7V14.2H142.225V7H141.625ZM141.925 14.5H146.125V13.9H141.925V14.5ZM182.603 25.36L182.392 25.1469L182.603 25.36ZM161.963 25.36L162.175 25.1469L161.963 25.36ZM166.443 21L166.231 21.2121L166.233 21.2139L166.443 21ZM178.083 21L177.873 20.7861L177.871 20.7879L178.083 21ZM178.083 9L177.871 9.21214L177.873 9.21394L178.083 9ZM166.443 9L166.233 8.78605L166.231 8.78787L166.443 9ZM182.392 25.1469C179.623 27.8901 176.259 29.26 172.283 29.26V29.86C176.414 29.86 179.931 28.4299 182.815 25.5731L182.392 25.1469ZM172.283 29.26C168.308 29.26 164.944 27.8901 162.175 25.1469L161.752 25.5731C164.636 28.4299 168.153 29.86 172.283 29.86V29.26ZM162.175 25.1469C159.407 22.4052 158.023 19.0295 158.023 15H157.423C157.423 19.1838 158.867 22.7148 161.752 25.5731L162.175 25.1469ZM158.023 15C158.023 10.9705 159.407 7.5948 162.175 4.85313L161.752 4.42686C158.867 7.2852 157.423 10.8162 157.423 15H158.023ZM162.175 4.85313C164.944 2.10994 168.308 0.739998 172.283 0.739998V0.139998C168.153 0.139998 164.636 1.57006 161.752 4.42686L162.175 4.85313ZM172.283 0.739998C176.259 0.739998 179.623 2.10994 182.392 4.85313L182.815 4.42686C179.931 1.57006 176.414 0.139998 172.283 0.139998V0.739998ZM182.392 4.85313C185.16 7.5948 186.543 10.9705 186.543 15H187.143C187.143 10.8162 185.7 7.2852 182.815 4.42686L182.392 4.85313ZM186.543 15C186.543 19.0295 185.16 22.4052 182.392 25.1469L182.815 25.5731C185.7 22.7148 187.143 19.1838 187.143 15H186.543ZM166.233 21.2139C167.866 22.8188 169.889 23.62 172.283 23.62V23.02C170.038 23.02 168.168 22.2745 166.654 20.7861L166.233 21.2139ZM172.283 23.62C174.678 23.62 176.689 22.8187 178.296 21.2121L177.871 20.7879C176.385 22.2746 174.529 23.02 172.283 23.02V23.62ZM178.294 21.2139C179.931 19.6043 180.743 17.5239 180.743 15H180.143C180.143 17.3828 179.382 19.3024 177.873 20.7861L178.294 21.2139ZM180.743 15C180.743 12.4761 179.931 10.3957 178.294 8.78606L177.873 9.21394C179.382 10.6976 180.143 12.6172 180.143 15H180.743ZM178.296 8.78787C176.689 7.18126 174.678 6.38 172.283 6.38V6.98C174.529 6.98 176.385 7.7254 177.871 9.21213L178.296 8.78787ZM172.283 6.38C169.889 6.38 167.866 7.18116 166.233 8.78606L166.654 9.21394C168.168 7.7255 170.038 6.98 172.283 6.98V6.38ZM166.231 8.78787C164.621 10.3979 163.823 12.4777 163.823 15H164.423C164.423 12.6157 165.172 10.6955 166.656 9.21213L166.231 8.78787ZM163.823 15C163.823 17.5223 164.621 19.6021 166.231 21.2121L166.656 20.7879C165.172 19.3045 164.423 17.3843 164.423 15H163.823ZM213.087 29V29.3H213.656L213.334 28.8304L213.087 29ZM205.807 29L205.56 29.1706L205.65 29.3H205.807V29ZM196.847 16.04L197.094 15.8694L196.547 15.0785V16.04H196.847ZM196.847 29V29.3H197.147V29H196.847ZM190.447 29H190.147V29.3H190.447V29ZM190.447 0.999998V0.699998H190.147V0.999998H190.447ZM196.847 0.999998H197.147V0.699998H196.847V0.999998ZM196.847 13.16H196.547V14.1073L197.092 13.3327L196.847 13.16ZM205.407 0.999998V0.699998H205.251L205.162 0.827311L205.407 0.999998ZM212.687 0.999998L212.934 1.17072L213.259 0.699998H212.687V0.999998ZM203.247 14.64L203 14.4693L202.883 14.6392L202.999 14.8096L203.247 14.64ZM213.087 28.7H205.807V29.3H213.087V28.7ZM206.054 28.8294L197.094 15.8694L196.6 16.2106L205.56 29.1706L206.054 28.8294ZM196.547 16.04V29H197.147V16.04H196.547ZM196.847 28.7H190.447V29.3H196.847V28.7ZM190.747 29V0.999998H190.147V29H190.747ZM190.447 1.3H196.847V0.699998H190.447V1.3ZM196.547 0.999998V13.16H197.147V0.999998H196.547ZM197.092 13.3327L205.652 1.17269L205.162 0.827311L196.602 12.9873L197.092 13.3327ZM205.407 1.3H212.687V0.699998H205.407V1.3ZM212.44 0.829272L203 14.4693L203.494 14.8107L212.934 1.17072L212.44 0.829272ZM202.999 14.8096L212.839 29.1696L213.334 28.8304L203.494 14.4704L202.999 14.8096ZM236.783 25.36L236.572 25.1469L236.783 25.36ZM216.143 25.36L216.354 25.1469L216.143 25.36ZM220.623 21L220.411 21.2121L220.413 21.2139L220.623 21ZM232.263 21L232.053 20.7861L232.051 20.7879L232.263 21ZM232.263 9L232.051 9.21214L232.053 9.21394L232.263 9ZM220.623 9L220.413 8.78605L220.411 8.78787L220.623 9ZM236.572 25.1469C233.803 27.8901 230.439 29.26 226.463 29.26V29.86C230.594 29.86 234.11 28.4299 236.994 25.5731L236.572 25.1469ZM226.463 29.26C222.487 29.26 219.124 27.8901 216.354 25.1469L215.932 25.5731C218.816 28.4299 222.332 29.86 226.463 29.86V29.26ZM216.354 25.1469C213.586 22.4052 212.203 19.0295 212.203 15H211.603C211.603 19.1838 213.046 22.7148 215.932 25.5731L216.354 25.1469ZM212.203 15C212.203 10.9705 213.586 7.5948 216.354 4.85313L215.932 4.42686C213.046 7.2852 211.603 10.8162 211.603 15H212.203ZM216.354 4.85313C219.124 2.10994 222.487 0.739998 226.463 0.739998V0.139998C222.332 0.139998 218.816 1.57006 215.932 4.42686L216.354 4.85313ZM226.463 0.739998C230.439 0.739998 233.803 2.10994 236.572 4.85313L236.994 4.42686C234.11 1.57006 230.594 0.139998 226.463 0.139998V0.739998ZM236.572 4.85313C239.34 7.5948 240.723 10.9705 240.723 15H241.323C241.323 10.8162 239.88 7.2852 236.994 4.42686L236.572 4.85313ZM240.723 15C240.723 19.0295 239.34 22.4052 236.572 25.1469L236.994 25.5731C239.88 22.7148 241.323 19.1838 241.323 15H240.723ZM220.413 21.2139C222.045 22.8188 224.069 23.62 226.463 23.62V23.02C224.217 23.02 222.348 22.2745 220.833 20.7861L220.413 21.2139ZM226.463 23.62C228.857 23.62 230.869 22.8187 232.475 21.2121L232.051 20.7879C230.564 22.2746 228.709 23.02 226.463 23.02V23.62ZM232.473 21.2139C234.111 19.6043 234.923 17.5239 234.923 15H234.323C234.323 17.3828 233.562 19.3024 232.053 20.7861L232.473 21.2139ZM234.923 15C234.923 12.4761 234.111 10.3957 232.473 8.78606L232.053 9.21394C233.562 10.6976 234.323 12.6172 234.323 15H234.923ZM232.475 8.78787C230.869 7.18126 228.857 6.38 226.463 6.38V6.98C228.709 6.98 230.564 7.7254 232.051 9.21213L232.475 8.78787ZM226.463 6.38C224.069 6.38 222.045 7.18116 220.413 8.78606L220.833 9.21394C222.348 7.7255 224.217 6.98 226.463 6.98V6.38ZM220.411 8.78787C218.801 10.3979 218.003 12.4777 218.003 15H218.603C218.603 12.6157 219.352 10.6955 220.835 9.21213L220.411 8.78787ZM218.003 15C218.003 17.5223 218.801 19.6021 220.411 21.2121L220.835 20.7879C219.352 19.3045 218.603 17.3843 218.603 15H218.003ZM261.987 14.48L261.79 14.2535L261.487 14.5166L261.825 14.7327L261.987 14.48ZM262.827 26.72L263.024 26.9456L262.827 26.72ZM244.627 29H244.327V29.3H244.627V29ZM244.627 0.999998V0.699998H244.327V0.999998H244.627ZM261.867 3.24L261.667 3.46425L261.671 3.46752L261.867 3.24ZM251.027 7V6.7H250.727V7H251.027ZM251.027 11.96H250.727V12.26H251.027V11.96ZM257.347 11.28L257.559 11.4922L257.565 11.486L257.347 11.28ZM257.347 7.72L257.128 7.92607L257.134 7.93213L257.347 7.72ZM258.307 22.28L258.519 22.4922L258.524 22.4863L258.307 22.28ZM258.307 18.4L258.089 18.6064L258.094 18.6121L258.307 18.4ZM251.027 17.64V17.34H250.727V17.64H251.027ZM251.027 23H250.727V23.3H251.027V23ZM261.825 14.7327C264.031 16.1437 265.127 18.1545 265.127 20.8H265.727C265.727 17.9521 264.529 15.7497 262.148 14.2273L261.825 14.7327ZM265.127 20.8C265.127 23.1454 264.293 25.0347 262.629 26.4944L263.024 26.9456C264.826 25.3653 265.727 23.3079 265.727 20.8H265.127ZM262.629 26.4944C260.956 27.9611 258.882 28.7 256.387 28.7V29.3C259.011 29.3 261.23 28.5189 263.024 26.9456L262.629 26.4944ZM256.387 28.7H244.627V29.3H256.387V28.7ZM244.927 29V0.999998H244.327V29H244.927ZM244.627 1.3H255.587V0.699998H244.627V1.3ZM255.587 1.3C258.029 1.3 260.049 2.02543 261.667 3.46422L262.066 3.01577C260.325 1.4679 258.158 0.699998 255.587 0.699998V1.3ZM261.671 3.46752C263.307 4.87374 264.127 6.70866 264.127 9H264.727C264.727 6.54467 263.839 4.53959 262.062 3.01247L261.671 3.46752ZM264.127 9C264.127 11.157 263.348 12.8997 261.79 14.2535L262.183 14.7065C263.878 13.2336 264.727 11.323 264.727 9H264.127ZM255.587 6.7H251.027V7.3H255.587V6.7ZM250.727 7V11.96H251.327V7H250.727ZM251.027 12.26H255.587V11.66H251.027V12.26ZM255.587 12.26C256.375 12.26 257.042 12.0089 257.559 11.4921L257.134 11.0679C256.745 11.4578 256.238 11.66 255.587 11.66V12.26ZM257.565 11.486C258.076 10.945 258.327 10.269 258.327 9.48H257.727C257.727 10.131 257.524 10.655 257.128 11.074L257.565 11.486ZM258.327 9.48C258.327 8.69113 258.075 8.0246 257.559 7.50787L257.134 7.93213C257.524 8.32207 257.727 8.82887 257.727 9.48H258.327ZM257.565 7.51401C257.049 6.96822 256.381 6.7 255.587 6.7V7.3C256.232 7.3 256.737 7.51177 257.128 7.92599L257.565 7.51401ZM256.387 23.3C257.251 23.3 257.972 23.0384 258.519 22.4921L258.094 22.0679C257.681 22.4816 257.122 22.7 256.387 22.7V23.3ZM258.524 22.4863C259.065 21.9157 259.327 21.1847 259.327 20.32H258.727C258.727 21.0553 258.508 21.6309 258.089 22.0737L258.524 22.4863ZM259.327 20.32C259.327 19.4557 259.065 18.7341 258.519 18.1879L258.094 18.6121C258.508 19.0259 258.727 19.5843 258.727 20.32H259.327ZM258.524 18.1937C257.979 17.6183 257.256 17.34 256.387 17.34V17.94C257.117 17.94 257.674 18.1684 258.089 18.6063L258.524 18.1937ZM256.387 17.34H251.027V17.94H256.387V17.34ZM250.727 17.64V23H251.327V17.64H250.727ZM251.027 23.3H256.387V22.7H251.027V23.3Z" fill="white" fill-opacity="0.3" mask="url(#path-1-outside-1_955_205)"/>
</svg>
