<svg width="267" height="49" viewBox="0 0 267 49" fill="none" xmlns="http://www.w3.org/2000/svg">
<mask id="path-1-outside-1_1168_2" maskUnits="userSpaceOnUse" x="0" y="9" width="266" height="30" fill="black">
<rect fill="white" y="9" width="266" height="30"/>
<path d="M21.2 10V16.16H14V38H7.6V16.16H0.4V10H21.2ZM46.08 34.36C43.2533 37.16 39.8133 38.56 35.76 38.56C31.7067 38.56 28.2667 37.16 25.44 34.36C22.6133 31.56 21.2 28.1067 21.2 24C21.2 19.8933 22.6133 16.44 25.44 13.64C28.2667 10.84 31.7067 9.44 35.76 9.44C39.8133 9.44 43.2533 10.84 46.08 13.64C48.9067 16.44 50.32 19.8933 50.32 24C50.32 28.1067 48.9067 31.56 46.08 34.36ZM29.92 30C31.4933 31.5467 33.44 32.32 35.76 32.32C38.08 32.32 40.0133 31.5467 41.56 30C43.1333 28.4533 43.92 26.4533 43.92 24C43.92 21.5467 43.1333 19.5467 41.56 18C40.0133 16.4533 38.08 15.68 35.76 15.68C33.44 15.68 31.4933 16.4533 29.92 18C28.3733 19.5467 27.6 21.5467 27.6 24C27.6 26.4533 28.3733 28.4533 29.92 30ZM75.1234 10V38H68.7234V16.16H60.3234V38H53.9234V10H75.1234ZM105.539 38V22.8L94.7391 38H89.9391V10H96.3391V25.2L107.139 10H111.939V38H105.539ZM132.736 10V16.16H123.136V38H116.736V10H132.736ZM146.125 10C148.872 10 151.192 10.9333 153.085 12.8C154.978 14.6667 155.925 16.9333 155.925 19.6C155.925 22.2667 154.978 24.5333 153.085 26.4C151.192 28.2667 148.872 29.2 146.125 29.2H141.925V38H135.525V10H146.125ZM146.125 23.2C147.112 23.2 147.925 22.8533 148.565 22.16C149.205 21.4667 149.525 20.6133 149.525 19.6C149.525 18.5867 149.205 17.7333 148.565 17.04C147.925 16.3467 147.112 16 146.125 16H141.925V23.2H146.125ZM182.603 34.36C179.777 37.16 176.337 38.56 172.283 38.56C168.23 38.56 164.79 37.16 161.963 34.36C159.137 31.56 157.723 28.1067 157.723 24C157.723 19.8933 159.137 16.44 161.963 13.64C164.79 10.84 168.23 9.44 172.283 9.44C176.337 9.44 179.777 10.84 182.603 13.64C185.43 16.44 186.843 19.8933 186.843 24C186.843 28.1067 185.43 31.56 182.603 34.36ZM166.443 30C168.017 31.5467 169.963 32.32 172.283 32.32C174.603 32.32 176.537 31.5467 178.083 30C179.657 28.4533 180.443 26.4533 180.443 24C180.443 21.5467 179.657 19.5467 178.083 18C176.537 16.4533 174.603 15.68 172.283 15.68C169.963 15.68 168.017 16.4533 166.443 18C164.897 19.5467 164.123 21.5467 164.123 24C164.123 26.4533 164.897 28.4533 166.443 30ZM213.087 38H205.807L196.847 25.04V38H190.447V10H196.847V22.16L205.407 10H212.687L203.247 23.64L213.087 38ZM236.783 34.36C233.956 37.16 230.516 38.56 226.463 38.56C222.41 38.56 218.97 37.16 216.143 34.36C213.316 31.56 211.903 28.1067 211.903 24C211.903 19.8933 213.316 16.44 216.143 13.64C218.97 10.84 222.41 9.44 226.463 9.44C230.516 9.44 233.956 10.84 236.783 13.64C239.61 16.44 241.023 19.8933 241.023 24C241.023 28.1067 239.61 31.56 236.783 34.36ZM220.623 30C222.196 31.5467 224.143 32.32 226.463 32.32C228.783 32.32 230.716 31.5467 232.263 30C233.836 28.4533 234.623 26.4533 234.623 24C234.623 21.5467 233.836 19.5467 232.263 18C230.716 16.4533 228.783 15.68 226.463 15.68C224.143 15.68 222.196 16.4533 220.623 18C219.076 19.5467 218.303 21.5467 218.303 24C218.303 26.4533 219.076 28.4533 220.623 30ZM261.987 23.48C264.28 24.9467 265.427 27.0533 265.427 29.8C265.427 32.2267 264.56 34.2 262.827 35.72C261.093 37.24 258.947 38 256.387 38H244.627V10H255.587C258.093 10 260.187 10.7467 261.867 12.24C263.573 13.7067 264.427 15.6267 264.427 18C264.427 20.24 263.613 22.0667 261.987 23.48ZM255.587 16H251.027V20.96H255.587C256.307 20.96 256.893 20.7333 257.347 20.28C257.8 19.8 258.027 19.2 258.027 18.48C258.027 17.76 257.8 17.1733 257.347 16.72C256.893 16.24 256.307 16 255.587 16ZM256.387 32C257.187 32 257.827 31.76 258.307 31.28C258.787 30.7733 259.027 30.12 259.027 29.32C259.027 28.52 258.787 27.88 258.307 27.4C257.827 26.8933 257.187 26.64 256.387 26.64H251.027V32H256.387Z"/>
</mask>
<path d="M21.2 10H21.5V9.7H21.2V10ZM21.2 16.16V16.46H21.5V16.16H21.2ZM14 16.16V15.86H13.7V16.16H14ZM14 38V38.3H14.3V38H14ZM7.6 38H7.3V38.3H7.6V38ZM7.6 16.16H7.9V15.86H7.6V16.16ZM0.4 16.16H0.1V16.46H0.4V16.16ZM0.4 10V9.7H0.1V10H0.4ZM20.9 10V16.16H21.5V10H20.9ZM21.2 15.86H14V16.46H21.2V15.86ZM13.7 16.16V38H14.3V16.16H13.7ZM14 37.7H7.6V38.3H14V37.7ZM7.9 38V16.16H7.3V38H7.9ZM7.6 15.86H0.4V16.46H7.6V15.86ZM0.7 16.16V10H0.1V16.16H0.7ZM0.4 10.3H21.2V9.7H0.4V10.3ZM46.08 34.36L45.8689 34.1469L46.08 34.36ZM25.44 34.36L25.6511 34.1469L25.44 34.36ZM29.92 30L29.7079 30.2121L29.7097 30.2139L29.92 30ZM41.56 30L41.3497 29.7861L41.3479 29.7879L41.56 30ZM41.56 18L41.3479 18.2121L41.3497 18.2139L41.56 18ZM29.92 18L29.7097 17.7861L29.7079 17.7879L29.92 18ZM45.8689 34.1469C43.0996 36.8901 39.7359 38.26 35.76 38.26V38.86C39.8907 38.86 43.4071 37.4299 46.2911 34.5731L45.8689 34.1469ZM35.76 38.26C31.7841 38.26 28.4204 36.8901 25.6511 34.1469L25.2289 34.5731C28.1129 37.4299 31.6293 38.86 35.76 38.86V38.26ZM25.6511 34.1469C22.8834 31.4052 21.5 28.0295 21.5 24H20.9C20.9 28.1838 22.3433 31.7148 25.2289 34.5731L25.6511 34.1469ZM21.5 24C21.5 19.9705 22.8834 16.5948 25.6511 13.8531L25.2289 13.4269C22.3433 16.2852 20.9 19.8162 20.9 24H21.5ZM25.6511 13.8531C28.4204 11.1099 31.7841 9.74 35.76 9.74V9.14C31.6293 9.14 28.1129 10.5701 25.2289 13.4269L25.6511 13.8531ZM35.76 9.74C39.7359 9.74 43.0996 11.1099 45.8689 13.8531L46.2911 13.4269C43.4071 10.5701 39.8907 9.14 35.76 9.14V9.74ZM45.8689 13.8531C48.6367 16.5948 50.02 19.9705 50.02 24H50.62C50.62 19.8162 49.1767 16.2852 46.2911 13.4269L45.8689 13.8531ZM50.02 24C50.02 28.0295 48.6367 31.4052 45.8689 34.1469L46.2911 34.5731C49.1767 31.7148 50.62 28.1838 50.62 24H50.02ZM29.7097 30.2139C31.3423 31.8188 33.3658 32.62 35.76 32.62V32.02C33.5142 32.02 31.6444 31.2745 30.1303 29.7861L29.7097 30.2139ZM35.76 32.62C38.1542 32.62 40.1655 31.8187 41.7721 30.2121L41.3479 29.7879C39.8611 31.2746 38.0058 32.02 35.76 32.02V32.62ZM41.7703 30.2139C43.4077 28.6043 44.22 26.5239 44.22 24H43.62C43.62 26.3828 42.859 28.3024 41.3497 29.7861L41.7703 30.2139ZM44.22 24C44.22 21.4761 43.4077 19.3957 41.7703 17.7861L41.3497 18.2139C42.859 19.6976 43.62 21.6172 43.62 24H44.22ZM41.7721 17.7879C40.1655 16.1813 38.1542 15.38 35.76 15.38V15.98C38.0058 15.98 39.8611 16.7254 41.3479 18.2121L41.7721 17.7879ZM35.76 15.38C33.3658 15.38 31.3423 16.1812 29.7097 17.7861L30.1303 18.2139C31.6444 16.7255 33.5142 15.98 35.76 15.98V15.38ZM29.7079 17.7879C28.0979 19.3979 27.3 21.4777 27.3 24H27.9C27.9 21.6157 28.6488 19.6955 30.1321 18.2121L29.7079 17.7879ZM27.3 24C27.3 26.5223 28.0979 28.6021 29.7079 30.2121L30.1321 29.7879C28.6488 28.3045 27.9 26.3843 27.9 24H27.3ZM75.1234 10H75.4234V9.7H75.1234V10ZM75.1234 38V38.3H75.4234V38H75.1234ZM68.7234 38H68.4234V38.3H68.7234V38ZM68.7234 16.16H69.0234V15.86H68.7234V16.16ZM60.3234 16.16V15.86H60.0234V16.16H60.3234ZM60.3234 38V38.3H60.6234V38H60.3234ZM53.9234 38H53.6234V38.3H53.9234V38ZM53.9234 10V9.7H53.6234V10H53.9234ZM74.8234 10V38H75.4234V10H74.8234ZM75.1234 37.7H68.7234V38.3H75.1234V37.7ZM69.0234 38V16.16H68.4234V38H69.0234ZM68.7234 15.86H60.3234V16.46H68.7234V15.86ZM60.0234 16.16V38H60.6234V16.16H60.0234ZM60.3234 37.7H53.9234V38.3H60.3234V37.7ZM54.2234 38V10H53.6234V38H54.2234ZM53.9234 10.3H75.1234V9.7H53.9234V10.3ZM105.539 38H105.239V38.3H105.539V38ZM105.539 22.8H105.839V21.8598L105.295 22.6262L105.539 22.8ZM94.7391 38V38.3H94.8939L94.9836 38.1738L94.7391 38ZM89.9391 38H89.6391V38.3H89.9391V38ZM89.9391 10V9.7H89.6391V10H89.9391ZM96.3391 10H96.6391V9.7H96.3391V10ZM96.3391 25.2H96.0391V26.1402L96.5836 25.3738L96.3391 25.2ZM107.139 10V9.7H106.984L106.895 9.82624L107.139 10ZM111.939 10H112.239V9.7H111.939V10ZM111.939 38V38.3H112.239V38H111.939ZM105.839 38V22.8H105.239V38H105.839ZM105.295 22.6262L94.4945 37.8262L94.9836 38.1738L105.784 22.9738L105.295 22.6262ZM94.7391 37.7H89.9391V38.3H94.7391V37.7ZM90.2391 38V10H89.6391V38H90.2391ZM89.9391 10.3H96.3391V9.7H89.9391V10.3ZM96.0391 10V25.2H96.6391V10H96.0391ZM96.5836 25.3738L107.384 10.1738L106.895 9.82624L96.0945 25.0262L96.5836 25.3738ZM107.139 10.3H111.939V9.7H107.139V10.3ZM111.639 10V38H112.239V10H111.639ZM111.939 37.7H105.539V38.3H111.939V37.7ZM132.736 10H133.036V9.7H132.736V10ZM132.736 16.16V16.46H133.036V16.16H132.736ZM123.136 16.16V15.86H122.836V16.16H123.136ZM123.136 38V38.3H123.436V38H123.136ZM116.736 38H116.436V38.3H116.736V38ZM116.736 10V9.7H116.436V10H116.736ZM132.436 10V16.16H133.036V10H132.436ZM132.736 15.86H123.136V16.46H132.736V15.86ZM122.836 16.16V38H123.436V16.16H122.836ZM123.136 37.7H116.736V38.3H123.136V37.7ZM117.036 38V10H116.436V38H117.036ZM116.736 10.3H132.736V9.7H116.736V10.3ZM153.085 12.8L153.296 12.5864L153.085 12.8ZM153.085 26.4L152.874 26.1864V26.1864L153.085 26.4ZM141.925 29.2V28.9H141.625V29.2H141.925ZM141.925 38V38.3H142.225V38H141.925ZM135.525 38H135.225V38.3H135.525V38ZM135.525 10V9.7H135.225V10H135.525ZM148.565 22.16L148.345 21.9565L148.565 22.16ZM148.565 17.04L148.785 16.8365L148.565 17.04ZM141.925 16V15.7H141.625V16H141.925ZM141.925 23.2H141.625V23.5H141.925V23.2ZM146.125 10.3C148.796 10.3 151.039 11.2043 152.874 13.0136L153.296 12.5864C151.344 10.6623 148.948 9.7 146.125 9.7V10.3ZM152.874 13.0136C154.71 14.8237 155.625 17.0134 155.625 19.6H156.225C156.225 16.8533 155.246 14.5096 153.296 12.5864L152.874 13.0136ZM155.625 19.6C155.625 22.1866 154.71 24.3763 152.874 26.1864L153.296 26.6136C155.246 24.6904 156.225 22.3467 156.225 19.6H155.625ZM152.874 26.1864C151.039 27.9957 148.796 28.9 146.125 28.9V29.5C148.948 29.5 151.344 28.5376 153.296 26.6136L152.874 26.1864ZM146.125 28.9H141.925V29.5H146.125V28.9ZM141.625 29.2V38H142.225V29.2H141.625ZM141.925 37.7H135.525V38.3H141.925V37.7ZM135.825 38V10H135.225V38H135.825ZM135.525 10.3H146.125V9.7H135.525V10.3ZM146.125 23.5C147.191 23.5 148.086 23.1214 148.785 22.3635L148.345 21.9565C147.764 22.5852 147.032 22.9 146.125 22.9V23.5ZM148.785 22.3635C149.481 21.6104 149.825 20.6827 149.825 19.6H149.225C149.225 20.544 148.929 21.3229 148.345 21.9565L148.785 22.3635ZM149.825 19.6C149.825 18.5173 149.481 17.5896 148.785 16.8365L148.345 17.2435C148.929 17.8771 149.225 18.656 149.225 19.6H149.825ZM148.785 16.8365C148.086 16.0786 147.191 15.7 146.125 15.7V16.3C147.032 16.3 147.764 16.6148 148.345 17.2435L148.785 16.8365ZM146.125 15.7H141.925V16.3H146.125V15.7ZM141.625 16V23.2H142.225V16H141.625ZM141.925 23.5H146.125V22.9H141.925V23.5ZM182.603 34.36L182.392 34.1469L182.603 34.36ZM161.963 34.36L162.175 34.1469L161.963 34.36ZM166.443 30L166.231 30.2121L166.233 30.2139L166.443 30ZM178.083 30L177.873 29.7861L177.871 29.7879L178.083 30ZM178.083 18L177.871 18.2121L177.873 18.2139L178.083 18ZM166.443 18L166.233 17.7861L166.231 17.7879L166.443 18ZM182.392 34.1469C179.623 36.8901 176.259 38.26 172.283 38.26V38.86C176.414 38.86 179.931 37.4299 182.815 34.5731L182.392 34.1469ZM172.283 38.26C168.308 38.26 164.944 36.8901 162.175 34.1469L161.752 34.5731C164.636 37.4299 168.153 38.86 172.283 38.86V38.26ZM162.175 34.1469C159.407 31.4052 158.023 28.0295 158.023 24H157.423C157.423 28.1838 158.867 31.7148 161.752 34.5731L162.175 34.1469ZM158.023 24C158.023 19.9705 159.407 16.5948 162.175 13.8531L161.752 13.4269C158.867 16.2852 157.423 19.8162 157.423 24H158.023ZM162.175 13.8531C164.944 11.1099 168.308 9.74 172.283 9.74V9.14C168.153 9.14 164.636 10.5701 161.752 13.4269L162.175 13.8531ZM172.283 9.74C176.259 9.74 179.623 11.1099 182.392 13.8531L182.815 13.4269C179.931 10.5701 176.414 9.14 172.283 9.14V9.74ZM182.392 13.8531C185.16 16.5948 186.543 19.9705 186.543 24H187.143C187.143 19.8162 185.7 16.2852 182.815 13.4269L182.392 13.8531ZM186.543 24C186.543 28.0295 185.16 31.4052 182.392 34.1469L182.815 34.5731C185.7 31.7148 187.143 28.1838 187.143 24H186.543ZM166.233 30.2139C167.866 31.8188 169.889 32.62 172.283 32.62V32.02C170.038 32.02 168.168 31.2745 166.654 29.7861L166.233 30.2139ZM172.283 32.62C174.678 32.62 176.689 31.8187 178.296 30.2121L177.871 29.7879C176.385 31.2746 174.529 32.02 172.283 32.02V32.62ZM178.294 30.2139C179.931 28.6043 180.743 26.5239 180.743 24H180.143C180.143 26.3828 179.382 28.3024 177.873 29.7861L178.294 30.2139ZM180.743 24C180.743 21.4761 179.931 19.3957 178.294 17.7861L177.873 18.2139C179.382 19.6976 180.143 21.6172 180.143 24H180.743ZM178.296 17.7879C176.689 16.1813 174.678 15.38 172.283 15.38V15.98C174.529 15.98 176.385 16.7254 177.871 18.2121L178.296 17.7879ZM172.283 15.38C169.889 15.38 167.866 16.1812 166.233 17.7861L166.654 18.2139C168.168 16.7255 170.038 15.98 172.283 15.98V15.38ZM166.231 17.7879C164.621 19.3979 163.823 21.4777 163.823 24H164.423C164.423 21.6157 165.172 19.6955 166.656 18.2121L166.231 17.7879ZM163.823 24C163.823 26.5223 164.621 28.6021 166.231 30.2121L166.656 29.7879C165.172 28.3045 164.423 26.3843 164.423 24H163.823ZM213.087 38V38.3H213.656L213.334 37.8304L213.087 38ZM205.807 38L205.56 38.1706L205.65 38.3H205.807V38ZM196.847 25.04L197.094 24.8694L196.547 24.0785V25.04H196.847ZM196.847 38V38.3H197.147V38H196.847ZM190.447 38H190.147V38.3H190.447V38ZM190.447 10V9.7H190.147V10H190.447ZM196.847 10H197.147V9.7H196.847V10ZM196.847 22.16H196.547V23.1073L197.092 22.3327L196.847 22.16ZM205.407 10V9.7H205.251L205.162 9.82731L205.407 10ZM212.687 10L212.934 10.1707L213.259 9.7H212.687V10ZM203.247 23.64L203 23.4693L202.883 23.6392L202.999 23.8096L203.247 23.64ZM213.087 37.7H205.807V38.3H213.087V37.7ZM206.054 37.8294L197.094 24.8694L196.6 25.2106L205.56 38.1706L206.054 37.8294ZM196.547 25.04V38H197.147V25.04H196.547ZM196.847 37.7H190.447V38.3H196.847V37.7ZM190.747 38V10H190.147V38H190.747ZM190.447 10.3H196.847V9.7H190.447V10.3ZM196.547 10V22.16H197.147V10H196.547ZM197.092 22.3327L205.652 10.1727L205.162 9.82731L196.602 21.9873L197.092 22.3327ZM205.407 10.3H212.687V9.7H205.407V10.3ZM212.44 9.82927L203 23.4693L203.494 23.8107L212.934 10.1707L212.44 9.82927ZM202.999 23.8096L212.839 38.1696L213.334 37.8304L203.494 23.4704L202.999 23.8096ZM236.783 34.36L236.572 34.1469L236.783 34.36ZM216.143 34.36L216.354 34.1469L216.143 34.36ZM220.623 30L220.411 30.2121L220.413 30.2139L220.623 30ZM232.263 30L232.053 29.7861L232.051 29.7879L232.263 30ZM232.263 18L232.051 18.2121L232.053 18.2139L232.263 18ZM220.623 18L220.413 17.7861L220.411 17.7879L220.623 18ZM236.572 34.1469C233.803 36.8901 230.439 38.26 226.463 38.26V38.86C230.594 38.86 234.11 37.4299 236.994 34.5731L236.572 34.1469ZM226.463 38.26C222.487 38.26 219.124 36.8901 216.354 34.1469L215.932 34.5731C218.816 37.4299 222.332 38.86 226.463 38.86V38.26ZM216.354 34.1469C213.586 31.4052 212.203 28.0295 212.203 24H211.603C211.603 28.1838 213.046 31.7148 215.932 34.5731L216.354 34.1469ZM212.203 24C212.203 19.9705 213.586 16.5948 216.354 13.8531L215.932 13.4269C213.046 16.2852 211.603 19.8162 211.603 24H212.203ZM216.354 13.8531C219.124 11.1099 222.487 9.74 226.463 9.74V9.14C222.332 9.14 218.816 10.5701 215.932 13.4269L216.354 13.8531ZM226.463 9.74C230.439 9.74 233.803 11.1099 236.572 13.8531L236.994 13.4269C234.11 10.5701 230.594 9.14 226.463 9.14V9.74ZM236.572 13.8531C239.34 16.5948 240.723 19.9705 240.723 24H241.323C241.323 19.8162 239.88 16.2852 236.994 13.4269L236.572 13.8531ZM240.723 24C240.723 28.0295 239.34 31.4052 236.572 34.1469L236.994 34.5731C239.88 31.7148 241.323 28.1838 241.323 24H240.723ZM220.413 30.2139C222.045 31.8188 224.069 32.62 226.463 32.62V32.02C224.217 32.02 222.348 31.2745 220.833 29.7861L220.413 30.2139ZM226.463 32.62C228.857 32.62 230.869 31.8187 232.475 30.2121L232.051 29.7879C230.564 31.2746 228.709 32.02 226.463 32.02V32.62ZM232.473 30.2139C234.111 28.6043 234.923 26.5239 234.923 24H234.323C234.323 26.3828 233.562 28.3024 232.053 29.7861L232.473 30.2139ZM234.923 24C234.923 21.4761 234.111 19.3957 232.473 17.7861L232.053 18.2139C233.562 19.6976 234.323 21.6172 234.323 24H234.923ZM232.475 17.7879C230.869 16.1813 228.857 15.38 226.463 15.38V15.98C228.709 15.98 230.564 16.7254 232.051 18.2121L232.475 17.7879ZM226.463 15.38C224.069 15.38 222.045 16.1812 220.413 17.7861L220.833 18.2139C222.348 16.7255 224.217 15.98 226.463 15.98V15.38ZM220.411 17.7879C218.801 19.3979 218.003 21.4777 218.003 24H218.603C218.603 21.6157 219.352 19.6955 220.835 18.2121L220.411 17.7879ZM218.003 24C218.003 26.5223 218.801 28.6021 220.411 30.2121L220.835 29.7879C219.352 28.3045 218.603 26.3843 218.603 24H218.003ZM261.987 23.48L261.79 23.2535L261.487 23.5166L261.825 23.7327L261.987 23.48ZM262.827 35.72L263.024 35.9456L262.827 35.72ZM244.627 38H244.327V38.3H244.627V38ZM244.627 10V9.7H244.327V10H244.627ZM261.867 12.24L261.667 12.4643L261.671 12.4675L261.867 12.24ZM251.027 16V15.7H250.727V16H251.027ZM251.027 20.96H250.727V21.26H251.027V20.96ZM257.347 20.28L257.559 20.4922L257.565 20.486L257.347 20.28ZM257.347 16.72L257.128 16.9261L257.134 16.9321L257.347 16.72ZM258.307 31.28L258.519 31.4922L258.524 31.4863L258.307 31.28ZM258.307 27.4L258.089 27.6064L258.094 27.6121L258.307 27.4ZM251.027 26.64V26.34H250.727V26.64H251.027ZM251.027 32H250.727V32.3H251.027V32ZM261.825 23.7327C264.031 25.1437 265.127 27.1545 265.127 29.8H265.727C265.727 26.9521 264.529 24.7497 262.148 23.2273L261.825 23.7327ZM265.127 29.8C265.127 32.1454 264.293 34.0347 262.629 35.4944L263.024 35.9456C264.826 34.3653 265.727 32.3079 265.727 29.8H265.127ZM262.629 35.4944C260.956 36.9611 258.882 37.7 256.387 37.7V38.3C259.011 38.3 261.23 37.5189 263.024 35.9456L262.629 35.4944ZM256.387 37.7H244.627V38.3H256.387V37.7ZM244.927 38V10H244.327V38H244.927ZM244.627 10.3H255.587V9.7H244.627V10.3ZM255.587 10.3C258.029 10.3 260.049 11.0254 261.667 12.4642L262.066 12.0158C260.325 10.4679 258.158 9.7 255.587 9.7V10.3ZM261.671 12.4675C263.307 13.8737 264.127 15.7087 264.127 18H264.727C264.727 15.5447 263.839 13.5396 262.062 12.0125L261.671 12.4675ZM264.127 18C264.127 20.157 263.348 21.8997 261.79 23.2535L262.183 23.7065C263.878 22.2336 264.727 20.323 264.727 18H264.127ZM255.587 15.7H251.027V16.3H255.587V15.7ZM250.727 16V20.96H251.327V16H250.727ZM251.027 21.26H255.587V20.66H251.027V21.26ZM255.587 21.26C256.375 21.26 257.042 21.0089 257.559 20.4921L257.134 20.0679C256.745 20.4578 256.238 20.66 255.587 20.66V21.26ZM257.565 20.486C258.076 19.945 258.327 19.269 258.327 18.48H257.727C257.727 19.131 257.524 19.655 257.128 20.074L257.565 20.486ZM258.327 18.48C258.327 17.6911 258.075 17.0246 257.559 16.5079L257.134 16.9321C257.524 17.3221 257.727 17.8289 257.727 18.48H258.327ZM257.565 16.514C257.049 15.9682 256.381 15.7 255.587 15.7V16.3C256.232 16.3 256.737 16.5118 257.128 16.926L257.565 16.514ZM256.387 32.3C257.251 32.3 257.972 32.0384 258.519 31.4921L258.094 31.0679C257.681 31.4816 257.122 31.7 256.387 31.7V32.3ZM258.524 31.4863C259.065 30.9157 259.327 30.1847 259.327 29.32H258.727C258.727 30.0553 258.508 30.6309 258.089 31.0737L258.524 31.4863ZM259.327 29.32C259.327 28.4557 259.065 27.7341 258.519 27.1879L258.094 27.6121C258.508 28.0259 258.727 28.5843 258.727 29.32H259.327ZM258.524 27.1937C257.979 26.6183 257.256 26.34 256.387 26.34V26.94C257.117 26.94 257.674 27.1684 258.089 27.6063L258.524 27.1937ZM256.387 26.34H251.027V26.94H256.387V26.34ZM250.727 26.64V32H251.327V26.64H250.727ZM251.027 32.3H256.387V31.7H251.027V32.3Z" fill="white" fill-opacity="0.3" mask="url(#path-1-outside-1_1168_2)"/>
<path d="M48.9 14V18.62H43.5V35H38.7V18.62H33.3V14H48.9ZM67.56 32.27C65.44 34.37 62.86 35.42 59.82 35.42C56.78 35.42 54.2 34.37 52.08 32.27C49.96 30.17 48.9 27.58 48.9 24.5C48.9 21.42 49.96 18.83 52.08 16.73C54.2 14.63 56.78 13.58 59.82 13.58C62.86 13.58 65.44 14.63 67.56 16.73C69.68 18.83 70.74 21.42 70.74 24.5C70.74 27.58 69.68 30.17 67.56 32.27ZM55.44 29C56.62 30.16 58.08 30.74 59.82 30.74C61.56 30.74 63.01 30.16 64.17 29C65.35 27.84 65.94 26.34 65.94 24.5C65.94 22.66 65.35 21.16 64.17 20C63.01 18.84 61.56 18.26 59.82 18.26C58.08 18.26 56.62 18.84 55.44 20C54.28 21.16 53.7 22.66 53.7 24.5C53.7 26.34 54.28 27.84 55.44 29ZM89.3426 14V35H84.5426V18.62H78.2426V35H73.4426V14H89.3426ZM112.154 35V23.6L104.054 35H100.454V14H105.254V25.4L113.354 14H116.954V35H112.154ZM132.552 14V18.62H125.352V35H120.552V14H132.552ZM142.594 14C144.654 14 146.394 14.7 147.814 16.1C149.234 17.5 149.944 19.2 149.944 21.2C149.944 23.2 149.234 24.9 147.814 26.3C146.394 27.7 144.654 28.4 142.594 28.4H139.444V35H134.644V14H142.594ZM142.594 23.9C143.334 23.9 143.944 23.64 144.424 23.12C144.904 22.6 145.144 21.96 145.144 21.2C145.144 20.44 144.904 19.8 144.424 19.28C143.944 18.76 143.334 18.5 142.594 18.5H139.444V23.9H142.594ZM169.953 32.27C167.833 34.37 165.253 35.42 162.213 35.42C159.173 35.42 156.593 34.37 154.473 32.27C152.353 30.17 151.293 27.58 151.293 24.5C151.293 21.42 152.353 18.83 154.473 16.73C156.593 14.63 159.173 13.58 162.213 13.58C165.253 13.58 167.833 14.63 169.953 16.73C172.073 18.83 173.133 21.42 173.133 24.5C173.133 27.58 172.073 30.17 169.953 32.27ZM157.833 29C159.013 30.16 160.473 30.74 162.213 30.74C163.953 30.74 165.403 30.16 166.563 29C167.743 27.84 168.333 26.34 168.333 24.5C168.333 22.66 167.743 21.16 166.563 20C165.403 18.84 163.953 18.26 162.213 18.26C160.473 18.26 159.013 18.84 157.833 20C156.673 21.16 156.093 22.66 156.093 24.5C156.093 26.34 156.673 27.84 157.833 29ZM192.815 35H187.355L180.635 25.28V35H175.835V14H180.635V23.12L187.055 14H192.515L185.435 24.23L192.815 35ZM210.587 32.27C208.467 34.37 205.887 35.42 202.847 35.42C199.807 35.42 197.227 34.37 195.107 32.27C192.987 30.17 191.927 27.58 191.927 24.5C191.927 21.42 192.987 18.83 195.107 16.73C197.227 14.63 199.807 13.58 202.847 13.58C205.887 13.58 208.467 14.63 210.587 16.73C212.707 18.83 213.767 21.42 213.767 24.5C213.767 27.58 212.707 30.17 210.587 32.27ZM198.467 29C199.647 30.16 201.107 30.74 202.847 30.74C204.587 30.74 206.037 30.16 207.197 29C208.377 27.84 208.967 26.34 208.967 24.5C208.967 22.66 208.377 21.16 207.197 20C206.037 18.84 204.587 18.26 202.847 18.26C201.107 18.26 199.647 18.84 198.467 20C197.307 21.16 196.727 22.66 196.727 24.5C196.727 26.34 197.307 27.84 198.467 29ZM229.49 24.11C231.21 25.21 232.07 26.79 232.07 28.85C232.07 30.67 231.42 32.15 230.12 33.29C228.82 34.43 227.21 35 225.29 35H216.47V14H224.69C226.57 14 228.14 14.56 229.4 15.68C230.68 16.78 231.32 18.22 231.32 20C231.32 21.68 230.71 23.05 229.49 24.11ZM224.69 18.5H221.27V22.22H224.69C225.23 22.22 225.67 22.05 226.01 21.71C226.35 21.35 226.52 20.9 226.52 20.36C226.52 19.82 226.35 19.38 226.01 19.04C225.67 18.68 225.23 18.5 224.69 18.5ZM225.29 30.5C225.89 30.5 226.37 30.32 226.73 29.96C227.09 29.58 227.27 29.09 227.27 28.49C227.27 27.89 227.09 27.41 226.73 27.05C226.37 26.67 225.89 26.48 225.29 26.48H221.27V30.5H225.29Z" fill="white"/>
</svg>
