<svg xmlns="http://www.w3.org/2000/svg" width="14" height="14" viewBox="0 0 14 14" fill="none">
<path d="M7.75425 2.31003C8.01193 2.04822 8.31889 1.84002 8.65742 1.69743C8.99595 1.55483 9.35937 1.48067 9.72671 1.47921C10.094 1.47775 10.458 1.54903 10.7977 1.68893C11.1373 1.82883 11.4459 2.03458 11.7057 2.29433C11.9654 2.55408 12.1712 2.86268 12.3111 3.20234C12.451 3.542 12.5223 3.90599 12.5208 4.27332C12.5194 4.64066 12.4452 5.00408 12.3026 5.34261C12.16 5.68115 11.9518 5.9881 11.69 6.24578L9.9225 8.01328L9.09709 7.18903L10.8646 5.42095C11.1678 5.11787 11.3382 4.70675 11.3383 4.27802C11.3385 3.8493 11.1682 3.43809 10.8652 3.13486C10.5621 2.83163 10.151 2.66122 9.72225 2.66111C9.29353 2.661 8.88232 2.8312 8.57909 3.13428L6.811 4.90236L5.98617 4.07753L7.75367 2.31003H7.75425ZM8.99092 5.83336L5.83217 8.99153L5.00734 8.1667L8.1655 5.00853L8.99092 5.83336ZM4.90175 6.81103L3.13425 8.57911C2.83102 8.88234 2.66067 9.29361 2.66067 9.72245C2.66067 10.1513 2.83102 10.5625 3.13425 10.8658C3.43748 11.169 3.84875 11.3394 4.27759 11.3394C4.70642 11.3394 5.11769 11.169 5.42092 10.8658L7.18842 9.09769L8.01325 9.92253L6.24575 11.69C5.72384 12.212 5.01594 12.5053 4.27779 12.5054C3.53964 12.5054 2.8317 12.2122 2.30971 11.6903C1.78772 11.1684 1.49444 10.4605 1.49438 9.72236C1.49433 8.98421 1.78751 8.27627 2.30942 7.75428L4.07692 5.98678L4.90234 6.81103H4.90175Z" fill="#628EFF"/>
</svg>