<svg width="21" height="21" viewBox="0 0 21 21" fill="none" xmlns="http://www.w3.org/2000/svg">
<g clip-path="url(#clip0_585_231)">
<path d="M17.8558 14.3034C16.9185 13.2878 15.781 12.4774 14.515 11.923C13.2491 11.3687 11.882 11.0825 10.5 11.0825C9.11797 11.0825 7.75092 11.3687 6.48494 11.923C5.21896 12.4774 4.08149 13.2878 3.14416 14.3034C2.99944 14.4634 2.91849 14.671 2.91666 14.8868V18.3868C2.91972 18.6168 3.01326 18.8364 3.17703 18.9979C3.34079 19.1595 3.5616 19.2501 3.79166 19.2501H17.2083C17.4404 19.2501 17.6629 19.1579 17.827 18.9938C17.9911 18.8297 18.0833 18.6072 18.0833 18.3751V14.8751C18.0787 14.6634 17.9979 14.4604 17.8558 14.3034Z" fill="white"/>
<path d="M10.5 9.91667C12.7552 9.91667 14.5834 8.0885 14.5834 5.83333C14.5834 3.57817 12.7552 1.75 10.5 1.75C8.24486 1.75 6.41669 3.57817 6.41669 5.83333C6.41669 8.0885 8.24486 9.91667 10.5 9.91667Z" fill="white"/>
</g>
<defs>
<clipPath id="clip0_585_231">
<rect width="21" height="21" fill="white"/>
</clipPath>
</defs>
</svg>
