<svg width="35" height="35" viewBox="0 0 35 35" fill="none" xmlns="http://www.w3.org/2000/svg">
<path d="M29.5312 9.84375H7.65625C7.36617 9.84375 7.08797 9.72852 6.88285 9.5234C6.67773 9.31828 6.5625 9.04008 6.5625 8.75C6.5625 8.45992 6.67773 8.18172 6.88285 7.9766C7.08797 7.77148 7.36617 7.65625 7.65625 7.65625H26.25C26.5401 7.65625 26.8183 7.54102 27.0234 7.3359C27.2285 7.13078 27.3438 6.85258 27.3438 6.5625C27.3438 6.27242 27.2285 5.99422 27.0234 5.7891C26.8183 5.58398 26.5401 5.46875 26.25 5.46875H7.65625C6.78601 5.46875 5.95141 5.81445 5.33606 6.42981C4.7207 7.04516 4.375 7.87976 4.375 8.75V26.25C4.375 27.1202 4.7207 27.9548 5.33606 28.5702C5.95141 29.1855 6.78601 29.5312 7.65625 29.5312H29.5312C30.1114 29.5312 30.6678 29.3008 31.078 28.8905C31.4883 28.4803 31.7188 27.9239 31.7188 27.3438V12.0312C31.7188 11.4511 31.4883 10.8947 31.078 10.4845C30.6678 10.0742 30.1114 9.84375 29.5312 9.84375ZM24.6094 20.7812C24.2849 20.7812 23.9677 20.685 23.6979 20.5048C23.4281 20.3245 23.2178 20.0682 23.0936 19.7685C22.9695 19.4687 22.937 19.1388 23.0003 18.8206C23.0636 18.5023 23.2198 18.21 23.4493 17.9805C23.6787 17.7511 23.9711 17.5948 24.2893 17.5315C24.6076 17.4682 24.9374 17.5007 25.2372 17.6249C25.537 17.7491 25.7932 17.9593 25.9735 18.2291C26.1538 18.4989 26.25 18.8161 26.25 19.1406C26.25 19.5757 26.0771 19.993 25.7695 20.3007C25.4618 20.6084 25.0445 20.7812 24.6094 20.7812Z" fill="white"/>
</svg>
