<svg width="41" height="41" viewBox="0 0 41 41" fill="none" xmlns="http://www.w3.org/2000/svg">
<g filter="url(#filter0_d_1568_442)">
<mask id="mask0_1568_442" style="mask-type:alpha" maskUnits="userSpaceOnUse" x="8" y="8" width="25" height="25">
<rect x="8" y="8" width="25" height="25" fill="#D9D9D9"/>
</mask>
<g mask="url(#mask0_1568_442)">
<path d="M19.0418 25.2917L26.3856 17.948L24.9272 16.4896L19.0418 22.375L16.0731 19.4063L14.6147 20.8646L19.0418 25.2917ZM20.5002 30.9167C19.0592 30.9167 17.705 30.6433 16.4377 30.0964C15.1703 29.5495 14.0679 28.8073 13.1304 27.8698C12.1929 26.9323 11.4507 25.8299 10.9038 24.5625C10.3569 23.2952 10.0835 21.941 10.0835 20.5C10.0835 19.0591 10.3569 17.7049 10.9038 16.4375C11.4507 15.1702 12.1929 14.0677 13.1304 13.1302C14.0679 12.1927 15.1703 11.4506 16.4377 10.9037C17.705 10.3568 19.0592 10.0834 20.5002 10.0834C21.9411 10.0834 23.2953 10.3568 24.5627 10.9037C25.83 11.4506 26.9325 12.1927 27.87 13.1302C28.8075 14.0677 29.5496 15.1702 30.0965 16.4375C30.6434 17.7049 30.9168 19.0591 30.9168 20.5C30.9168 21.941 30.6434 23.2952 30.0965 24.5625C29.5496 25.8299 28.8075 26.9323 27.87 27.8698C26.9325 28.8073 25.83 29.5495 24.5627 30.0964C23.2953 30.6433 21.9411 30.9167 20.5002 30.9167ZM20.5002 28.8334C22.8266 28.8334 24.797 28.0261 26.4116 26.4115C28.0262 24.7969 28.8335 22.8264 28.8335 20.5C28.8335 18.1737 28.0262 16.2032 26.4116 14.5886C24.797 12.974 22.8266 12.1667 20.5002 12.1667C18.1738 12.1667 16.2033 12.974 14.5887 14.5886C12.9741 16.2032 12.1668 18.1737 12.1668 20.5C12.1668 22.8264 12.9741 24.7969 14.5887 26.4115C16.2033 28.0261 18.1738 28.8334 20.5002 28.8334Z" fill="#359D5A"/>
</g>
</g>
<defs>
<filter id="filter0_d_1568_442" x="0.0834961" y="0.083374" width="40.8335" height="40.8333" filterUnits="userSpaceOnUse" color-interpolation-filters="sRGB">
<feFlood flood-opacity="0" result="BackgroundImageFix"/>
<feColorMatrix in="SourceAlpha" type="matrix" values="0 0 0 0 0 0 0 0 0 0 0 0 0 0 0 0 0 0 127 0" result="hardAlpha"/>
<feOffset/>
<feGaussianBlur stdDeviation="5"/>
<feComposite in2="hardAlpha" operator="out"/>
<feColorMatrix type="matrix" values="0 0 0 0 0.207843 0 0 0 0 0.615686 0 0 0 0 0.352941 0 0 0 0.5 0"/>
<feBlend mode="normal" in2="BackgroundImageFix" result="effect1_dropShadow_1568_442"/>
<feBlend mode="normal" in="SourceGraphic" in2="effect1_dropShadow_1568_442" result="shape"/>
</filter>
</defs>
</svg>
