<svg xmlns="http://www.w3.org/2000/svg" width="21" height="21" viewBox="0 0 21 21" fill="none">
<g clip-path="url(#clip0_689_577)">
<path d="M12.9754 10.4545L14.2126 9.21722L10.5 5.50372L6.78735 9.21635L8.02548 10.4536L9.62498 8.85497V15.4498H11.375V8.85497L12.9754 10.4545Z" fill="white"/>
<path fill-rule="evenodd" clip-rule="evenodd" d="M17.3058 3.69425C13.5468 -0.06475 7.45325 -0.06475 3.69425 3.69425C-0.06475 7.45325 -0.06475 13.5468 3.69425 17.3058C7.45325 21.0648 13.5468 21.0648 17.3058 17.3058C21.0648 13.5468 21.0648 7.45325 17.3058 3.69425ZM16.0685 4.9315C14.5916 3.45464 12.5886 2.62495 10.5 2.62495C8.41141 2.62495 6.40836 3.45464 4.9315 4.9315C3.45464 6.40836 2.62495 8.41141 2.62495 10.5C2.62495 12.5886 3.45464 14.5916 4.9315 16.0685C6.40836 17.5454 8.41141 18.375 10.5 18.375C12.5886 18.375 14.5916 17.5454 16.0685 16.0685C17.5454 14.5916 18.375 12.5886 18.375 10.5C18.375 8.41141 17.5454 6.40836 16.0685 4.9315Z" fill="white"/>
</g>
<defs>
<clipPath id="clip0_689_577">
<rect width="21" height="21" fill="white"/>
</clipPath>
</defs>
</svg>