<svg xmlns="http://www.w3.org/2000/svg" width="23" height="23" viewBox="0 0 23 23" fill="none">
<path d="M6.70826 4.79165H22.0416V8.62498H21.0833V9.58331H15.3333C15.0791 9.58331 14.8353 9.68428 14.6556 9.864C14.4759 10.0437 14.3749 10.2875 14.3749 10.5416V11.5C14.3749 12.0083 14.173 12.4958 13.8135 12.8553C13.4541 13.2147 12.9666 13.4166 12.4583 13.4166H9.21909C8.85492 13.4166 8.51951 13.6275 8.35659 13.9533L6.00867 18.6396C5.84576 18.9654 5.51992 19.1666 5.15576 19.1666H1.91659C1.91659 19.1666 -0.958408 19.1666 2.87492 13.4166C2.87492 13.4166 5.74992 9.58331 1.91659 9.58331V4.79165H2.87492L3.35409 3.83331H6.22909L6.70826 4.79165ZM13.4166 11.5V10.5416C13.4166 10.2875 13.3156 10.0437 13.1359 9.864C12.9562 9.68428 12.7124 9.58331 12.4583 9.58331H11.4999C11.4999 9.58331 10.5416 10.5416 11.4999 11.5C10.9916 11.5 10.5041 11.298 10.1446 10.9386C9.78519 10.5792 9.58326 10.0916 9.58326 9.58331C9.32909 9.58331 9.08534 9.68428 8.90561 9.864C8.72589 10.0437 8.62492 10.2875 8.62492 10.5416V11.5C8.62492 11.7541 8.72589 11.9979 8.90561 12.1776C9.08534 12.3573 9.32909 12.4583 9.58326 12.4583H12.4583C12.7124 12.4583 12.9562 12.3573 13.1359 12.1776C13.3156 11.9979 13.4166 11.7541 13.4166 11.5Z" fill="white"/>
</svg>