<svg xmlns="http://www.w3.org/2000/svg" width="21" height="21" viewBox="0 0 21 21" fill="none">
<path d="M14 14.875V16.625H1.75V14.875C1.75 14.875 1.75 11.375 7.875 11.375C14 11.375 14 14.875 14 14.875ZM10.9375 6.56248C10.9375 5.95678 10.7579 5.36468 10.4214 4.86105C10.0849 4.35743 9.60657 3.9649 9.04697 3.7331C8.48737 3.50131 7.8716 3.44066 7.27754 3.55883C6.68347 3.677 6.13778 3.96867 5.70949 4.39697C5.28119 4.82527 4.98951 5.37095 4.87135 5.96502C4.75318 6.55909 4.81383 7.17485 5.04562 7.73445C5.27741 8.29405 5.66994 8.77235 6.17357 9.10886C6.67719 9.44537 7.26929 9.62498 7.875 9.62498C8.68723 9.62498 9.46618 9.30233 10.0405 8.728C10.6148 8.15367 10.9375 7.37471 10.9375 6.56248ZM13.9475 11.375C14.4854 11.7913 14.9256 12.3204 15.237 12.9251C15.5484 13.5297 15.7235 14.1953 15.75 14.875V16.625H19.25V14.875C19.25 14.875 19.25 11.6987 13.9475 11.375ZM13.125 3.49998C12.5227 3.49663 11.9337 3.6767 11.4362 4.01624C11.9678 4.75888 12.2535 5.64924 12.2535 6.56248C12.2535 7.47573 11.9678 8.36609 11.4362 9.10873C11.9337 9.44827 12.5227 9.62834 13.125 9.62498C13.9372 9.62498 14.7162 9.30233 15.2905 8.728C15.8648 8.15367 16.1875 7.37471 16.1875 6.56248C16.1875 5.75026 15.8648 4.9713 15.2905 4.39697C14.7162 3.82264 13.9372 3.49998 13.125 3.49998Z" fill="white"/>
</svg>